{
.appVersion = "99";
DisplayStrings = (
"//{}_~a*a//*//"
);
copyright = "Copyright (c) 2010-2011 by tyPoland Lukasz Dziedzic with Reserved Font Name \"Lato\". Licensed under the SIL Open Font License, Version 1.1.";
date = "2011-09-12 07:00:00 +0000";
designer = "Paul Go";
designerURL = "http://www.github.com/paul-go";
familyName = "Lato Code";
featurePrefixes = (
{
automatic = 1;
code = "languagesystem DFLT dflt;\012";
name = Languagesystems;
}
);
features = (
{
automatic = 1;
code = "feature frac;\012feature ordn;\012";
name = aalt;
},
{
automatic = 1;
code = "sub one slash four by onequarter;\012sub one slash two by onehalf;\012sub three slash four by threequarters;\012";
name = frac;
},
{
automatic = 1;
code = "sub [zero one two three four five six seven eight nine] [A a]' by ordfeminine;\012sub [zero one two three four five six seven eight nine] [O o]' by ordmasculine;\012";
name = ordn;
},
{
automatic = 1;
code = "sub f i by fi;\012sub f l by fl;\012";
name = liga;
}
);
fontMaster = (
{
ascender = 1610;
capHeight = 1457;
custom = Black;
customParameters = (
{
name = "Prep Table Assembly";

glyphs = (
{
glyphname = A;
layers = (
{
layerId = "0F82F74C-23B9-402A-A6A2-E1A5FCDC2DA6";
paths = (
{
closed = 1;
nodes = (
"912 1457 LINE",
"566 1457 LINE",
"2 0 LINE",
"266 0 LINE SMOOTH",
"322 0 OFFCURVE",
"362.667 35.667 OFFCURVE",
"376 73 CURVE SMOOTH",
"462 327 LINE",
"1016 327 LINE",
"1102 73 LINE SMOOTH",
"1116.667 30.333 OFFCURVE",
"1155.333 0 OFFCURVE",
"1214 0 CURVE SMOOTH",
"1476 0 LINE"
);
},
{
closed = 1;
nodes = (
"674 954 LINE",
"694 1004.667 OFFCURVE",
"717.667 1075.667 OFFCURVE",
"739 1157 CURVE",
"761.667 1077 OFFCURVE",
"786.667 1006.667 OFFCURVE",
"804 956 CURVE SMOOTH",
"938 557 LINE",
"540 557 LINE"
);
}
);
userData = {
assembly = "NPUSHB[ ]\011/* 12 values pushed */
15 14 13 12 11 9 6 5 2 0 5 7 
CALL[ ]\011/* CallFunction */
MPPEM[ ]\011/* MeasurePixelPerEm */
PUSHB[ ]\011/* 1 value pushed */
94 
LT[ ]\011/* LessThan */
IF[ ]\011/* If */
NPUSHB[ ]\011/* 29 values pushed */
19 1 4 3 1 30 0 4 0 1 0 4 1 0 2 38 0 3 3 11 31 2 1 0 0 12 0 32 4 
ELSE[ ]\011/* Else */
MPPEM[ ]\011/* MeasurePixelPerEm */
PUSHB[ ]\011/* 1 value pushed */
232 
LT[ ]\011/* LessThan */
IF[ ]\011/* If */
NPUSHB[ ]\011/* 40 values pushed */
19 1 4 3 1 30 0 3 4 3 52 2 1 0 1 0 53 0 4 1 1 4 0 0 35 0 4 4 1 0 2 36 0 1 4 1 0 2 33 6 
ELSE[ ]\011/* Else */
NPUSHB[ ]\011/* 46 values pushed */
19 1 4 3 1 30 0 3 4 3 52 0 2 1 0 1 2 0 50 0 0 0 51 0 4 1 1 4 0 0 35 0 4 4 1 0 2 36 0 1 4 1 0 2 33 7 
EIF[ ]\011/* EndIf */
EIF[ ]\011/* EndIf */
PUSHB[ ]\011/* 1 value pushed */
56 
CALL[ ]\011/* CallFunction */";
};
width = 1474;
}
);
note = A;
unicode = 0041;
},
{
glyphname = Aogonek;
layers = (
{
layerId = "0F82F74C-23B9-402A-A6A2-E1A5FCDC2DA6";
paths = (
{
closed = 1;
nodes = (
"1418.715 -167 OFFCURVE",
"1387.735 -175 OFFCURVE",
"1368 -175 CURVE SMOOTH",
"1332 -175 OFFCURVE",
"1314 -154 OFFCURVE",
"1314 -122 CURVE SMOOTH",
"1314 -71.333 OFFCURVE",
"1356 -28 OFFCURVE",
"1408 0 CURVE",
"1476 0 LINE",
"912 1457 LINE",
"566 1457 LINE",
"2 0 LINE",
"266 0 LINE SMOOTH",
"322 0 OFFCURVE",
"362.667 35.667 OFFCURVE",
"376 73 CURVE SMOOTH",
"462 327 LINE",
"1016 327 LINE",
"1102 73 LINE SMOOTH",
"1116.667 30.333 OFFCURVE",
"1155.333 0 OFFCURVE",
"1214 0 CURVE SMOOTH",
"1226 0 LINE",
"1126 -60 OFFCURVE",
"1084 -130 OFFCURVE",
"1084 -198 CURVE SMOOTH",
"1084 -284.667 OFFCURVE",
"1159.333 -347 OFFCURVE",
"1302 -347 CURVE SMOOTH",
"1380.667 -347 OFFCURVE",
"1453.333 -325 OFFCURVE",
"1500 -297 CURVE",
"1454 -186 LINE",
"1449.333 -173.333 OFFCURVE",
"1440 -167 OFFCURVE",
"1426 -167 CURVE SMOOTH"
);
},
{
closed = 1;
nodes = (
"674 954 LINE",
"694 1004.667 OFFCURVE",
"716.667 1075.667 OFFCURVE",
"738 1157 CURVE",
"760.667 1077 OFFCURVE",
"784 1006.667 OFFCURVE",
"804 956 CURVE",
"938 557 LINE",
"540 557 LINE"
);
}
);
userData = {
assembly = "NPUSHB[ ]\011/* 24 values pushed */
1 0 39 38 34 32 27 26 25 24 23 21 18 17 14 12 7 5 0 37 1 37 10 7 
CALL[ ]\011/* CallFunction */
MPPEM[ ]\011/* MeasurePixelPerEm */
PUSHB[ ]\011/* 1 value pushed */
54 
LT[ ]\011/* LessThan */
IF[ ]\011/* If */
NPUSHB[ ]\011/* 48 values pushed */
43 1 8 5 3 1 1 0 2 30 0 8 0 3 2 8 3 0 2 38 0 5 5 11 31 6 4 2 2 2 12 31 7 9 2 0 0 1 1 0 36 0 1 1 22 1 32 6 
ELSE[ ]\011/* Else */
MPPEM[ ]\011/* MeasurePixelPerEm */
PUSHB[ ]\011/* 1 value pushed */
58 
LT[ ]\011/* LessThan */
IF[ ]\011/* If */
NPUSHB[ ]\011/* 45 values pushed */
43 1 8 5 3 1 1 0 2 30 0 8 0 3 2 8 3 0 2 38 7 9 2 0 0 1 0 1 1 0 37 0 5 5 11 31 6 4 2 2 2 12 2 32 5 
ELSE[ ]\011/* Else */
MPPEM[ ]\011/* MeasurePixelPerEm */
PUSHB[ ]\011/* 1 value pushed */
94 
LT[ ]\011/* LessThan */
IF[ ]\011/* If */
NPUSHB[ ]\011/* 52 values pushed */
43 1 8 5 3 1 1 7 2 30 9 1 0 2 7 2 0 7 50 0 8 0 3 2 8 3 0 2 38 0 7 0 1 7 1 1 0 37 0 5 5 11 31 6 4 2 2 2 12 2 32 6 
ELSE[ ]\011/* Else */
MPPEM[ ]\011/* MeasurePixelPerEm */
PUSHB[ ]\011/* 1 value pushed */
232 
LT[ ]\011/* LessThan */
IF[ ]\011/* If */
NPUSHB[ ]\011/* 66 values pushed */
43 1 8 5 3 1 1 7 2 30 0 5 8 5 52 6 4 2 2 3 0 3 2 0 50 9 1 0 7 3 0 7 48 0 8 0 3 2 8 3 0 2 38 0 7 1 1 7 1 0 35 0 7 7 1 1 0 36 0 1 7 1 1 0 33 8 
ELSE[ ]\011/* Else */
NPUSHB[ ]\011/* 78 values pushed */
43 1 8 5 3 1 1 7 2 30 0 5 8 5 52 0 6 3 4 3 6 4 50 0 4 2 3 4 2 48 0 2 0 3 2 0 48 9 1 0 7 3 0 7 48 0 8 0 3 6 8 3 0 2 38 0 7 1 1 7 1 0 35 0 7 7 1 1 0 36 0 1 7 1 1 0 33 10 
EIF[ ]\011/* EndIf */
EIF[ ]\011/* EndIf */
EIF[ ]\011/* EndIf */
EIF[ ]\011/* EndIf */
PUSHB[ ]\011/* 1 value pushed */
56 
CALL[ ]\011/* CallFunction */";
};
width = 1474;
}
);
note = Aogonek;
unicode = 0104;
},
{
glyphname = AE;
layers = (
{
layerId = "0F82F74C-23B9-402A-A6A2-E1A5FCDC2DA6";
paths = (
{
closed = 1;
nodes = (
"-32 0 LINE",
"224 0 LINE SMOOTH",
"284 0 OFFCURVE",
"331.333 29 OFFCURVE",
"350 73 CURVE SMOOTH",
"461 327 LINE",
"944 327 LINE",
"984 0 LINE",
"1804 0 LINE",
"1804 260 LINE",
"1272 260 LINE",
"1230 607 LINE",
"1664 607 LINE",
"1664 857 LINE",
"1200 857 LINE",
"1159 1197 LINE",
"1804 1197 LINE",
"1804 1457 LINE",
"684 1457 LINE"
);
},
{
closed = 1;
nodes = (
"758 1005 LINE SMOOTH",
"784.667 1062.333 OFFCURVE",
"811.333 1130.333 OFFCURVE",
"838 1209 CURVE",
"916 557 LINE",
"562 557 LINE"
);
}
);
userData = {
assembly = "NPUSHB[ ]\011/* 20 values pushed */
20 19 18 16 13 12 11 10 9 8 7 6 5 4 3 2 1 0 9 7 
CALL[ ]\011/* CallFunction */
MPPEM[ ]\011/* MeasurePixelPerEm */
PUSHB[ ]\011/* 1 value pushed */
94 
LT[ ]\011/* LessThan */
IF[ ]\011/* If */
NPUSHB[ ]\011/* 53 values pushed */
21 1 1 0 1 30 0 2 0 3 8 2 3 0 0 38 0 8 0 6 4 8 6 0 0 38 0 1 1 0 0 0 36 0 0 0 11 31 0 4 4 5 1 0 36 7 1 5 5 12 5 32 7 
ELSE[ ]\011/* Else */
MPPEM[ ]\011/* MeasurePixelPerEm */
PUSHB[ ]\011/* 1 value pushed */
232 
LT[ ]\011/* LessThan */
IF[ ]\011/* If */
NPUSHB[ ]\011/* 60 values pushed */
21 1 1 0 1 30 0 0 0 1 2 0 1 0 0 38 0 2 0 3 8 2 3 0 0 38 0 8 0 6 4 8 6 0 0 38 0 4 5 5 4 0 0 35 0 4 4 5 1 0 36 7 1 5 4 5 1 0 33 7 
ELSE[ ]\011/* Else */
NPUSHB[ ]\011/* 67 values pushed */
21 1 1 0 1 30 0 7 4 5 4 7 5 50 0 0 0 1 2 0 1 0 0 38 0 2 0 3 8 2 3 0 0 38 0 8 0 6 4 8 6 0 0 38 0 4 7 5 4 0 0 35 0 4 4 5 0 0 36 0 5 4 5 0 0 33 8 
EIF[ ]\011/* EndIf */
EIF[ ]\011/* EndIf */
PUSHB[ ]\011/* 1 value pushed */
56 
CALL[ ]\011/* CallFunction */";
};
width = 1876;
}
);
note = AE;
unicode = 00C6;
},
{
glyphname = B;
layers = (
{
layerId = "0F82F74C-23B9-402A-A6A2-E1A5FCDC2DA6";
paths = (
{
closed = 1;
nodes = (
"702 0 LINE SMOOTH",
"876.667 0 OFFCURVE",
"1013.833 47.167 OFFCURVE",
"1106.5 126.5 CURVE SMOOTH",
"1199.167 205.833 OFFCURVE",
"1248 315 OFFCURVE",
"1248 439 CURVE SMOOTH",
"1248 603 OFFCURVE",
"1158 707.333 OFFCURVE",
"966 754 CURVE",
"1054 786 OFFCURVE",
"1116 829.667 OFFCURVE",
"1156 883 CURVE SMOOTH",
"1196 936.333 OFFCURVE",
"1214 997.667 OFFCURVE",
"1214 1063 CURVE SMOOTH",
"1214 1183 OFFCURVE",
"1175.333 1282 OFFCURVE",
"1086 1350 CURVE SMOOTH",
"996.667 1418 OFFCURVE",
"857.333 1457 OFFCURVE",
"656 1457 CURVE SMOOTH",
"120 1457 LINE",
"120 0 LINE"
);
},
{
closed = 1;
nodes = (
"694 618 LINE SMOOTH",
"851.049 618 OFFCURVE",
"914 562.625 OFFCURVE",
"914 446 CURVE SMOOTH",
"914 335.747 OFFCURVE",
"857.128 255 OFFCURVE",
"696 255 CURVE SMOOTH",
"458 255 LINE",
"458 618 LINE"
);
},
{
closed = 1;
nodes = (
"458 1204 LINE",
"656 1204 LINE SMOOTH",
"805.78 1204 OFFCURVE",
"876 1161.873 OFFCURVE",
"876 1023 CURVE SMOOTH",
"876 881.475 OFFCURVE",
"785.943 844 OFFCURVE",
"634 844 CURVE SMOOTH",
"458 844 LINE"
);
}
);
userData = {
assembly = "NPUSHB[ ]\011/* 22 values pushed */
21 21 0 0 46 44 36 34 21 33 21 32 24 22 0 20 0 19 3 1 8 7 
CALL[ ]\011/* CallFunction */
MPPEM[ ]\011/* MeasurePixelPerEm */
PUSHB[ ]\011/* 1 value pushed */
94 
LT[ ]\011/* LessThan */
IF[ ]\011/* If */
NPUSHB[ ]\011/* 44 values pushed */
12 1 3 4 1 30 0 4 7 1 3 2 4 3 1 0 38 0 5 5 0 1 0 36 0 0 0 11 31 0 2 2 1 1 0 36 6 1 1 1 12 1 32 6 
ELSE[ ]\011/* Else */
NPUSHB[ ]\011/* 51 values pushed */
12 1 3 4 1 30 0 0 0 5 4 0 5 1 0 38 0 4 7 1 3 2 4 3 1 0 38 0 2 1 1 2 1 0 35 0 2 2 1 1 0 36 6 1 1 2 1 1 0 33 6 
EIF[ ]\011/* EndIf */
PUSHB[ ]\011/* 1 value pushed */
56 
CALL[ ]\011/* CallFunction */";
};
width = 1312;
}
);
note = B;
unicode = 0042;
},
{
glyphname = C;
layers = (
{
layerId = "0F82F74C-23B9-402A-A6A2-E1A5FCDC2DA6";
paths = (
{
closed = 1;
nodes = (
"1079 377 OFFCURVE",
"1060 367.333 OFFCURVE",
"1044 354 CURVE SMOOTH",
"962.657 283.503 OFFCURVE",
"887.174 262 OFFCURVE",
"768 262 CURVE SMOOTH",
"661.333 262 OFFCURVE",
"565.5 304.167 OFFCURVE",
"495.5 383.5 CURVE SMOOTH",
"425.5 462.833 OFFCURVE",
"382 579.667 OFFCURVE",
"382 729 CURVE SMOOTH",
"382 871.667 OFFCURVE",
"424.833 987.833 OFFCURVE",
"497.5 1068.5 CURVE SMOOTH",
"570.167 1149.167 OFFCURVE",
"673.333 1194 OFFCURVE",
"796 1194 CURVE SMOOTH",
"871.124 1194 OFFCURVE",
"970.258 1165.512 OFFCURVE",
"1008.5 1141.5 CURVE SMOOTH",
"1045.162 1118.479 OFFCURVE",
"1084.233 1089 OFFCURVE",
"1116 1089 CURVE SMOOTH",
"1152 1089 OFFCURVE",
"1169.333 1107.333 OFFCURVE",
"1184 1126 CURVE SMOOTH",
"1298 1279 LINE",
"1243.333 1336.333 OFFCURVE",
"1172 1384.5 OFFCURVE",
"1088 1418.5 CURVE SMOOTH",
"1004 1452.5 OFFCURVE",
"907.333 1473 OFFCURVE",
"798 1473 CURVE SMOOTH",
"572.667 1473 OFFCURVE",
"382.5 1396 OFFCURVE",
"248.5 1264 CURVE SMOOTH",
"114.5 1132 OFFCURVE",
"36 946.333 OFFCURVE",
"36 729 CURVE SMOOTH",
"36 515.667 OFFCURVE",
"103.5 329.167 OFFCURVE",
"225.5 196.5 CURVE SMOOTH",
"347.5 63.833 OFFCURVE",
"524.667 -16 OFFCURVE",
"746 -16 CURVE SMOOTH",
"987.333 -16 OFFCURVE",
"1162.667 62.667 OFFCURVE",
"1280 216 CURVE",
"1146 357 LINE SMOOTH",
"1131.333 371.667 OFFCURVE",
"1115 377 OFFCURVE",
"1099 377 CURVE SMOOTH"
);
}
);
userData = {
assembly = "NPUSHB[ ]\011/* 18 values pushed */
1 0 44 42 34 32 27 25 18 16 8 6 0 50 1 50 7 7 
CALL[ ]\011/* CallFunction */
MPPEM[ ]\011/* MeasurePixelPerEm */
PUSHB[ ]\011/* 1 value pushed */
94 
LT[ ]\011/* LessThan */
IF[ ]\011/* If */
NPUSHB[ ]\011/* 52 values pushed */
22 1 4 2 4 1 1 5 2 30 0 3 4 0 4 3 0 50 6 1 0 5 4 0 5 48 0 4 4 2 1 0 36 0 2 2 17 31 0 5 5 1 1 0 36 0 1 1 18 1 32 7 
ELSE[ ]\011/* Else */
NPUSHB[ ]\011/* 59 values pushed */
22 1 4 2 4 1 1 5 2 30 0 3 4 0 4 3 0 50 6 1 0 5 4 0 5 48 0 2 0 4 3 2 4 1 0 38 0 5 1 1 5 1 0 35 0 5 5 1 1 0 36 0 1 5 1 1 0 33 7 
EIF[ ]\011/* EndIf */
PUSHB[ ]\011/* 1 value pushed */
56 
CALL[ ]\011/* CallFunction */";
};
width = 1314;
}
);
note = C;
unicode = 0043;
},
{
glyphname = Ccedilla;
layers = (
{
layerId = "0F82F74C-23B9-402A-A6A2-E1A5FCDC2DA6";
paths = (
{
closed = 1;
nodes = (
"603.333 -210 OFFCURVE",
"592 -219 OFFCURVE",
"588 -237 CURVE",
"560 -331 LINE",
"610.667 -341.667 OFFCURVE",
"653.333 -347 OFFCURVE",
"708 -347 CURVE SMOOTH",
"854.003 -347 OFFCURVE",
"976 -293.662 OFFCURVE",
"976 -194 CURVE SMOOTH",
"976 -120.104 OFFCURVE",
"928.275 -71.607 OFFCURVE",
"821 -43 CURVE",
"829 -12 LINE",
"1027.667 4 OFFCURVE",
"1177.333 81.333 OFFCURVE",
"1280 216 CURVE",
"1146 357 LINE SMOOTH",
"1131.333 371.667 OFFCURVE",
"1115 377 OFFCURVE",
"1099 377 CURVE SMOOTH",
"1079 377 OFFCURVE",
"1060 367.333 OFFCURVE",
"1044 354 CURVE SMOOTH",
"962.657 283.503 OFFCURVE",
"887.174 262 OFFCURVE",
"768 262 CURVE SMOOTH",
"661.333 262 OFFCURVE",
"565.5 304.167 OFFCURVE",
"495.5 383.5 CURVE SMOOTH",
"425.5 462.833 OFFCURVE",
"382 579.667 OFFCURVE",
"382 729 CURVE SMOOTH",
"382 871.667 OFFCURVE",
"424.833 987.833 OFFCURVE",
"497.5 1068.5 CURVE SMOOTH",
"570.167 1149.167 OFFCURVE",
"673.333 1194 OFFCURVE",
"796 1194 CURVE SMOOTH",
"871.124 1194 OFFCURVE",
"970.258 1165.512 OFFCURVE",
"1008.5 1141.5 CURVE SMOOTH",
"1045.162 1118.479 OFFCURVE",
"1084.233 1089 OFFCURVE",
"1116 1089 CURVE SMOOTH",
"1152 1089 OFFCURVE",
"1169.333 1107.333 OFFCURVE",
"1184 1126 CURVE SMOOTH",
"1298 1279 LINE",
"1243.333 1336.333 OFFCURVE",
"1172 1384.5 OFFCURVE",
"1088 1418.5 CURVE SMOOTH",
"1004 1452.5 OFFCURVE",
"907.333 1473 OFFCURVE",
"798 1473 CURVE SMOOTH",
"572.667 1473 OFFCURVE",
"382.5 1396 OFFCURVE",
"248.5 1264 CURVE SMOOTH",
"114.5 1132 OFFCURVE",
"36 946.333 OFFCURVE",
"36 729 CURVE SMOOTH",
"36 533 OFFCURVE",
"92.167 360.333 OFFCURVE",
"195.5 231 CURVE SMOOTH",
"298.833 101.667 OFFCURVE",
"448.667 15 OFFCURVE",
"638 -9 CURVE",
"600 -136 LINE",
"648.667 -142.667 OFFCURVE",
"683.167 -149.5 OFFCURVE",
"703.5 -156.5 CURVE SMOOTH",
"723.833 -163.5 OFFCURVE",
"734 -174 OFFCURVE",
"734 -188 CURVE SMOOTH",
"734 -202.667 OFFCURVE",
"720.667 -218 OFFCURVE",
"686 -218 CURVE SMOOTH",
"672 -218 OFFCURVE",
"660.333 -216.667 OFFCURVE",
"651 -214 CURVE SMOOTH",
"641.667 -211.333 OFFCURVE",
"632 -210 OFFCURVE",
"622 -210 CURVE SMOOTH"
);
}
);
userData = {
assembly = "NPUSHB[ ]\011/* 22 values pushed */
1 0 73 71 55 53 47 45 37 35 30 28 21 19 4 2 0 77 1 77 9 7 
CALL[ ]\011/* CallFunction */
MPPEM[ ]\011/* MeasurePixelPerEm */
PUSHB[ ]\011/* 1 value pushed */
54 
LT[ ]\011/* LessThan */
IF[ ]\011/* If */
NPUSHB[ ]\011/* 67 values pushed */
25 1 4 2 62 58 10 9 4 0 5 75 1 7 0 3 30 0 3 4 6 4 3 6 50 0 6 5 4 6 5 48 0 5 0 4 5 0 48 0 4 4 2 1 0 36 0 2 2 17 31 1 8 2 0 0 7 1 2 36 0 7 7 22 7 32 8 
ELSE[ ]\011/* Else */
MPPEM[ ]\011/* MeasurePixelPerEm */
PUSHB[ ]\011/* 1 value pushed */
58 
LT[ ]\011/* LessThan */
IF[ ]\011/* If */
NPUSHB[ ]\011/* 64 values pushed */
25 1 4 2 62 58 10 9 4 0 5 75 1 7 0 3 30 0 3 4 6 4 3 6 50 0 6 5 4 6 5 48 0 5 0 4 5 0 48 1 8 2 0 0 7 0 7 1 2 37 0 4 4 2 1 0 36 0 2 2 17 4 32 7 
ELSE[ ]\011/* Else */
MPPEM[ ]\011/* MeasurePixelPerEm */
PUSHB[ ]\011/* 1 value pushed */
94 
LT[ ]\011/* LessThan */
IF[ ]\011/* If */
NPUSHB[ ]\011/* 70 values pushed */
25 1 4 2 62 58 10 9 4 0 5 75 1 7 1 3 30 0 3 4 6 4 3 6 50 0 6 5 4 6 5 48 0 5 0 4 5 0 48 8 1 0 1 4 0 1 48 0 1 0 7 1 7 1 2 37 0 4 4 2 1 0 36 0 2 2 17 4 32 8 
ELSE[ ]\011/* Else */
NPUSHB[ ]\011/* 80 values pushed */
25 1 4 2 62 58 10 9 4 0 5 75 1 7 1 3 30 0 3 4 6 4 3 6 50 0 6 5 4 6 5 48 0 5 0 4 5 0 48 8 1 0 1 4 0 1 48 0 2 0 4 3 2 4 1 0 38 0 1 7 7 1 1 0 35 0 1 1 7 1 2 36 0 7 1 7 1 2 33 9 
EIF[ ]\011/* EndIf */
EIF[ ]\011/* EndIf */
EIF[ ]\011/* EndIf */
PUSHB[ ]\011/* 1 value pushed */
56 
CALL[ ]\011/* CallFunction */";
};
width = 1314;
}
);
note = Ccedilla;
unicode = 00C7;
},
{
glyphname = D;
layers = (
{
layerId = "0F82F74C-23B9-402A-A6A2-E1A5FCDC2DA6";
paths = (
{
closed = 1;
nodes = (
"1442 938.333 OFFCURVE",
"1366 1120.667 OFFCURVE",
"1234 1250 CURVE SMOOTH",
"1102 1379.333 OFFCURVE",
"912.667 1457 OFFCURVE",
"686 1457 CURVE SMOOTH",
"120 1457 LINE",
"120 0 LINE",
"686 0 LINE SMOOTH",
"912.667 0 OFFCURVE",
"1102 76.5 OFFCURVE",
"1234 206.5 CURVE SMOOTH",
"1366 336.5 OFFCURVE",
"1442 518.333 OFFCURVE",
"1442 729 CURVE SMOOTH"
);
},
{
closed = 1;
nodes = (
"1096 583.667 OFFCURVE",
"1057.5 466.167 OFFCURVE",
"987.5 385.5 CURVE SMOOTH",
"917.5 304.833 OFFCURVE",
"815.333 260 OFFCURVE",
"686 260 CURVE SMOOTH",
"460 260 LINE",
"460 1197 LINE",
"686 1197 LINE SMOOTH",
"815.333 1197 OFFCURVE",
"917.5 1152.167 OFFCURVE",
"987.5 1071.5 CURVE SMOOTH",
"1057.5 990.833 OFFCURVE",
"1096 873 OFFCURVE",
"1096 729 CURVE SMOOTH"
);
}
);
userData = {
assembly = "NPUSHB[ ]\011/* 10 values pushed */
22 20 19 17 9 7 6 4 4 7 
CALL[ ]\011/* CallFunction */
MPPEM[ ]\011/* MeasurePixelPerEm */
PUSHB[ ]\011/* 1 value pushed */
94 
LT[ ]\011/* LessThan */
IF[ ]\011/* If */
NPUSHB[ ]\011/* 26 values pushed */
0 2 2 1 1 0 36 0 1 1 11 31 0 3 3 0 1 0 36 0 0 0 12 0 32 4 
ELSE[ ]\011/* Else */
NPUSHB[ ]\011/* 33 values pushed */
0 1 0 2 3 1 2 1 0 38 0 3 0 0 3 1 0 35 0 3 3 0 1 0 36 0 0 3 0 1 0 33 4 
EIF[ ]\011/* EndIf */
PUSHB[ ]\011/* 1 value pushed */
56 
CALL[ ]\011/* CallFunction */";
};
width = 1484;
}
);
note = D;
unicode = 0044;
},
{
glyphname = Eth;
layers = (
{
layerId = "0F82F74C-23B9-402A-A6A2-E1A5FCDC2DA6";
paths = (
{
closed = 1;
nodes = (
"54 639 LINE",
"220 639 LINE",
"220 0 LINE",
"786 0 LINE SMOOTH",
"1012.667 0 OFFCURVE",
"1202 76.5 OFFCURVE",
"1334 206.5 CURVE SMOOTH",
"1466 336.5 OFFCURVE",
"1542 518.333 OFFCURVE",
"1542 729 CURVE SMOOTH",
"1542 938.333 OFFCURVE",
"1466 1120.667 OFFCURVE",
"1334 1250 CURVE SMOOTH",
"1202 1379.333 OFFCURVE",
"1012.667 1457 OFFCURVE",
"786 1457 CURVE SMOOTH",
"220 1457 LINE",
"220 823 LINE",
"54 823 LINE"
);
},
{
closed = 1;
nodes = (
"1196 583.667 OFFCURVE",
"1157.5 466.167 OFFCURVE",
"1087.5 385.5 CURVE SMOOTH",
"1017.5 304.833 OFFCURVE",
"915.333 260 OFFCURVE",
"786 260 CURVE SMOOTH",
"560 260 LINE",
"560 639 LINE",
"904 639 LINE",
"904 823 LINE",
"560 823 LINE",
"560 1197 LINE",
"786 1197 LINE SMOOTH",
"915.333 1197 OFFCURVE",
"1017.5 1152.167 OFFCURVE",
"1087.5 1071.5 CURVE SMOOTH",
"1157.5 990.833 OFFCURVE",
"1196 873 OFFCURVE",
"1196 729 CURVE SMOOTH"
);
}
);
userData = {
assembly = "NPUSHB[ ]\011/* 18 values pushed */
30 28 27 26 25 24 23 21 16 15 14 12 4 2 1 0 8 7 
CALL[ ]\011/* CallFunction */
MPPEM[ ]\011/* MeasurePixelPerEm */
PUSHB[ ]\011/* 1 value pushed */
94 
LT[ ]\011/* LessThan */
IF[ ]\011/* If */
NPUSHB[ ]\011/* 38 values pushed */
5 1 0 6 1 3 7 0 3 0 0 38 0 4 4 1 1 0 36 0 1 1 11 31 0 7 7 2 1 0 36 0 2 2 12 2 32 5 
ELSE[ ]\011/* Else */
MPPEM[ ]\011/* MeasurePixelPerEm */
PUSHB[ ]\011/* 1 value pushed */
232 
LT[ ]\011/* LessThan */
IF[ ]\011/* If */
NPUSHB[ ]\011/* 45 values pushed */
0 1 0 4 0 1 4 1 0 38 5 1 0 6 1 3 7 0 3 0 0 38 0 7 2 2 7 1 0 35 0 7 7 2 1 0 36 0 2 7 2 1 0 33 5 
ELSE[ ]\011/* Else */
NPUSHB[ ]\011/* 53 values pushed */
0 1 0 4 0 1 4 1 0 38 0 5 0 6 3 5 6 0 0 38 0 0 0 3 7 0 3 0 0 38 0 7 2 2 7 1 0 35 0 7 7 2 1 0 36 0 2 7 2 1 0 33 6 
EIF[ ]\011/* EndIf */
EIF[ ]\011/* EndIf */
PUSHB[ ]\011/* 1 value pushed */
56 
CALL[ ]\011/* CallFunction */";
};
width = 1584;
}
);
note = Eth;
unicode = 00D0;
},
{
glyphname = E;
layers = (
{
layerId = "0F82F74C-23B9-402A-A6A2-E1A5FCDC2DA6";
paths = (
{
closed = 1;
nodes = (
"120 1457 LINE",
"120 0 LINE",
"1058 0 LINE",
"1058 260 LINE",
"460 260 LINE",
"460 607 LINE",
"918 607 LINE",
"918 857 LINE",
"460 857 LINE",
"460 1197 LINE",
"1058 1197 LINE",
"1058 1457 LINE"
);
}
);
userData = {
assembly = "NPUSHB[ ]\011/* 18 values pushed */
0 0 0 11 0 11 10 9 8 7 6 5 4 3 2 1 7 7 
CALL[ ]\011/* CallFunction */
MPPEM[ ]\011/* MeasurePixelPerEm */
PUSHB[ ]\011/* 1 value pushed */
94 
LT[ ]\011/* LessThan */
IF[ ]\011/* If */
NPUSHB[ ]\011/* 37 values pushed */
0 1 0 2 3 1 2 0 0 38 0 0 0 5 0 0 36 6 1 5 5 11 31 0 3 3 4 0 0 36 0 4 4 12 4 32 5 
ELSE[ ]\011/* Else */
NPUSHB[ ]\011/* 44 values pushed */
6 1 5 0 0 1 5 0 0 0 38 0 1 0 2 3 1 2 0 0 38 0 3 4 4 3 0 0 35 0 3 3 4 0 0 36 0 4 3 4 0 0 33 5 
EIF[ ]\011/* EndIf */
PUSHB[ ]\011/* 1 value pushed */
56 
CALL[ ]\011/* CallFunction */";
};
width = 1130;
}
);
note = E;
unicode = 0045;
},
{
glyphname = Eogonek;
layers = (
{
layerId = "0F82F74C-23B9-402A-A6A2-E1A5FCDC2DA6";
paths = (
{
closed = 1;
nodes = (
"976.715 -167 OFFCURVE",
"945.735 -175 OFFCURVE",
"926 -175 CURVE SMOOTH",
"890 -175 OFFCURVE",
"872 -154 OFFCURVE",
"872 -122 CURVE SMOOTH",
"872 -71.333 OFFCURVE",
"914 -28 OFFCURVE",
"966 0 CURVE",
"1058 0 LINE",
"1058 260 LINE",
"460 260 LINE",
"460 607 LINE",
"918 607 LINE",
"918 857 LINE",
"460 857 LINE",
"460 1197 LINE",
"1058 1197 LINE",
"1058 1457 LINE",
"120 1457 LINE",
"120 0 LINE",
"784 0 LINE",
"684 -60 OFFCURVE",
"642 -130 OFFCURVE",
"642 -198 CURVE SMOOTH",
"642 -284.667 OFFCURVE",
"717.333 -347 OFFCURVE",
"860 -347 CURVE SMOOTH",
"938.667 -347 OFFCURVE",
"1011.333 -325 OFFCURVE",
"1058 -297 CURVE",
"1012 -186 LINE",
"1007.333 -173.333 OFFCURVE",
"998 -167 OFFCURVE",
"984 -167 CURVE SMOOTH"
);
}
);
userData = {
assembly = "NPUSHB[ ]\011/* 26 values pushed */
1 0 32 30 25 24 23 22 21 20 19 18 17 16 15 14 13 12 7 5 0 35 1 35 11 7 
CALL[ ]\011/* CallFunction */
MPPEM[ ]\011/* MeasurePixelPerEm */
PUSHB[ ]\011/* 1 value pushed */
54 
LT[ ]\011/* LessThan */
IF[ ]\011/* If */
NPUSHB[ ]\011/* 57 values pushed */
3 1 1 0 1 30 0 5 0 6 7 5 6 0 0 38 0 4 4 3 0 0 36 0 3 3 11 31 0 7 7 2 0 0 36 8 1 2 2 12 31 9 10 2 0 0 1 1 0 36 0 1 1 22 1 32 8 
ELSE[ ]\011/* Else */
MPPEM[ ]\011/* MeasurePixelPerEm */
PUSHB[ ]\011/* 1 value pushed */
58 
LT[ ]\011/* LessThan */
IF[ ]\011/* If */
NPUSHB[ ]\011/* 54 values pushed */
3 1 1 0 1 30 0 5 0 6 7 5 6 0 0 38 9 10 2 0 0 1 0 1 1 0 37 0 4 4 3 0 0 36 0 3 3 11 31 0 7 7 2 0 0 36 8 1 2 2 12 2 32 7 
ELSE[ ]\011/* Else */
MPPEM[ ]\011/* MeasurePixelPerEm */
PUSHB[ ]\011/* 1 value pushed */
94 
LT[ ]\011/* LessThan */
IF[ ]\011/* If */
NPUSHB[ ]\011/* 61 values pushed */
3 1 1 9 1 30 10 1 0 2 9 2 0 9 50 0 5 0 6 7 5 6 0 0 38 0 9 0 1 9 1 1 0 37 0 4 4 3 0 0 36 0 3 3 11 31 0 7 7 2 0 0 36 8 1 2 2 12 2 32 8 
ELSE[ ]\011/* Else */
MPPEM[ ]\011/* MeasurePixelPerEm */
PUSHB[ ]\011/* 1 value pushed */
232 
LT[ ]\011/* LessThan */
IF[ ]\011/* If */
NPUSHB[ ]\011/* 69 values pushed */
3 1 1 9 1 30 10 1 0 2 9 2 0 9 50 0 3 0 4 5 3 4 0 0 38 0 5 0 6 7 5 6 0 0 38 0 7 8 1 2 0 7 2 0 0 38 0 9 1 1 9 1 0 35 0 9 9 1 1 0 36 0 1 9 1 1 0 33 8 
ELSE[ ]\011/* Else */
NPUSHB[ ]\011/* 75 values pushed */
3 1 1 9 1 30 0 8 7 2 2 8 42 10 1 0 2 9 2 0 9 50 0 3 0 4 5 3 4 0 0 38 0 5 0 6 7 5 6 0 0 38 0 7 0 2 0 7 2 0 0 38 0 9 1 1 9 1 0 35 0 9 9 1 1 0 36 0 1 9 1 1 0 33 9 
EIF[ ]\011/* EndIf */
EIF[ ]\011/* EndIf */
EIF[ ]\011/* EndIf */
EIF[ ]\011/* EndIf */
PUSHB[ ]\011/* 1 value pushed */
56 
CALL[ ]\011/* CallFunction */";
};
width = 1130;
}
);
note = Eogonek;
unicode = 0118;
},
{
glyphname = F;
layers = (
{
layerId = "0F82F74C-23B9-402A-A6A2-E1A5FCDC2DA6";
paths = (
{
closed = 1;
nodes = (
"120 1457 LINE",
"120 0 LINE",
"460 0 LINE",
"460 567 LINE",
"958 567 LINE",
"958 828 LINE",
"460 828 LINE",
"460 1197 LINE",
"1058 1197 LINE",
"1058 1457 LINE"
);
}
);
userData = {
assembly = "NPUSHB[ ]\011/* 16 values pushed */
0 0 0 9 0 9 8 7 6 5 4 3 2 1 6 7 
CALL[ ]\011/* CallFunction */
MPPEM[ ]\011/* MeasurePixelPerEm */
PUSHB[ ]\011/* 1 value pushed */
94 
LT[ ]\011/* LessThan */
IF[ ]\011/* If */
NPUSHB[ ]\011/* 30 values pushed */
0 1 0 2 3 1 2 0 0 38 0 0 0 4 0 0 36 5 1 4 4 11 31 0 3 3 12 3 32 4 
ELSE[ ]\011/* Else */
NPUSHB[ ]\011/* 39 values pushed */
0 3 2 3 53 5 1 4 0 0 1 4 0 0 0 38 0 1 2 2 1 0 0 35 0 1 1 2 0 0 36 0 2 1 2 0 0 33 5 
EIF[ ]\011/* EndIf */
PUSHB[ ]\011/* 1 value pushed */
56 
CALL[ ]\011/* CallFunction */";
};
width = 1114;
}
);
note = F;
unicode = 0046;
},
{
glyphname = G;
layers = (
{
layerId = "0F82F74C-23B9-402A-A6A2-E1A5FCDC2DA6";
paths = (
{
closed = 1;
nodes = (
"683.333 244 OFFCURVE",
"577.833 288.333 OFFCURVE",
"502.5 371 CURVE SMOOTH",
"427.167 453.667 OFFCURVE",
"382 574.333 OFFCURVE",
"382 729 CURVE SMOOTH",
"382 869 OFFCURVE",
"422.167 984.667 OFFCURVE",
"493.5 1066 CURVE SMOOTH",
"564.833 1147.333 OFFCURVE",
"667.333 1194 OFFCURVE",
"794 1194 CURVE SMOOTH",
"928.271 1194 OFFCURVE",
"1002.922 1168.447 OFFCURVE",
"1112 1103 CURVE SMOOTH",
"1133.333 1089.667 OFFCURVE",
"1154 1083 OFFCURVE",
"1174 1083 CURVE SMOOTH",
"1204.667 1083 OFFCURVE",
"1231.333 1100 OFFCURVE",
"1250 1128 CURVE SMOOTH",
"1348 1277 LINE",
"1289.333 1333 OFFCURVE",
"1214.5 1382.333 OFFCURVE",
"1124.5 1417 CURVE SMOOTH",
"1034.5 1451.667 OFFCURVE",
"927.333 1473 OFFCURVE",
"806 1473 CURVE SMOOTH",
"571.333 1473 OFFCURVE",
"378.5 1396 OFFCURVE",
"244.5 1264 CURVE SMOOTH",
"110.5 1132 OFFCURVE",
"36 946.333 OFFCURVE",
"36 729 CURVE SMOOTH",
"36 515.667 OFFCURVE",
"115.833 329.167 OFFCURVE",
"248.5 196.5 CURVE SMOOTH",
"381.167 63.833 OFFCURVE",
"566.667 -16 OFFCURVE",
"780 -16 CURVE SMOOTH",
"898.667 -16 OFFCURVE",
"1001.167 -4.333 OFFCURVE",
"1092.5 21 CURVE SMOOTH",
"1183.833 46.333 OFFCURVE",
"1263.333 85.333 OFFCURVE",
"1338 140 CURVE",
"1338 755 LINE",
"820 755 LINE",
"820 569 LINE SMOOTH",
"820 534.333 OFFCURVE",
"845.333 509 OFFCURVE",
"888 509 CURVE SMOOTH",
"1032 509 LINE",
"1032 288 LINE",
"968 261.333 OFFCURVE",
"899.333 244 OFFCURVE",
"806 244 CURVE SMOOTH"
);
}
);
userData = {
assembly = "NPUSHB[ ]\011/* 20 values pushed */
1 0 43 41 36 34 27 25 17 15 10 9 6 4 0 51 1 51 8 7 
CALL[ ]\011/* CallFunction */
MPPEM[ ]\011/* MeasurePixelPerEm */
PUSHB[ ]\011/* 1 value pushed */
94 
LT[ ]\011/* LessThan */
IF[ ]\011/* If */
NPUSHB[ ]\011/* 59 values pushed */
31 1 6 4 3 1 0 1 11 1 3 0 3 30 0 5 6 2 6 5 2 50 0 2 0 1 0 2 1 1 0 38 0 6 6 4 1 0 36 0 4 4 17 31 7 1 0 0 3 1 0 36 0 3 3 18 3 32 7 
ELSE[ ]\011/* Else */
NPUSHB[ ]\011/* 67 values pushed */
31 1 6 4 3 1 0 1 11 1 3 0 3 30 0 5 6 2 6 5 2 50 0 4 0 6 5 4 6 1 0 38 0 2 0 1 0 2 1 1 0 38 7 1 0 3 3 0 1 0 35 7 1 0 0 3 1 0 36 0 3 0 3 1 0 33 7 
EIF[ ]\011/* EndIf */
PUSHB[ ]\011/* 1 value pushed */
56 
CALL[ ]\011/* CallFunction */";
};
width = 1424;
}
);
note = G;
unicode = 0047;
},
{
glyphname = H;
layers = (
{
layerId = "0F82F74C-23B9-402A-A6A2-E1A5FCDC2DA6";
paths = (
{
closed = 1;
nodes = (
"1392 1457 LINE",
"1052 1457 LINE",
"1052 848 LINE",
"460 848 LINE",
"460 1457 LINE",
"120 1457 LINE",
"120 0 LINE",
"460 0 LINE",
"460 616 LINE",
"1052 616 LINE",
"1052 0 LINE",
"1392 0 LINE"
);
}
);
userData = {
assembly = "NPUSHB[ ]\011/* 14 values pushed */
11 10 9 8 7 6 5 4 3 2 1 0 6 7 
CALL[ ]\011/* CallFunction */
MPPEM[ ]\011/* MeasurePixelPerEm */
PUSHB[ ]\011/* 1 value pushed */
94 
LT[ ]\011/* LessThan */
IF[ ]\011/* If */
NPUSHB[ ]\011/* 24 values pushed */
0 4 0 1 0 4 1 0 0 38 5 1 3 3 11 31 2 1 0 0 12 0 32 3 
ELSE[ ]\011/* Else */
MPPEM[ ]\011/* MeasurePixelPerEm */
PUSHB[ ]\011/* 1 value pushed */
232 
LT[ ]\011/* LessThan */
IF[ ]\011/* If */
NPUSHB[ ]\011/* 36 values pushed */
5 1 3 4 0 3 0 0 35 0 4 0 1 0 4 1 0 0 38 5 1 3 3 0 0 0 36 2 1 0 3 0 0 0 33 4 
ELSE[ ]\011/* Else */
NPUSHB[ ]\011/* 43 values pushed */
0 5 4 0 5 0 0 35 0 4 0 1 2 4 1 0 0 38 0 3 0 2 0 3 2 0 0 38 0 5 5 0 0 0 36 0 0 5 0 0 0 33 5 
EIF[ ]\011/* EndIf */
EIF[ ]\011/* EndIf */
PUSHB[ ]\011/* 1 value pushed */
56 
CALL[ ]\011/* CallFunction */";
};
width = 1512;
}
);
note = H;
unicode = 0048;
},
{
glyphname = I;
layers = (
{
layerId = "0F82F74C-23B9-402A-A6A2-E1A5FCDC2DA6";
paths = (
{
closed = 1;
nodes = (
"490 1457 LINE",
"150 1457 LINE",
"150 0 LINE",
"490 0 LINE"
);
}
);
userData = {
assembly = "NPUSHB[ ]\011/* 6 values pushed */
3 2 1 0 2 7 
CALL[ ]\011/* CallFunction */
MPPEM[ ]\011/* MeasurePixelPerEm */
PUSHB[ ]\011/* 1 value pushed */
94 
LT[ ]\011/* LessThan */
IF[ ]\011/* If */
NPUSHB[ ]\011/* 12 values pushed */
0 1 1 11 31 0 0 0 12 0 32 2 
ELSE[ ]\011/* Else */
NPUSHB[ ]\011/* 23 values pushed */
0 1 0 0 1 0 0 35 0 1 1 0 0 0 36 0 0 1 0 0 0 33 3 
EIF[ ]\011/* EndIf */
PUSHB[ ]\011/* 1 value pushed */
56 
CALL[ ]\011/* CallFunction */";
};
width = 640;
}
);
note = I;
unicode = 0049;
},
{
glyphname = J;
layers = (
{
layerId = "0F82F74C-23B9-402A-A6A2-E1A5FCDC2DA6";
paths = (
{
closed = 1;
nodes = (
"740 1457 LINE",
"402 1457 LINE",
"402 521 LINE SMOOTH",
"402 421 OFFCURVE",
"386 354.5 OFFCURVE",
"354 312.5 CURVE SMOOTH",
"322 270.5 OFFCURVE",
"273.333 254 OFFCURVE",
"208 254 CURVE SMOOTH",
"184.667 254 OFFCURVE",
"164.667 255.833 OFFCURVE",
"148 259.5 CURVE SMOOTH",
"131.333 263.167 OFFCURVE",
"117.333 265 OFFCURVE",
"106 265 CURVE SMOOTH",
"62 265 OFFCURVE",
"36.667 241.667 OFFCURVE",
"34 207 CURVE SMOOTH",
"16 10 LINE",
"96 -8.667 OFFCURVE",
"168 -16 OFFCURVE",
"244 -16 CURVE SMOOTH",
"412 -16 OFFCURVE",
"535.5 39.167 OFFCURVE",
"617.5 134.5 CURVE SMOOTH",
"699.5 229.833 OFFCURVE",
"740 365.333 OFFCURVE",
"740 528 CURVE SMOOTH"
);
}
);
userData = {
assembly = "NPUSHB[ ]\011/* 10 values pushed */
22 21 16 14 13 11 6 4 4 7 
CALL[ ]\011/* CallFunction */
MPPEM[ ]\011/* MeasurePixelPerEm */
PUSHB[ ]\011/* 1 value pushed */
43 
LT[ ]\011/* LessThan */
IF[ ]\011/* If */
NPUSHB[ ]\011/* 26 values pushed */
8 1 0 1 1 30 0 3 3 11 31 2 1 1 1 0 1 0 36 0 0 0 18 0 32 4 
ELSE[ ]\011/* Else */
MPPEM[ ]\011/* MeasurePixelPerEm */
PUSHB[ ]\011/* 1 value pushed */
94 
LT[ ]\011/* LessThan */
IF[ ]\011/* If */
NPUSHB[ ]\011/* 33 values pushed */
8 1 0 2 1 30 0 1 3 2 3 1 2 50 0 3 3 11 31 0 2 2 0 1 0 36 0 0 0 18 0 32 5 
ELSE[ ]\011/* Else */
NPUSHB[ ]\011/* 39 values pushed */
8 1 0 2 1 30 0 3 1 3 52 0 1 2 1 52 0 2 0 0 2 1 0 35 0 2 2 0 1 0 36 0 0 2 0 1 0 33 6 
EIF[ ]\011/* EndIf */
EIF[ ]\011/* EndIf */
PUSHB[ ]\011/* 1 value pushed */
56 
CALL[ ]\011/* CallFunction */";
};
width = 860;
}
);
note = J;
unicode = 004A;
},
{
glyphname = K;
layers = (
{
layerId = "0F82F74C-23B9-402A-A6A2-E1A5FCDC2DA6";
paths = (
{
closed = 1;
nodes = (
"458 1457 LINE",
"120 1457 LINE",
"120 0 LINE",
"458 0 LINE",
"458 620 LINE",
"540 620 LINE SMOOTH",
"602.667 620 OFFCURVE",
"636 606.333 OFFCURVE",
"660 569 CURVE SMOOTH",
"990 62 LINE SMOOTH",
"1019.191 18.213 OFFCURVE",
"1051.16 0 OFFCURVE",
"1122 0 CURVE SMOOTH",
"1424 0 LINE",
"984 676 LINE SMOOTH",
"949.333 730.667 OFFCURVE",
"907.667 761.333 OFFCURVE",
"857 780 CURVE",
"891.667 798.667 OFFCURVE",
"925.333 825.333 OFFCURVE",
"956 868 CURVE SMOOTH",
"1388 1457 LINE",
"1094 1457 LINE SMOOTH",
"1027.333 1457 OFFCURVE",
"984 1442 OFFCURVE",
"948 1390 CURVE SMOOTH",
"620 914 LINE SMOOTH",
"598 882.667 OFFCURVE",
"562 867 OFFCURVE",
"512 867 CURVE SMOOTH",
"458 867 LINE"
);
}
);
userData = {
assembly = "NPUSHB[ ]\011/* 14 values pushed */
31 30 29 28 27 25 18 16 8 6 2 0 6 7 
CALL[ ]\011/* CallFunction */
MPPEM[ ]\011/* MeasurePixelPerEm */
PUSHB[ ]\011/* 1 value pushed */
94 
LT[ ]\011/* LessThan */
IF[ ]\011/* If */
NPUSHB[ ]\011/* 30 values pushed */
12 1 3 0 1 30 0 0 0 3 2 0 3 1 0 38 5 1 1 1 11 31 4 1 2 2 12 2 32 4 
ELSE[ ]\011/* Else */
MPPEM[ ]\011/* MeasurePixelPerEm */
PUSHB[ ]\011/* 1 value pushed */
232 
LT[ ]\011/* LessThan */
IF[ ]\011/* If */
NPUSHB[ ]\011/* 42 values pushed */
12 1 3 0 1 30 5 1 1 0 2 1 1 0 35 0 0 0 3 2 0 3 1 0 38 5 1 1 1 2 1 0 36 4 1 2 1 2 1 0 33 5 
ELSE[ ]\011/* Else */
NPUSHB[ ]\011/* 49 values pushed */
12 1 3 0 1 30 0 1 5 2 1 1 0 35 0 0 0 3 4 0 3 1 0 38 0 5 0 4 2 5 4 0 0 38 0 1 1 2 1 0 36 0 2 1 2 1 0 33 6 
EIF[ ]\011/* EndIf */
EIF[ ]\011/* EndIf */
PUSHB[ ]\011/* 1 value pushed */
56 
CALL[ ]\011/* CallFunction */";
};
width = 1428;
}
);
note = K;
unicode = 004B;
},
{
glyphname = L;
layers = (
{
layerId = "0F82F74C-23B9-402A-A6A2-E1A5FCDC2DA6";
paths = (
{
closed = 1;
nodes = (
"458 1457 LINE",
"120 1457 LINE",
"120 0 LINE",
"998 0 LINE",
"998 270 LINE",
"458 270 LINE"
);
}
);
userData = {
assembly = "NPUSHB[ ]\011/* 8 values pushed */
5 4 3 2 1 0 3 7 
CALL[ ]\011/* CallFunction */
MPPEM[ ]\011/* MeasurePixelPerEm */
PUSHB[ ]\011/* 1 value pushed */
94 
LT[ ]\011/* LessThan */
IF[ ]\011/* If */
NPUSHB[ ]\011/* 19 values pushed */
0 2 2 11 31 0 0 0 1 0 2 36 0 1 1 12 1 32 3 
ELSE[ ]\011/* Else */
NPUSHB[ ]\011/* 28 values pushed */
0 2 0 2 52 0 0 1 1 0 0 0 35 0 0 0 1 0 2 36 0 1 0 1 0 2 33 4 
EIF[ ]\011/* EndIf */
PUSHB[ ]\011/* 1 value pushed */
56 
CALL[ ]\011/* CallFunction */";
};
width = 1038;
}
);
note = L;
unicode = 004C;
},
{
glyphname = Lslash;
layers = (
{
layerId = "0F82F74C-23B9-402A-A6A2-E1A5FCDC2DA6";
paths = (
{
closed = 1;
nodes = (
"536 1457 LINE",
"198 1457 LINE",
"198 773 LINE",
"60 702 LINE",
"36 692 OFFCURVE",
"24 674 OFFCURVE",
"24 648 CURVE SMOOTH",
"24 420 LINE",
"198 505 LINE",
"198 0 LINE",
"1076 0 LINE",
"1076 270 LINE",
"536 270 LINE",
"536 653 LINE",
"830 805 LINE",
"856.667 814.333 OFFCURVE",
"870 835 OFFCURVE",
"870 867 CURVE SMOOTH",
"870 1088 LINE",
"536 923 LINE"
);
}
);
userData = {
assembly = "NPUSHB[ ]\011/* 8 values pushed */
17 16 9 8 7 6 3 7 
CALL[ ]\011/* CallFunction */
MPPEM[ ]\011/* MeasurePixelPerEm */
PUSHB[ ]\011/* 1 value pushed */
94 
LT[ ]\011/* LessThan */
IF[ ]\011/* If */
NPUSHB[ ]\011/* 30 values pushed */
15 11 10 5 1 0 6 0 2 1 30 0 2 2 11 31 0 0 0 1 0 2 36 0 1 1 12 1 32 4 
ELSE[ ]\011/* Else */
NPUSHB[ ]\011/* 39 values pushed */
15 11 10 5 1 0 6 0 2 1 30 0 2 0 2 52 0 0 1 1 0 0 0 35 0 0 0 1 0 2 36 0 1 0 1 0 2 33 5 
EIF[ ]\011/* EndIf */
PUSHB[ ]\011/* 1 value pushed */
56 
CALL[ ]\011/* CallFunction */";
};
width = 1116;
}
);
note = Lslash;
unicode = 0141;
},
{
glyphname = M;
layers = (
{
layerId = "0F82F74C-23B9-402A-A6A2-E1A5FCDC2DA6";
paths = (
{
closed = 1;
nodes = (
"865 666 LINE",
"490 1405 LINE SMOOTH",
"463.801 1454.778 OFFCURVE",
"436.135 1457 OFFCURVE",
"378 1457 CURVE SMOOTH",
"120 1457 LINE",
"120 0 LINE",
"418 0 LINE",
"418 838 LINE SMOOTH",
"418 876.667 OFFCURVE",
"415.333 924.333 OFFCURVE",
"410 971 CURVE",
"798 221 LINE SMOOTH",
"822 174.333 OFFCURVE",
"864 150 OFFCURVE",
"916 150 CURVE SMOOTH",
"962 150 LINE SMOOTH",
"1014 150 OFFCURVE",
"1056 174.333 OFFCURVE",
"1080 221 CURVE SMOOTH",
"1466 970 LINE",
"1462 922.667 OFFCURVE",
"1460 878.667 OFFCURVE",
"1460 838 CURVE SMOOTH",
"1460 0 LINE",
"1758 0 LINE",
"1758 1457 LINE",
"1500 1457 LINE SMOOTH",
"1441.865 1457 OFFCURVE",
"1414.199 1454.778 OFFCURVE",
"1388 1405 CURVE SMOOTH",
"1014 669 LINE SMOOTH",
"987.333 617 OFFCURVE",
"961.667 561.667 OFFCURVE",
"939 503 CURVE",
"916.333 560.333 OFFCURVE",
"891.667 615.333 OFFCURVE",
"865 666 CURVE"
);
}
);
userData = {
assembly = "NPUSHB[ ]\011/* 12 values pushed */
36 33 32 31 24 21 15 14 13 10 5 7 
CALL[ ]\011/* CallFunction */
MPPEM[ ]\011/* MeasurePixelPerEm */
PUSHB[ ]\011/* 1 value pushed */
94 
LT[ ]\011/* LessThan */
IF[ ]\011/* If */
NPUSHB[ ]\011/* 30 values pushed */
27 18 3 3 2 0 1 30 0 2 0 1 0 2 1 50 4 1 0 0 11 31 3 1 1 1 12 1 32 4 
ELSE[ ]\011/* Else */
MPPEM[ ]\011/* MeasurePixelPerEm */
PUSHB[ ]\011/* 1 value pushed */
232 
LT[ ]\011/* LessThan */
IF[ ]\011/* If */
NPUSHB[ ]\011/* 42 values pushed */
27 18 3 3 2 0 1 30 0 2 0 1 0 2 1 50 4 1 0 2 1 0 1 0 35 4 1 0 0 1 0 0 36 3 1 1 0 1 0 0 33 5 
ELSE[ ]\011/* Else */
NPUSHB[ ]\011/* 49 values pushed */
27 18 3 3 2 4 1 30 0 2 4 3 4 2 3 50 0 0 4 1 0 1 0 35 0 4 0 3 1 4 3 0 0 38 0 0 0 1 0 0 36 0 1 0 1 0 0 33 6 
EIF[ ]\011/* EndIf */
EIF[ ]\011/* EndIf */
PUSHB[ ]\011/* 1 value pushed */
56 
CALL[ ]\011/* CallFunction */";
};
width = 1878;
}
);
note = M;
unicode = 004D;
},
{
glyphname = N;
layers = (
{
layerId = "0F82F74C-23B9-402A-A6A2-E1A5FCDC2DA6";
paths = (
{
closed = 1;
nodes = (
"298 1457 LINE",
"120 1457 LINE",
"120 0 LINE",
"418 0 LINE",
"418 781 LINE SMOOTH",
"418 823.667 OFFCURVE",
"415 873.333 OFFCURVE",
"411 924 CURVE",
"1098 56 LINE SMOOTH",
"1131.333 13.333 OFFCURVE",
"1164 0 OFFCURVE",
"1216 0 CURVE SMOOTH",
"1392 0 LINE",
"1392 1457 LINE",
"1094 1457 LINE",
"1094 686 LINE SMOOTH",
"1094 639.333 OFFCURVE",
"1096.667 586 OFFCURVE",
"1102 530 CURVE",
"410 1405 LINE SMOOTH",
"374.427 1448.196 OFFCURVE",
"354.444 1457 OFFCURVE",
"298 1457 CURVE SMOOTH"
);
}
);
userData = {
assembly = "NPUSHB[ ]\011/* 12 values pushed */
24 23 22 21 14 12 11 10 1 0 5 7 
CALL[ ]\011/* CallFunction */
MPPEM[ ]\011/* MeasurePixelPerEm */
PUSHB[ ]\011/* 1 value pushed */
94 
LT[ ]\011/* LessThan */
IF[ ]\011/* If */
NPUSHB[ ]\011/* 15 values pushed */
4 1 2 0 0 11 31 3 1 2 2 12 2 32 2 
ELSE[ ]\011/* Else */
MPPEM[ ]\011/* MeasurePixelPerEm */
PUSHB[ ]\011/* 1 value pushed */
232 
LT[ ]\011/* LessThan */
IF[ ]\011/* If */
NPUSHB[ ]\011/* 28 values pushed */
4 1 2 0 2 2 0 0 0 35 4 1 2 0 0 2 1 0 36 3 1 2 0 2 1 0 33 3 
ELSE[ ]\011/* Else */
NPUSHB[ ]\011/* 39 values pushed */
0 0 1 4 0 40 0 1 4 2 1 0 0 35 0 4 0 3 2 4 3 0 2 38 0 1 1 2 1 0 36 0 2 1 2 1 0 33 5 
EIF[ ]\011/* EndIf */
EIF[ ]\011/* EndIf */
PUSHB[ ]\011/* 1 value pushed */
56 
CALL[ ]\011/* CallFunction */";
};
width = 1512;
}
);
note = N;
unicode = 004E;
},
{
glyphname = O;
layers = (
{
layerId = "0F82F74C-23B9-402A-A6A2-E1A5FCDC2DA6";
paths = (
{
closed = 1;
nodes = (
"1558 938.333 OFFCURVE",
"1482 1124.667 OFFCURVE",
"1350 1258 CURVE SMOOTH",
"1218 1391.333 OFFCURVE",
"1028.667 1473 OFFCURVE",
"802 1473 CURVE SMOOTH",
"575.333 1473 OFFCURVE",
"385.167 1392.333 OFFCURVE",
"252.5 1259 CURVE SMOOTH",
"119.833 1125.667 OFFCURVE",
"44 939.667 OFFCURVE",
"44 729 CURVE SMOOTH",
"44 518.333 OFFCURVE",
"119.833 332.5 OFFCURVE",
"252.5 198.5 CURVE SMOOTH",
"385.167 64.5 OFFCURVE",
"575.333 -16 OFFCURVE",
"802 -16 CURVE SMOOTH",
"1028.667 -16 OFFCURVE",
"1218 64.5 OFFCURVE",
"1350 198.5 CURVE SMOOTH",
"1482 332.5 OFFCURVE",
"1558 518.333 OFFCURVE",
"1558 729 CURVE SMOOTH"
);
},
{
closed = 1;
nodes = (
"1212 583.667 OFFCURVE",
"1173.5 467 OFFCURVE",
"1103.5 387 CURVE SMOOTH",
"1033.5 307 OFFCURVE",
"931.333 264 OFFCURVE",
"802 264 CURVE SMOOTH",
"671.333 264 OFFCURVE",
"568.5 307 OFFCURVE",
"498.5 387 CURVE SMOOTH",
"428.5 467 OFFCURVE",
"390 583.667 OFFCURVE",
"390 729 CURVE SMOOTH",
"390 873 OFFCURVE",
"428.5 990 OFFCURVE",
"498.5 1070 CURVE SMOOTH",
"568.5 1150 OFFCURVE",
"671.333 1194 OFFCURVE",
"802 1194 CURVE SMOOTH",
"931.333 1194 OFFCURVE",
"1033.5 1150 OFFCURVE",
"1103.5 1070 CURVE SMOOTH",
"1173.5 990 OFFCURVE",
"1212 873 OFFCURVE",
"1212 729 CURVE SMOOTH"
);
}
);
userData = {
assembly = "NPUSHB[ ]\011/* 10 values pushed */
36 34 26 24 16 14 6 4 4 7 
CALL[ ]\011/* CallFunction */
MPPEM[ ]\011/* MeasurePixelPerEm */
PUSHB[ ]\011/* 1 value pushed */
94 
LT[ ]\011/* LessThan */
IF[ ]\011/* If */
NPUSHB[ ]\011/* 26 values pushed */
0 2 2 1 1 0 36 0 1 1 17 31 0 3 3 0 1 0 36 0 0 0 18 0 32 4 
ELSE[ ]\011/* Else */
NPUSHB[ ]\011/* 33 values pushed */
0 1 0 2 3 1 2 1 0 38 0 3 0 0 3 1 0 35 0 3 3 0 1 0 36 0 0 3 0 1 0 33 4 
EIF[ ]\011/* EndIf */
PUSHB[ ]\011/* 1 value pushed */
56 
CALL[ ]\011/* CallFunction */";
};
width = 1600;
}
);
note = O;
unicode = 004F;
},
{
glyphname = Oslash;
layers = (
{
layerId = "0F82F74C-23B9-402A-A6A2-E1A5FCDC2DA6";
paths = (
{
closed = 1;
nodes = (
"1558 943.667 OFFCURVE",
"1480 1132 OFFCURVE",
"1340 1268 CURVE",
"1524 1523 LINE",
"1352 1523 LINE SMOOTH",
"1281.006 1523 OFFCURVE",
"1256.588 1502.559 OFFCURVE",
"1214 1444 CURVE SMOOTH",
"1173 1387 LINE",
"1065 1443 OFFCURVE",
"942 1473 OFFCURVE",
"802 1473 CURVE SMOOTH",
"575.333 1473 OFFCURVE",
"385.167 1392.333 OFFCURVE",
"252.5 1259 CURVE SMOOTH",
"119.833 1125.667 OFFCURVE",
"44 939.667 OFFCURVE",
"44 729 CURVE SMOOTH",
"44 497 OFFCURVE",
"133.667 299 OFFCURVE",
"291 163 CURVE",
"92 -113 LINE",
"224 -113 LINE SMOOTH",
"290.665 -113 OFFCURVE",
"364.525 -88.376 OFFCURVE",
"408 -27 CURVE SMOOTH",
"465 52 LINE",
"565 8 OFFCURVE",
"676.667 -16 OFFCURVE",
"802 -16 CURVE SMOOTH",
"1028.667 -16 OFFCURVE",
"1218 64.5 OFFCURVE",
"1350 198.5 CURVE SMOOTH",
"1482 332.5 OFFCURVE",
"1558 518.333 OFFCURVE",
"1558 729 CURVE SMOOTH"
);
},
{
closed = 1;
nodes = (
"390 873 OFFCURVE",
"428.5 990 OFFCURVE",
"498.5 1070 CURVE SMOOTH",
"568.5 1150 OFFCURVE",
"671.333 1194 OFFCURVE",
"802 1194 CURVE SMOOTH",
"878 1194 OFFCURVE",
"945 1178.333 OFFCURVE",
"1001 1149 CURVE",
"474 418 LINE",
"418 497.333 OFFCURVE",
"390 601 OFFCURVE",
"390 729 CURVE SMOOTH"
);
},
{
closed = 1;
nodes = (
"1212 583.667 OFFCURVE",
"1173.5 467 OFFCURVE",
"1103.5 387 CURVE SMOOTH",
"1033.5 307 OFFCURVE",
"931.333 264 OFFCURVE",
"802 264 CURVE SMOOTH",
"740 264 OFFCURVE",
"685.333 273.333 OFFCURVE",
"638 292 CURVE",
"1150 1003 LINE",
"1190 929.667 OFFCURVE",
"1212 837 OFFCURVE",
"1212 729 CURVE SMOOTH"
);
}
);
userData = {
assembly = "NPUSHB[ ]\011/* 14 values pushed */
56 54 45 43 34 32 25 23 15 13 6 4 6 7 
CALL[ ]\011/* CallFunction */
MPPEM[ ]\011/* MeasurePixelPerEm */
PUSHB[ ]\011/* 1 value pushed */
49 
LT[ ]\011/* LessThan */
IF[ ]\011/* If */
NPUSHB[ ]\011/* 55 values pushed */
35 27 2 4 2 53 52 41 40 4 5 4 16 8 2 0 5 3 30 0 1 0 1 53 0 3 3 19 31 0 4 4 2 1 0 36 0 2 2 17 31 0 5 5 0 1 0 36 0 0 0 18 0 32 7 
ELSE[ ]\011/* Else */
MPPEM[ ]\011/* MeasurePixelPerEm */
PUSHB[ ]\011/* 1 value pushed */
94 
LT[ ]\011/* LessThan */
IF[ ]\011/* If */
NPUSHB[ ]\011/* 55 values pushed */
35 27 2 4 2 53 52 41 40 4 5 4 16 8 2 0 5 3 30 0 3 2 3 52 0 1 0 1 53 0 4 4 2 1 0 36 0 2 2 17 31 0 5 5 0 1 0 36 0 0 0 18 0 32 7 
ELSE[ ]\011/* Else */
NPUSHB[ ]\011/* 62 values pushed */
35 27 2 4 2 53 52 41 40 4 5 4 16 8 2 0 5 3 30 0 3 2 3 52 0 1 0 1 53 0 2 0 4 5 2 4 1 0 38 0 5 0 0 5 1 0 35 0 5 5 0 1 0 36 0 0 5 0 1 0 33 7 
EIF[ ]\011/* EndIf */
EIF[ ]\011/* EndIf */
PUSHB[ ]\011/* 1 value pushed */
56 
CALL[ ]\011/* CallFunction */";
};
width = 1600;
}
);
note = Oslash;
unicode = 00D8;
},
{
glyphname = OE;
layers = (
{
layerId = "0F82F74C-23B9-402A-A6A2-E1A5FCDC2DA6";
paths = (
{
closed = 1;
nodes = (
"1166 1457 LINE",
"1166 1308 LINE",
"1051.333 1412 OFFCURVE",
"903.333 1473 OFFCURVE",
"726 1473 CURVE SMOOTH",
"520.667 1473 OFFCURVE",
"350.833 1392.333 OFFCURVE",
"231.5 1259 CURVE SMOOTH",
"112.167 1125.667 OFFCURVE",
"44 939.667 OFFCURVE",
"44 729 CURVE SMOOTH",
"44 518.333 OFFCURVE",
"112.167 332.5 OFFCURVE",
"231.5 198.5 CURVE SMOOTH",
"350.833 64.5 OFFCURVE",
"520.667 -16 OFFCURVE",
"726 -16 CURVE SMOOTH",
"903.333 -16 OFFCURVE",
"1051.333 44 OFFCURVE",
"1166 148 CURVE",
"1166 0 LINE",
"2064 0 LINE",
"2064 260 LINE",
"1466 260 LINE",
"1466 607 LINE",
"1924 607 LINE",
"1924 857 LINE",
"1466 857 LINE",
"1466 1197 LINE",
"2064 1197 LINE",
"2064 1457 LINE"
);
},
{
closed = 1;
nodes = (
"1126 583.667 OFFCURVE",
"1092.667 464.5 OFFCURVE",
"1030 382.5 CURVE SMOOTH",
"967.333 300.5 OFFCURVE",
"876 254 OFFCURVE",
"760 254 CURVE SMOOTH",
"641.333 254 OFFCURVE",
"549.833 300.5 OFFCURVE",
"486.5 382.5 CURVE SMOOTH",
"423.167 464.5 OFFCURVE",
"390 583.667 OFFCURVE",
"390 729 CURVE SMOOTH",
"390 873 OFFCURVE",
"423.167 992.5 OFFCURVE",
"486.5 1074.5 CURVE SMOOTH",
"549.833 1156.5 OFFCURVE",
"641.333 1203 OFFCURVE",
"760 1203 CURVE SMOOTH",
"876 1203 OFFCURVE",
"967.333 1156.5 OFFCURVE",
"1030 1074.5 CURVE SMOOTH",
"1092.667 992.5 OFFCURVE",
"1126 873 OFFCURVE",
"1126 729 CURVE SMOOTH"
);
}
);
userData = {
assembly = "NPUSHB[ ]\011/* 26 values pushed */
0 0 45 43 35 33 0 28 0 28 25 23 15 13 10 9 8 7 6 5 4 3 2 1 11 7 
CALL[ ]\011/* CallFunction */
MPPEM[ ]\011/* MeasurePixelPerEm */
PUSHB[ ]\011/* 1 value pushed */
30 
LT[ ]\011/* LessThan */
IF[ ]\011/* If */
NPUSHB[ ]\011/* 51 values pushed */
27 1 0 6 11 1 4 3 2 30 0 1 0 2 3 1 2 0 0 38 8 1 0 0 6 1 0 36 10 7 2 6 6 17 31 9 1 3 3 4 1 0 36 5 1 4 4 12 4 32 6 
ELSE[ ]\011/* Else */
MPPEM[ ]\011/* MeasurePixelPerEm */
PUSHB[ ]\011/* 1 value pushed */
77 
LT[ ]\011/* LessThan */
IF[ ]\011/* If */
NPUSHB[ ]\011/* 75 values pushed */
27 1 0 7 11 1 4 3 2 30 0 1 0 2 3 1 2 0 0 38 8 1 0 0 6 1 0 36 0 6 6 17 31 8 1 0 0 7 0 0 36 10 1 7 7 11 31 9 1 3 3 4 0 0 36 0 4 4 12 31 9 1 3 3 5 1 0 36 0 5 5 18 5 32 10 
ELSE[ ]\011/* Else */
MPPEM[ ]\011/* MeasurePixelPerEm */
PUSHB[ ]\011/* 1 value pushed */
94 
LT[ ]\011/* LessThan */
IF[ ]\011/* If */
NPUSHB[ ]\011/* 71 values pushed */
27 1 8 7 11 1 4 9 2 30 0 1 0 2 3 1 2 0 0 38 0 8 8 6 1 0 36 0 6 6 17 31 0 0 0 7 0 0 36 10 1 7 7 11 31 0 3 3 4 0 0 36 0 4 4 12 31 0 9 9 5 1 0 36 0 5 5 18 5 32 10 
ELSE[ ]\011/* Else */
NPUSHB[ ]\011/* 74 values pushed */
27 1 8 7 11 1 4 9 2 30 0 6 0 8 0 6 8 1 0 38 10 1 7 0 0 1 7 0 0 0 38 0 1 0 2 3 1 2 0 0 38 0 9 4 5 9 1 0 35 0 3 0 4 5 3 4 0 0 38 0 9 9 5 1 0 36 0 5 9 5 1 0 33 8 
EIF[ ]\011/* EndIf */
EIF[ ]\011/* EndIf */
EIF[ ]\011/* EndIf */
PUSHB[ ]\011/* 1 value pushed */
56 
CALL[ ]\011/* CallFunction */";
};
width = 2136;
}
);
note = OE;
unicode = 0152;
},
{
glyphname = P;
layers = (
{
layerId = "0F82F74C-23B9-402A-A6A2-E1A5FCDC2DA6";
paths = (
{
closed = 1;
nodes = (
"634 487 LINE SMOOTH",
"835.333 487 OFFCURVE",
"982 538.333 OFFCURVE",
"1078 625 CURVE SMOOTH",
"1174 711.667 OFFCURVE",
"1220 835.667 OFFCURVE",
"1220 981 CURVE SMOOTH",
"1220 1115.667 OFFCURVE",
"1175.833 1234.667 OFFCURVE",
"1080.5 1320 CURVE SMOOTH",
"985.167 1405.333 OFFCURVE",
"839.333 1457 OFFCURVE",
"634 1457 CURVE SMOOTH",
"120 1457 LINE",
"120 0 LINE",
"458 0 LINE",
"458 487 LINE"
);
},
{
closed = 1;
nodes = (
"458 1204 LINE",
"634 1204 LINE SMOOTH",
"795.931 1204 OFFCURVE",
"882 1120.947 OFFCURVE",
"882 981 CURVE SMOOTH",
"882 830.333 OFFCURVE",
"810 742 OFFCURVE",
"634 742 CURVE SMOOTH",
"458 742 LINE"
);
}
);
userData = {
assembly = "NPUSHB[ ]\011/* 16 values pushed */
0 0 25 23 17 15 0 14 0 13 5 3 2 1 6 7 
CALL[ ]\011/* CallFunction */
MPPEM[ ]\011/* MeasurePixelPerEm */
PUSHB[ ]\011/* 1 value pushed */
94 
LT[ ]\011/* LessThan */
IF[ ]\011/* If */
NPUSHB[ ]\011/* 30 values pushed */
0 3 5 1 2 0 3 2 1 0 38 0 4 4 1 1 0 36 0 1 1 11 31 0 0 0 12 0 32 4 
ELSE[ ]\011/* Else */
NPUSHB[ ]\011/* 39 values pushed */
0 0 2 0 53 0 1 0 4 3 1 4 1 0 38 0 3 2 2 3 1 0 35 0 3 3 2 1 0 36 5 1 2 3 2 1 0 33 5 
EIF[ ]\011/* EndIf */
PUSHB[ ]\011/* 1 value pushed */
56 
CALL[ ]\011/* CallFunction */";
};
width = 1276;
}
);
note = P;
unicode = 0050;
},
{
glyphname = Thorn;
layers = (
{
layerId = "0F82F74C-23B9-402A-A6A2-E1A5FCDC2DA6";
paths = (
{
closed = 1;
nodes = (
"634 252 LINE SMOOTH",
"835.333 252 OFFCURVE",
"982 303.333 OFFCURVE",
"1078 390 CURVE SMOOTH",
"1174 476.667 OFFCURVE",
"1220 600.667 OFFCURVE",
"1220 746 CURVE SMOOTH",
"1220 880.667 OFFCURVE",
"1175.833 999.667 OFFCURVE",
"1080.5 1085 CURVE SMOOTH",
"985.167 1170.333 OFFCURVE",
"839.333 1222 OFFCURVE",
"634 1222 CURVE SMOOTH",
"458 1222 LINE",
"458 1457 LINE",
"120 1457 LINE",
"120 0 LINE",
"458 0 LINE",
"458 252 LINE"
);
},
{
closed = 1;
nodes = (
"458 969 LINE",
"634 969 LINE SMOOTH",
"795.931 969 OFFCURVE",
"882 885.947 OFFCURVE",
"882 746 CURVE SMOOTH",
"882 595.333 OFFCURVE",
"810 507 OFFCURVE",
"634 507 CURVE SMOOTH",
"458 507 LINE"
);
}
);
userData = {
assembly = "NPUSHB[ ]\011/* 18 values pushed */
0 0 27 25 19 17 0 16 0 15 7 5 4 3 2 1 7 7 
CALL[ ]\011/* CallFunction */
MPPEM[ ]\011/* MeasurePixelPerEm */
PUSHB[ ]\011/* 1 value pushed */
94 
LT[ ]\011/* LessThan */
IF[ ]\011/* If */
NPUSHB[ ]\011/* 33 values pushed */
0 2 0 5 4 2 5 1 0 38 0 4 6 1 3 0 4 3 1 0 38 0 1 1 11 31 0 0 0 12 0 32 4 
ELSE[ ]\011/* Else */
NPUSHB[ ]\011/* 44 values pushed */
0 1 2 0 1 0 0 35 0 2 0 5 4 2 5 1 0 38 0 4 6 1 3 0 4 3 1 0 38 0 1 1 0 0 0 36 0 0 1 0 0 0 33 5 
EIF[ ]\011/* EndIf */
PUSHB[ ]\011/* 1 value pushed */
56 
CALL[ ]\011/* CallFunction */";
};
width = 1276;
}
);
note = Thorn;
unicode = 00DE;
},
{
glyphname = Q;
layers = (
{
layerId = "0F82F74C-23B9-402A-A6A2-E1A5FCDC2DA6";
paths = (
{
closed = 1;
nodes = (
"1558 938.333 OFFCURVE",
"1482 1124.667 OFFCURVE",
"1350 1258 CURVE SMOOTH",
"1218 1391.333 OFFCURVE",
"1028.667 1473 OFFCURVE",
"802 1473 CURVE SMOOTH",
"575.333 1473 OFFCURVE",
"385.167 1392.333 OFFCURVE",
"252.5 1259 CURVE SMOOTH",
"119.833 1125.667 OFFCURVE",
"44 939.667 OFFCURVE",
"44 729 CURVE SMOOTH",
"44 518.333 OFFCURVE",
"119.833 332.5 OFFCURVE",
"252.5 198.5 CURVE SMOOTH",
"385.167 64.5 OFFCURVE",
"575.333 -16 OFFCURVE",
"802 -16 CURVE SMOOTH",
"866 -16 OFFCURVE",
"926.333 -9 OFFCURVE",
"985 3 CURVE",
"1166 -200 LINE SMOOTH",
"1216.667 -258.667 OFFCURVE",
"1282 -273 OFFCURVE",
"1362 -273 CURVE SMOOTH",
"1640 -273 LINE",
"1271 130 LINE",
"1361.667 196.667 OFFCURVE",
"1433.833 284.667 OFFCURVE",
"1482.5 386 CURVE SMOOTH",
"1531.167 487.333 OFFCURVE",
"1558 603.667 OFFCURVE",
"1558 729 CURVE SMOOTH"
);
},
{
closed = 1;
nodes = (
"1212 583.667 OFFCURVE",
"1173.5 467 OFFCURVE",
"1103.5 387 CURVE SMOOTH",
"1033.5 307 OFFCURVE",
"931.333 264 OFFCURVE",
"802 264 CURVE SMOOTH",
"671.333 264 OFFCURVE",
"568.5 307 OFFCURVE",
"498.5 387 CURVE SMOOTH",
"428.5 467 OFFCURVE",
"390 583.667 OFFCURVE",
"390 729 CURVE SMOOTH",
"390 873 OFFCURVE",
"428.5 990 OFFCURVE",
"498.5 1070 CURVE SMOOTH",
"568.5 1150 OFFCURVE",
"671.333 1194 OFFCURVE",
"802 1194 CURVE SMOOTH",
"931.333 1194 OFFCURVE",
"1033.5 1150 OFFCURVE",
"1103.5 1070 CURVE SMOOTH",
"1173.5 990 OFFCURVE",
"1212 873 OFFCURVE",
"1212 729 CURVE SMOOTH"
);
}
);
userData = {
assembly = "NPUSHB[ ]\011/* 12 values pushed */
45 43 35 33 25 23 15 13 8 6 5 7 
CALL[ ]\011/* CallFunction */
MPPEM[ ]\011/* MeasurePixelPerEm */
PUSHB[ ]\011/* 1 value pushed */
94 
LT[ ]\011/* LessThan */
IF[ ]\011/* If */
NPUSHB[ ]\011/* 37 values pushed */
5 1 1 4 1 30 0 0 1 0 53 0 3 3 2 1 0 36 0 2 2 17 31 0 4 4 1 1 0 36 0 1 1 18 1 32 6 
ELSE[ ]\011/* Else */
NPUSHB[ ]\011/* 44 values pushed */
5 1 1 4 1 30 0 0 1 0 53 0 2 0 3 4 2 3 1 0 38 0 4 1 1 4 1 0 35 0 4 4 1 1 0 36 0 1 4 1 1 0 33 6 
EIF[ ]\011/* EndIf */
PUSHB[ ]\011/* 1 value pushed */
56 
CALL[ ]\011/* CallFunction */";
};
width = 1600;
}
);
note = Q;
unicode = 0051;
},
{
glyphname = R;
layers = (
{
layerId = "0F82F74C-23B9-402A-A6A2-E1A5FCDC2DA6";
paths = (
{
closed = 1;
nodes = (
"544 539 LINE SMOOTH",
"596 539 OFFCURVE",
"620.667 524.333 OFFCURVE",
"642 487 CURVE SMOOTH",
"884 64 LINE SMOOTH",
"908.667 21.333 OFFCURVE",
"949.333 0 OFFCURVE",
"1006 0 CURVE SMOOTH",
"1312 0 LINE",
"1002 507 LINE SMOOTH",
"972.667 555 OFFCURVE",
"932.333 587.333 OFFCURVE",
"887 610 CURVE",
"981.667 646 OFFCURVE",
"1054.5 703.167 OFFCURVE",
"1104.5 774.5 CURVE SMOOTH",
"1154.5 845.833 OFFCURVE",
"1180 930.333 OFFCURVE",
"1180 1025 CURVE SMOOTH",
"1180 1149 OFFCURVE",
"1139.5 1256.667 OFFCURVE",
"1045.5 1334 CURVE SMOOTH",
"951.5 1411.333 OFFCURVE",
"804.667 1457 OFFCURVE",
"594 1457 CURVE SMOOTH",
"120 1457 LINE",
"120 0 LINE",
"458 0 LINE",
"458 539 LINE"
);
},
{
closed = 1;
nodes = (
"458 1204 LINE",
"594 1204 LINE SMOOTH",
"768.667 1204 OFFCURVE",
"850 1128 OFFCURVE",
"850 1000 CURVE SMOOTH",
"850 861.376 OFFCURVE",
"766.774 772 OFFCURVE",
"594 772 CURVE SMOOTH",
"458 772 LINE"
);
}
);
userData = {
assembly = "NPUSHB[ ]\011/* 18 values pushed */
0 0 36 34 28 26 0 25 0 24 20 18 5 3 2 1 7 7 
CALL[ ]\011/* CallFunction */
MPPEM[ ]\011/* MeasurePixelPerEm */
PUSHB[ ]\011/* 1 value pushed */
94 
LT[ ]\011/* LessThan */
IF[ ]\011/* If */
NPUSHB[ ]\011/* 37 values pushed */
14 1 3 4 1 30 0 4 6 1 3 0 4 3 1 0 38 0 5 5 1 1 0 36 0 1 1 11 31 2 1 0 0 12 0 32 5 
ELSE[ ]\011/* Else */
MPPEM[ ]\011/* MeasurePixelPerEm */
PUSHB[ ]\011/* 1 value pushed */
232 
LT[ ]\011/* LessThan */
IF[ ]\011/* If */
NPUSHB[ ]\011/* 46 values pushed */
14 1 3 4 1 30 2 1 0 3 0 53 0 1 0 5 4 1 5 1 0 38 0 4 3 3 4 1 0 35 0 4 4 3 1 0 36 6 1 3 4 3 1 0 33 6 
ELSE[ ]\011/* Else */
NPUSHB[ ]\011/* 52 values pushed */
14 1 3 4 1 30 0 2 3 0 3 2 0 50 0 0 0 51 0 1 0 5 4 1 5 1 0 38 0 4 3 3 4 1 0 35 0 4 4 3 1 0 36 6 1 3 4 3 1 0 33 7 
EIF[ ]\011/* EndIf */
EIF[ ]\011/* EndIf */
PUSHB[ ]\011/* 1 value pushed */
56 
CALL[ ]\011/* CallFunction */";
};
width = 1330;
}
);
note = R;
unicode = 0052;
},
{
glyphname = S;
layers = (
{
layerId = "0F82F74C-23B9-402A-A6A2-E1A5FCDC2DA6";
paths = (
{
closed = 1;
nodes = (
"1016 1318 LINE",
"964 1366 OFFCURVE",
"897 1404.167 OFFCURVE",
"821 1431.5 CURVE SMOOTH",
"745 1458.833 OFFCURVE",
"659.333 1473 OFFCURVE",
"570 1473 CURVE SMOOTH",
"410 1473 OFFCURVE",
"285.333 1420.333 OFFCURVE",
"200 1339 CURVE SMOOTH",
"114.667 1257.667 OFFCURVE",
"70 1149.333 OFFCURVE",
"70 1040 CURVE SMOOTH",
"70 904 OFFCURVE",
"110.833 814.5 OFFCURVE",
"171.5 752.5 CURVE SMOOTH",
"232.167 690.5 OFFCURVE",
"312.667 655.5 OFFCURVE",
"394 629.5 CURVE SMOOTH",
"459.55 608.545 OFFCURVE",
"564.353 581.068 OFFCURVE",
"616.5 557 CURVE SMOOTH",
"677.167 529 OFFCURVE",
"718 489 OFFCURVE",
"718 421 CURVE SMOOTH",
"718 303.667 OFFCURVE",
"646.667 252 OFFCURVE",
"524 252 CURVE SMOOTH",
"433.333 252 OFFCURVE",
"368.833 282.333 OFFCURVE",
"317.5 313 CURVE SMOOTH",
"272.56 339.847 OFFCURVE",
"225.526 374 OFFCURVE",
"188 374 CURVE SMOOTH",
"157.333 374 OFFCURVE",
"128.667 358 OFFCURVE",
"114 334 CURVE SMOOTH",
"14 176 LINE",
"71.333 118.667 OFFCURVE",
"151 71.5 OFFCURVE",
"239 37.5 CURVE SMOOTH",
"327 3.5 OFFCURVE",
"423.333 -16 OFFCURVE",
"514 -16 CURVE SMOOTH",
"679.333 -16 OFFCURVE",
"810.833 37.167 OFFCURVE",
"899.5 124.5 CURVE SMOOTH",
"988.167 211.833 OFFCURVE",
"1036 332.333 OFFCURVE",
"1036 467 CURVE SMOOTH",
"1036 588.333 OFFCURVE",
"995.167 672 OFFCURVE",
"934.5 732 CURVE SMOOTH",
"873.833 792 OFFCURVE",
"792.333 827.833 OFFCURVE",
"711 856.5 CURVE SMOOTH",
"645.193 879.694 OFFCURVE",
"540.063 909.74 OFFCURVE",
"487.5 934 CURVE SMOOTH",
"426.833 962 OFFCURVE",
"386 998.333 OFFCURVE",
"386 1057 CURVE SMOOTH",
"386 1149 OFFCURVE",
"447.333 1207 OFFCURVE",
"574 1207 CURVE SMOOTH",
"647.333 1207 OFFCURVE",
"703.833 1184 OFFCURVE",
"748.5 1160 CURVE SMOOTH",
"785.855 1139.928 OFFCURVE",
"830.023 1113 OFFCURVE",
"858 1113 CURVE SMOOTH",
"892.667 1113 OFFCURVE",
"912 1129 OFFCURVE",
"932 1161 CURVE"
);
}
);
userData = {
assembly = "NPUSHB[ ]\011/* 14 values pushed */
57 55 40 38 35 33 26 24 9 7 4 2 6 7 
CALL[ ]\011/* CallFunction */
MPPEM[ ]\011/* MeasurePixelPerEm */
PUSHB[ ]\011/* 1 value pushed */
94 
LT[ ]\011/* LessThan */
IF[ ]\011/* If */
NPUSHB[ ]\011/* 51 values pushed */
61 1 1 5 30 1 2 4 2 30 0 0 1 3 1 0 3 50 0 3 4 1 3 4 48 0 1 1 5 1 0 36 0 5 5 17 31 0 4 4 2 1 0 36 0 2 2 18 2 32 7 
ELSE[ ]\011/* Else */
NPUSHB[ ]\011/* 58 values pushed */
61 1 1 5 30 1 2 4 2 30 0 0 1 3 1 0 3 50 0 3 4 1 3 4 48 0 5 0 1 0 5 1 1 0 38 0 4 2 2 4 1 0 35 0 4 4 2 1 0 36 0 2 4 2 1 0 33 7 
EIF[ ]\011/* EndIf */
PUSHB[ ]\011/* 1 value pushed */
56 
CALL[ ]\011/* CallFunction */";
};
width = 1084;
}
);
note = S;
unicode = 0053;
},
{
glyphname = T;
layers = (
{
layerId = "0F82F74C-23B9-402A-A6A2-E1A5FCDC2DA6";
paths = (
{
closed = 1;
nodes = (
"20 1457 LINE",
"20 1189 LINE",
"430 1189 LINE",
"430 0 LINE",
"768 0 LINE",
"768 1189 LINE",
"1178 1189 LINE",
"1178 1457 LINE"
);
}
);
userData = {
assembly = "NPUSHB[ ]\011/* 14 values pushed */
0 0 0 7 0 7 6 5 4 3 2 1 5 7 
CALL[ ]\011/* CallFunction */
MPPEM[ ]\011/* MeasurePixelPerEm */
PUSHB[ ]\011/* 1 value pushed */
94 
LT[ ]\011/* LessThan */
IF[ ]\011/* If */
NPUSHB[ ]\011/* 21 values pushed */
2 1 0 0 3 0 0 36 4 1 3 3 11 31 0 1 1 12 1 32 3 
ELSE[ ]\011/* Else */
MPPEM[ ]\011/* MeasurePixelPerEm */
PUSHB[ ]\011/* 1 value pushed */
232 
LT[ ]\011/* LessThan */
IF[ ]\011/* If */
NPUSHB[ ]\011/* 31 values pushed */
0 1 0 1 53 4 1 3 0 0 3 0 0 35 4 1 3 3 0 0 0 36 2 1 0 3 0 0 0 33 4 
ELSE[ ]\011/* Else */
NPUSHB[ ]\011/* 37 values pushed */
0 2 3 0 0 2 42 0 1 0 1 53 4 1 3 2 0 3 0 2 35 4 1 3 3 0 0 0 36 0 0 3 0 0 0 33 5 
EIF[ ]\011/* EndIf */
EIF[ ]\011/* EndIf */
PUSHB[ ]\011/* 1 value pushed */
56 
CALL[ ]\011/* CallFunction */";
};
width = 1198;
}
);
note = T;
unicode = 0054;
},
{
glyphname = U;
layers = (
{
layerId = "0F82F74C-23B9-402A-A6A2-E1A5FCDC2DA6";
paths = (
{
closed = 1;
nodes = (
"635.333 267 OFFCURVE",
"563.333 297.833 OFFCURVE",
"514 354.5 CURVE SMOOTH",
"464.667 411.167 OFFCURVE",
"438 492.333 OFFCURVE",
"438 595 CURVE SMOOTH",
"438 1457 LINE",
"100 1457 LINE",
"100 594 LINE SMOOTH",
"100 415.333 OFFCURVE",
"159 263 OFFCURVE",
"267 155 CURVE SMOOTH",
"375 47 OFFCURVE",
"531.333 -16 OFFCURVE",
"726 -16 CURVE SMOOTH",
"919.333 -16 OFFCURVE",
"1076 47 OFFCURVE",
"1184 155 CURVE SMOOTH",
"1292 263 OFFCURVE",
"1352 415.333 OFFCURVE",
"1352 594 CURVE SMOOTH",
"1352 1457 LINE",
"1014 1457 LINE",
"1014 594 LINE SMOOTH",
"1014 491.333 OFFCURVE",
"987.333 410 OFFCURVE",
"938 354 CURVE SMOOTH",
"888.667 298 OFFCURVE",
"816.667 267 OFFCURVE",
"726 267 CURVE SMOOTH"
);
}
);
userData = {
assembly = "NPUSHB[ ]\011/* 14 values pushed */
1 0 20 19 14 12 7 6 0 25 1 25 5 7 
CALL[ ]\011/* CallFunction */
MPPEM[ ]\011/* MeasurePixelPerEm */
PUSHB[ ]\011/* 1 value pushed */
94 
LT[ ]\011/* LessThan */
IF[ ]\011/* If */
NPUSHB[ ]\011/* 21 values pushed */
3 1 1 1 11 31 4 1 0 0 2 1 0 36 0 2 2 18 2 32 3 
ELSE[ ]\011/* Else */
MPPEM[ ]\011/* MeasurePixelPerEm */
PUSHB[ ]\011/* 1 value pushed */
232 
LT[ ]\011/* LessThan */
IF[ ]\011/* If */
NPUSHB[ ]\011/* 31 values pushed */
3 1 1 0 1 52 4 1 0 2 2 0 1 0 35 4 1 0 0 2 1 0 36 0 2 0 2 1 0 33 4 
ELSE[ ]\011/* Else */
NPUSHB[ ]\011/* 35 values pushed */
0 1 3 1 52 0 3 0 3 52 4 1 0 2 2 0 1 0 35 4 1 0 0 2 1 0 36 0 2 0 2 1 0 33 5 
EIF[ ]\011/* EndIf */
EIF[ ]\011/* EndIf */
PUSHB[ ]\011/* 1 value pushed */
56 
CALL[ ]\011/* CallFunction */";
};
width = 1452;
}
);
note = U;
unicode = 0055;
},
{
glyphname = V;
layers = (
{
layerId = "0F82F74C-23B9-402A-A6A2-E1A5FCDC2DA6";
paths = (
{
closed = 1;
nodes = (
"584 0 LINE",
"890 0 LINE",
"1474 1457 LINE",
"1200 1457 LINE SMOOTH",
"1144 1457 OFFCURVE",
"1103.333 1421.333 OFFCURVE",
"1090 1384 CURVE SMOOTH",
"810 604 LINE SMOOTH",
"786 536 OFFCURVE",
"759.667 455 OFFCURVE",
"741 367 CURVE",
"718.333 455 OFFCURVE",
"691.333 536 OFFCURVE",
"666 604 CURVE SMOOTH",
"384 1384 LINE SMOOTH",
"368 1428 OFFCURVE",
"330.667 1457 OFFCURVE",
"272 1457 CURVE SMOOTH",
"0 1457 LINE"
);
}
);
userData = {
assembly = "NPUSHB[ ]\011/* 8 values pushed */
18 17 16 14 2 0 3 7 
CALL[ ]\011/* CallFunction */
MPPEM[ ]\011/* MeasurePixelPerEm */
PUSHB[ ]\011/* 1 value pushed */
94 
LT[ ]\011/* LessThan */
IF[ ]\011/* If */
NPUSHB[ ]\011/* 19 values pushed */
8 1 2 0 1 30 1 1 0 0 11 31 0 2 2 12 2 32 3 
ELSE[ ]\011/* Else */
MPPEM[ ]\011/* MeasurePixelPerEm */
PUSHB[ ]\011/* 1 value pushed */
232 
LT[ ]\011/* LessThan */
IF[ ]\011/* If */
NPUSHB[ ]\011/* 17 values pushed */
8 1 2 0 1 30 1 1 0 2 0 52 0 2 2 43 3 
ELSE[ ]\011/* Else */
NPUSHB[ ]\011/* 21 values pushed */
8 1 2 1 1 30 0 0 1 0 52 0 1 2 1 52 0 2 2 43 4 
EIF[ ]\011/* EndIf */
EIF[ ]\011/* EndIf */
PUSHB[ ]\011/* 1 value pushed */
56 
CALL[ ]\011/* CallFunction */";
};
width = 1474;
}
);
note = V;
unicode = 0056;
},
{
glyphname = W;
layers = (
{
layerId = "0F82F74C-23B9-402A-A6A2-E1A5FCDC2DA6";
paths = (
{
closed = 1;
nodes = (
"460 0 LINE",
"766 0 LINE",
"1044 903 LINE SMOOTH",
"1053.333 931 OFFCURVE",
"1063.667 964.667 OFFCURVE",
"1073 1002 CURVE",
"1082.333 964.667 OFFCURVE",
"1092.667 931 OFFCURVE",
"1102 903 CURVE SMOOTH",
"1376 0 LINE",
"1682 0 LINE",
"2132 1457 LINE",
"1866 1457 LINE SMOOTH",
"1810 1457 OFFCURVE",
"1766.667 1422.667 OFFCURVE",
"1756 1384 CURVE SMOOTH",
"1556 624 LINE SMOOTH",
"1544 577.333 OFFCURVE",
"1532.667 523.667 OFFCURVE",
"1522 465 CURVE",
"1510 525 OFFCURVE",
"1492.667 577.333 OFFCURVE",
"1478 624 CURVE SMOOTH",
"1244 1384 LINE SMOOTH",
"1229.333 1429.333 OFFCURVE",
"1190.667 1457 OFFCURVE",
"1132 1457 CURVE SMOOTH",
"1032 1457 LINE SMOOTH",
"976 1457 OFFCURVE",
"934 1421.333 OFFCURVE",
"922 1384 CURVE SMOOTH",
"686 624 LINE SMOOTH",
"671.333 574.667 OFFCURVE",
"654.333 519.667 OFFCURVE",
"641 457 CURVE",
"634.333 518.333 OFFCURVE",
"619.333 574.667 OFFCURVE",
"606 624 CURVE SMOOTH",
"406 1384 LINE SMOOTH",
"394 1428 OFFCURVE",
"352.667 1457 OFFCURVE",
"294 1457 CURVE SMOOTH",
"10 1457 LINE"
);
}
);
userData = {
assembly = "NPUSHB[ ]\011/* 12 values pushed */
42 41 33 32 31 29 17 14 2 0 5 7 
CALL[ ]\011/* CallFunction */
MPPEM[ ]\011/* MeasurePixelPerEm */
PUSHB[ ]\011/* 1 value pushed */
94 
LT[ ]\011/* LessThan */
IF[ ]\011/* If */
NPUSHB[ ]\011/* 23 values pushed */
37 23 8 3 3 0 1 30 2 1 2 0 0 11 31 4 1 3 3 12 3 32 3 
ELSE[ ]\011/* Else */
MPPEM[ ]\011/* MeasurePixelPerEm */
PUSHB[ ]\011/* 1 value pushed */
232 
LT[ ]\011/* LessThan */
IF[ ]\011/* If */
NPUSHB[ ]\011/* 21 values pushed */
37 23 8 3 3 0 1 30 2 1 2 0 3 0 52 4 1 3 3 43 3 
ELSE[ ]\011/* Else */
NPUSHB[ ]\011/* 33 values pushed */
37 23 8 3 4 2 1 30 0 0 1 0 52 0 1 2 1 52 0 2 4 2 52 0 4 3 4 52 0 3 3 43 6 
EIF[ ]\011/* EndIf */
EIF[ ]\011/* EndIf */
PUSHB[ ]\011/* 1 value pushed */
56 
CALL[ ]\011/* CallFunction */";
};
width = 2142;
}
);
note = W;
unicode = 0057;
},
{
glyphname = X;
layers = (
{
layerId = "0F82F74C-23B9-402A-A6A2-E1A5FCDC2DA6";
paths = (
{
closed = 1;
nodes = (
"10 0 LINE",
"326 0 LINE SMOOTH",
"366 0 OFFCURVE",
"392 26 OFFCURVE",
"408 54 CURVE SMOOTH",
"680 526 LINE",
"686.667 536.667 OFFCURVE",
"692.667 549.333 OFFCURVE",
"698 564 CURVE",
"990 54 LINE SMOOTH",
"1006 24.667 OFFCURVE",
"1032 0 OFFCURVE",
"1076 0 CURVE SMOOTH",
"1414 0 LINE",
"947 764 LINE",
"1404 1457 LINE",
"1080 1457 LINE SMOOTH",
"1051.333 1457 OFFCURVE",
"1028.667 1443 OFFCURVE",
"1012 1415 CURVE SMOOTH",
"758 979 LINE SMOOTH",
"747.333 961.667 OFFCURVE",
"738.667 946.333 OFFCURVE",
"732 929 CURVE",
"442 1420 LINE SMOOTH",
"426 1446.667 OFFCURVE",
"410 1457 OFFCURVE",
"366 1457 CURVE SMOOTH",
"28 1457 LINE",
"479 749 LINE"
);
}
);
userData = {
assembly = "NPUSHB[ ]\011/* 10 values pushed */
27 25 17 15 13 11 3 1 4 7 
CALL[ ]\011/* CallFunction */
MPPEM[ ]\011/* MeasurePixelPerEm */
PUSHB[ ]\011/* 1 value pushed */
94 
LT[ ]\011/* LessThan */
IF[ ]\011/* If */
NPUSHB[ ]\011/* 21 values pushed */
14 0 2 2 0 1 30 1 1 0 0 11 31 3 1 2 2 12 2 32 3 
ELSE[ ]\011/* Else */
MPPEM[ ]\011/* MeasurePixelPerEm */
PUSHB[ ]\011/* 1 value pushed */
232 
LT[ ]\011/* LessThan */
IF[ ]\011/* If */
NPUSHB[ ]\011/* 33 values pushed */
14 0 2 2 0 1 30 1 1 0 2 2 0 1 0 35 1 1 0 0 2 1 0 36 3 1 2 0 2 1 0 33 4 
ELSE[ ]\011/* Else */
NPUSHB[ ]\011/* 40 values pushed */
14 0 2 3 1 1 30 0 1 3 2 1 1 0 35 0 0 0 3 2 0 3 1 0 38 0 1 1 2 1 0 36 0 2 1 2 1 0 33 5 
EIF[ ]\011/* EndIf */
EIF[ ]\011/* EndIf */
PUSHB[ ]\011/* 1 value pushed */
56 
CALL[ ]\011/* CallFunction */";
};
width = 1424;
}
);
note = X;
unicode = 0058;
},
{
glyphname = Y;
layers = (
{
layerId = "0F82F74C-23B9-402A-A6A2-E1A5FCDC2DA6";
paths = (
{
closed = 1;
nodes = (
"1374 1457 LINE",
"1074 1457 LINE SMOOTH",
"1022.984 1457 OFFCURVE",
"981.5 1421.917 OFFCURVE",
"964 1384 CURVE SMOOTH",
"760 960 LINE SMOOTH",
"744 926.667 OFFCURVE",
"729 895.667 OFFCURVE",
"715 867 CURVE SMOOTH",
"701 838.333 OFFCURVE",
"689 809.667 OFFCURVE",
"679 781 CURVE",
"657.667 837 OFFCURVE",
"629.333 892 OFFCURVE",
"596 960 CURVE SMOOTH",
"390 1384 LINE SMOOTH",
"368.667 1426.667 OFFCURVE",
"336.667 1457 OFFCURVE",
"278 1457 CURVE SMOOTH",
"-20 1457 LINE",
"508 554 LINE",
"508 0 LINE",
"846 0 LINE",
"846 554 LINE"
);
}
);
userData = {
assembly = "NPUSHB[ ]\011/* 8 values pushed */
22 20 6 4 2 1 3 7 
CALL[ ]\011/* CallFunction */
MPPEM[ ]\011/* MeasurePixelPerEm */
PUSHB[ ]\011/* 1 value pushed */
94 
LT[ ]\011/* LessThan */
IF[ ]\011/* If */
NPUSHB[ ]\011/* 21 values pushed */
12 3 0 3 0 1 1 30 2 1 1 1 11 31 0 0 0 12 0 32 3 
ELSE[ ]\011/* Else */
MPPEM[ ]\011/* MeasurePixelPerEm */
PUSHB[ ]\011/* 1 value pushed */
232 
LT[ ]\011/* LessThan */
IF[ ]\011/* If */
NPUSHB[ ]\011/* 19 values pushed */
12 3 0 3 0 1 1 30 2 1 1 0 1 52 0 0 0 43 3 
ELSE[ ]\011/* Else */
NPUSHB[ ]\011/* 23 values pushed */
12 3 0 3 0 2 1 30 0 1 2 1 52 0 2 0 2 52 0 0 0 43 4 
EIF[ ]\011/* EndIf */
EIF[ ]\011/* EndIf */
PUSHB[ ]\011/* 1 value pushed */
56 
CALL[ ]\011/* CallFunction */";
};
width = 1354;
}
);
note = Y;
unicode = 0059;
},
{
glyphname = Z;
layers = (
{
layerId = "0F82F74C-23B9-402A-A6A2-E1A5FCDC2DA6";
paths = (
{
closed = 1;
nodes = (
"96 1457 LINE",
"96 1197 LINE",
"756 1197 LINE",
"70 217 LINE SMOOTH",
"51.333 191.667 OFFCURVE",
"40 160.667 OFFCURVE",
"40 130 CURVE SMOOTH",
"40 0 LINE",
"1164 0 LINE",
"1164 260 LINE",
"470 260 LINE",
"1154 1237 LINE SMOOTH",
"1174 1266.333 OFFCURVE",
"1186 1300.333 OFFCURVE",
"1186 1335 CURVE SMOOTH",
"1186 1457 LINE"
);
}
);
userData = {
assembly = "NPUSHB[ ]\011/* 14 values pushed */
0 0 0 15 0 15 14 13 8 7 6 5 5 7 
CALL[ ]\011/* CallFunction */
MPPEM[ ]\011/* MeasurePixelPerEm */
PUSHB[ ]\011/* 1 value pushed */
94 
LT[ ]\011/* LessThan */
IF[ ]\011/* If */
NPUSHB[ ]\011/* 27 values pushed */
0 2 2 3 0 0 36 4 1 3 3 11 31 0 0 0 1 0 0 36 0 1 1 12 1 32 4 
ELSE[ ]\011/* Else */
NPUSHB[ ]\011/* 34 values pushed */
4 1 3 0 2 0 3 2 0 0 38 0 0 1 1 0 0 0 35 0 0 0 1 0 0 36 0 1 0 1 0 0 33 4 
EIF[ ]\011/* EndIf */
PUSHB[ ]\011/* 1 value pushed */
56 
CALL[ ]\011/* CallFunction */";
};
width = 1220;
}
);
note = Z;
unicode = 005A;
},
{
glyphname = a;
layers = (
{
layerId = "0F82F74C-23B9-402A-A6A2-E1A5FCDC2DA6";
paths = (
{
closed = 1;
nodes = (
"978 0 LINE",
"978 648 LINE SMOOTH",
"978 766.667 OFFCURVE",
"939.5 868.833 OFFCURVE",
"869.5 941.5 CURVE SMOOTH",
"799.5 1014.167 OFFCURVE",
"697.333 1057 OFFCURVE",
"572 1057 CURVE SMOOTH",
"397.333 1057 OFFCURVE",
"243.333 1003.667 OFFCURVE",
"118 893 CURVE",
"174 796 LINE SMOOTH",
"191.333 765.333 OFFCURVE",
"221.333 742 OFFCURVE",
"264 742 CURVE SMOOTH",
"361.53 742 OFFCURVE",
"401.952 820 OFFCURVE",
"532 820 CURVE SMOOTH",
"624 820 OFFCURVE",
"676 769.333 OFFCURVE",
"676 648 CURVE SMOOTH",
"676 604 LINE",
"438.667 598.667 OFFCURVE",
"287 551.833 OFFCURVE",
"195 488.5 CURVE SMOOTH",
"103 425.167 OFFCURVE",
"70 343.333 OFFCURVE",
"70 270 CURVE SMOOTH",
"70 176.667 OFFCURVE",
"100.5 105 OFFCURVE",
"154.5 57 CURVE SMOOTH",
"208.5 9 OFFCURVE",
"287.333 -16 OFFCURVE",
"382 -16 CURVE SMOOTH",
"522.066 -16 OFFCURVE",
"605.309 30.415 OFFCURVE",
"710 119 CURVE",
"732 62 LINE SMOOTH",
"752 11.333 OFFCURVE",
"777.333 0 OFFCURVE",
"836 0 CURVE SMOOTH"
);
},
{
closed = 1;
nodes = (
"405.333 189 OFFCURVE",
"366 214.333 OFFCURVE",
"366 285 CURVE SMOOTH",
"366 321 OFFCURVE",
"381.333 352 OFFCURVE",
"428 376 CURVE SMOOTH",
"474.667 400 OFFCURVE",
"552 416.667 OFFCURVE",
"676 422 CURVE",
"676 278 LINE",
"614.667 215.333 OFFCURVE",
"560 189 OFFCURVE",
"480 189 CURVE SMOOTH"
);
}
);
userData = {
assembly = "NPUSHB[ ]\011/* 26 values pushed */
43 42 1 0 47 46 42 53 43 53 36 34 29 27 24 22 19 18 10 8 0 41 1 41 10 7 
CALL[ ]\011/* CallFunction */
MPPEM[ ]\011/* MeasurePixelPerEm */
PUSHB[ ]\011/* 1 value pushed */
30 
LT[ ]\011/* LessThan */
IF[ ]\011/* If */
NPUSHB[ ]\011/* 61 values pushed */
32 1 3 5 45 1 6 7 4 1 0 6 3 30 0 4 3 2 3 4 2 50 0 2 0 7 6 2 7 1 0 38 0 3 3 5 1 0 36 0 5 5 20 31 9 1 6 6 0 1 0 36 1 8 2 0 0 12 0 32 7 
ELSE[ ]\011/* Else */
MPPEM[ ]\011/* MeasurePixelPerEm */
PUSHB[ ]\011/* 1 value pushed */
94 
LT[ ]\011/* LessThan */
IF[ ]\011/* If */
NPUSHB[ ]\011/* 65 values pushed */
32 1 3 5 45 1 6 7 4 1 0 6 3 30 0 4 3 2 3 4 2 50 0 2 0 7 6 2 7 1 0 38 0 3 3 5 1 0 36 0 5 5 20 31 8 1 0 0 12 31 9 1 6 6 1 1 0 36 0 1 1 18 1 32 8 
ELSE[ ]\011/* Else */
NPUSHB[ ]\011/* 76 values pushed */
32 1 3 5 45 1 6 7 4 1 0 6 3 30 0 4 3 2 3 4 2 50 8 1 0 6 1 6 0 1 50 0 5 0 3 4 5 3 1 0 38 0 2 0 7 6 2 7 1 0 38 9 1 6 0 1 6 1 0 35 9 1 6 6 1 1 0 36 0 1 6 1 1 0 33 8 
EIF[ ]\011/* EndIf */
EIF[ ]\011/* EndIf */
PUSHB[ ]\011/* 1 value pushed */
56 
CALL[ ]\011/* CallFunction */";
};
width = 1078;
}
);
note = a;
unicode = 0061;
},
{
glyphname = aogonek;
layers = (
{
layerId = "0F82F74C-23B9-402A-A6A2-E1A5FCDC2DA6";
paths = (
{
closed = 1;
nodes = (
"988.715 -167 OFFCURVE",
"957.735 -175 OFFCURVE",
"938 -175 CURVE SMOOTH",
"902 -175 OFFCURVE",
"884 -154 OFFCURVE",
"884 -122 CURVE SMOOTH",
"884 -71.333 OFFCURVE",
"926 -28 OFFCURVE",
"978 0 CURVE",
"978 648 LINE SMOOTH",
"978 766.667 OFFCURVE",
"939.5 868.833 OFFCURVE",
"869.5 941.5 CURVE SMOOTH",
"799.5 1014.167 OFFCURVE",
"697.333 1057 OFFCURVE",
"572 1057 CURVE SMOOTH",
"397.333 1057 OFFCURVE",
"243.333 1003.667 OFFCURVE",
"118 893 CURVE",
"174 796 LINE SMOOTH",
"191.333 765.333 OFFCURVE",
"221.333 742 OFFCURVE",
"264 742 CURVE SMOOTH",
"361.53 742 OFFCURVE",
"401.952 820 OFFCURVE",
"532 820 CURVE SMOOTH",
"624 820 OFFCURVE",
"676 769.333 OFFCURVE",
"676 648 CURVE SMOOTH",
"676 604 LINE",
"438.667 598.667 OFFCURVE",
"287 551.833 OFFCURVE",
"195 488.5 CURVE SMOOTH",
"103 425.167 OFFCURVE",
"70 343.333 OFFCURVE",
"70 270 CURVE SMOOTH",
"70 176.667 OFFCURVE",
"100.5 105 OFFCURVE",
"154.5 57 CURVE SMOOTH",
"208.5 9 OFFCURVE",
"287.333 -16 OFFCURVE",
"382 -16 CURVE SMOOTH",
"522.066 -16 OFFCURVE",
"605.309 30.415 OFFCURVE",
"710 119 CURVE",
"732 62 LINE SMOOTH",
"746.667 23.333 OFFCURVE",
"765.333 7.333 OFFCURVE",
"800 2 CURVE",
"698.667 -58 OFFCURVE",
"654 -128.667 OFFCURVE",
"654 -198 CURVE SMOOTH",
"654 -284.667 OFFCURVE",
"729.333 -347 OFFCURVE",
"872 -347 CURVE SMOOTH",
"950.667 -347 OFFCURVE",
"1023.333 -325 OFFCURVE",
"1070 -297 CURVE",
"1024 -186 LINE",
"1019.333 -173.333 OFFCURVE",
"1010 -167 OFFCURVE",
"996 -167 CURVE SMOOTH"
);
},
{
closed = 1;
nodes = (
"405.333 189 OFFCURVE",
"366 214.333 OFFCURVE",
"366 285 CURVE SMOOTH",
"366 321 OFFCURVE",
"381.333 352 OFFCURVE",
"428 376 CURVE SMOOTH",
"474.667 400 OFFCURVE",
"552 416.667 OFFCURVE",
"676 422 CURVE",
"676 278 LINE",
"614.667 215.333 OFFCURVE",
"560 189 OFFCURVE",
"480 189 CURVE SMOOTH"
);
}
);
userData = {
assembly = "NPUSHB[ ]\011/* 30 values pushed */
65 64 1 0 69 68 64 75 65 75 60 58 48 46 41 39 36 34 31 30 22 20 7 5 0 63 1 63 12 7 
CALL[ ]\011/* CallFunction */
MPPEM[ ]\011/* MeasurePixelPerEm */
PUSHB[ ]\011/* 1 value pushed */
54 
LT[ ]\011/* LessThan */
IF[ ]\011/* If */
NPUSHB[ ]\011/* 79 values pushed */
44 1 4 6 67 1 8 9 53 16 12 3 2 8 3 1 1 0 4 30 0 5 4 3 4 5 3 50 0 3 0 9 8 3 9 1 0 38 0 4 4 6 1 0 36 0 6 6 20 31 11 1 8 8 2 1 0 36 0 2 2 18 31 7 10 2 0 0 1 1 0 36 0 1 1 22 1 32 9 
ELSE[ ]\011/* Else */
MPPEM[ ]\011/* MeasurePixelPerEm */
PUSHB[ ]\011/* 1 value pushed */
58 
LT[ ]\011/* LessThan */
IF[ ]\011/* If */
NPUSHB[ ]\011/* 76 values pushed */
44 1 4 6 67 1 8 9 53 16 12 3 2 8 3 1 1 0 4 30 0 5 4 3 4 5 3 50 0 3 0 9 8 3 9 1 0 38 7 10 2 0 0 1 0 1 1 0 37 0 4 4 6 1 0 36 0 6 6 20 31 11 1 8 8 2 1 0 36 0 2 2 18 2 32 8 
ELSE[ ]\011/* Else */
MPPEM[ ]\011/* MeasurePixelPerEm */
PUSHB[ ]\011/* 1 value pushed */
94 
LT[ ]\011/* LessThan */
IF[ ]\011/* If */
NPUSHB[ ]\011/* 83 values pushed */
44 1 4 6 67 1 8 9 53 16 12 3 2 8 3 1 1 7 4 30 0 5 4 3 4 5 3 50 10 1 0 2 7 2 0 7 50 0 3 0 9 8 3 9 1 0 38 0 7 0 1 7 1 1 0 37 0 4 4 6 1 0 36 0 6 6 20 31 11 1 8 8 2 1 0 36 0 2 2 18 2 32 9 
ELSE[ ]\011/* Else */
NPUSHB[ ]\011/* 91 values pushed */
44 1 4 6 67 1 8 9 53 16 12 3 2 8 3 1 1 7 4 30 0 5 4 3 4 5 3 50 10 1 0 2 7 2 0 7 50 0 6 0 4 5 6 4 1 0 38 0 3 0 9 8 3 9 1 0 38 11 1 8 0 2 0 8 2 1 0 38 0 7 1 1 7 1 0 35 0 7 7 1 1 0 36 0 1 7 1 1 0 33 9 
EIF[ ]\011/* EndIf */
EIF[ ]\011/* EndIf */
EIF[ ]\011/* EndIf */
PUSHB[ ]\011/* 1 value pushed */
56 
CALL[ ]\011/* CallFunction */";
};
width = 1078;
}
);
note = aogonek;
unicode = 0105;
},
{
glyphname = ae;
layers = (
{
layerId = "0F82F74C-23B9-402A-A6A2-E1A5FCDC2DA6";
paths = (
{
closed = 1;
nodes = (
"1033.333 1053 OFFCURVE",
"921.667 998 OFFCURVE",
"843 910 CURVE",
"787 1002 OFFCURVE",
"688.667 1057 OFFCURVE",
"538 1057 CURVE SMOOTH",
"375.333 1057 OFFCURVE",
"243.333 1003.667 OFFCURVE",
"118 893 CURVE",
"174 796 LINE SMOOTH",
"191.333 765.333 OFFCURVE",
"221.333 742 OFFCURVE",
"264 742 CURVE SMOOTH",
"360.704 742 OFFCURVE",
"402.715 829 OFFCURVE",
"532 829 CURVE SMOOTH",
"624 829 OFFCURVE",
"676 769.333 OFFCURVE",
"676 648 CURVE SMOOTH",
"676 625 LINE",
"596.667 623 OFFCURVE",
"526.667 616.667 OFFCURVE",
"466 606 CURVE SMOOTH",
"344.667 584.667 OFFCURVE",
"255.167 549.167 OFFCURVE",
"194.5 504.5 CURVE SMOOTH",
"164.167 482.167 OFFCURVE",
"139.833 458.5 OFFCURVE",
"121.5 433.5 CURVE SMOOTH",
"84.833 383.5 OFFCURVE",
"70 330.333 OFFCURVE",
"70 281 CURVE SMOOTH",
"70 93 OFFCURVE",
"190.667 -16 OFFCURVE",
"404 -16 CURVE SMOOTH",
"489.333 -16 OFFCURVE",
"570.333 -2.5 OFFCURVE",
"641 27.5 CURVE SMOOTH",
"711.667 57.5 OFFCURVE",
"772.333 104 OFFCURVE",
"815 168 CURVE",
"901.466 42.231 OFFCURVE",
"1030.655 -16 OFFCURVE",
"1172 -16 CURVE SMOOTH",
"1241.333 -16 OFFCURVE",
"1318 -7.5 OFFCURVE",
"1394 18.5 CURVE SMOOTH",
"1470 44.5 OFFCURVE",
"1544 88.667 OFFCURVE",
"1608 162 CURVE",
"1524 265 LINE",
"1511.333 283 OFFCURVE",
"1490.667 292 OFFCURVE",
"1462 292 CURVE SMOOTH",
"1430.3 292 OFFCURVE",
"1405.097 271.347 OFFCURVE",
"1373.5 254 CURVE SMOOTH",
"1339.5 235.333 OFFCURVE",
"1291.333 216 OFFCURVE",
"1202 216 CURVE SMOOTH",
"1079.333 216 OFFCURVE",
"994.667 284.333 OFFCURVE",
"972 443 CURVE",
"1542 443 LINE SMOOTH",
"1601.128 443 OFFCURVE",
"1610 473.752 OFFCURVE",
"1610 558 CURVE SMOOTH",
"1610 708.667 OFFCURVE",
"1564.167 832.5 OFFCURVE",
"1487.5 918.5 CURVE SMOOTH",
"1410.833 1004.5 OFFCURVE",
"1302.667 1053 OFFCURVE",
"1180 1053 CURVE SMOOTH"
);
},
{
closed = 1;
nodes = (
"1286.324 839 OFFCURVE",
"1334 730.574 OFFCURVE",
"1334 623 CURVE",
"970 623 LINE",
"987.333 763 OFFCURVE",
"1048.667 839 OFFCURVE",
"1166 839 CURVE SMOOTH"
);
},
{
closed = 1;
nodes = (
"676 427 LINE SMOOTH",
"676 263.926 OFFCURVE",
"603.351 189 OFFCURVE",
"480 189 CURVE SMOOTH",
"405.333 189 OFFCURVE",
"366 224 OFFCURVE",
"366 296 CURVE SMOOTH",
"366 330.667 OFFCURVE",
"381.333 364.333 OFFCURVE",
"428 391 CURVE SMOOTH",
"474.667 417.667 OFFCURVE",
"552 436.333 OFFCURVE",
"676 443 CURVE"
);
}
);
userData = {
assembly = "NPUSHB[ ]\011/* 38 values pushed */
70 69 1 0 87 85 79 78 73 72 69 77 70 77 64 62 57 55 52 50 47 46 38 36 28 26 20 18 15 13 11 9 0 68 1 68 16 7 
CALL[ ]\011/* CallFunction */
MPPEM[ ]\011/* MeasurePixelPerEm */
PUSHB[ ]\011/* 1 value pushed */
18 
LT[ ]\011/* LessThan */
IF[ ]\011/* If */
NPUSHB[ ]\011/* 72 values pushed */
66 60 2 7 0 32 22 2 4 2 2 30 0 8 7 6 7 8 6 50 0 3 1 2 1 3 2 50 11 1 6 12 1 1 3 6 1 1 0 38 15 10 2 7 7 0 1 0 36 9 14 2 0 0 20 31 13 1 2 2 4 1 0 36 5 1 4 4 18 4 32 8 
ELSE[ ]\011/* Else */
MPPEM[ ]\011/* MeasurePixelPerEm */
PUSHB[ ]\011/* 1 value pushed */
49 
LT[ ]\011/* LessThan */
IF[ ]\011/* If */
NPUSHB[ ]\011/* 84 values pushed */
66 60 2 7 0 32 22 2 4 13 2 30 0 8 7 6 7 8 6 50 0 3 1 2 1 3 2 50 11 1 6 12 1 1 3 6 1 1 0 38 15 10 2 7 7 0 1 0 36 9 14 2 0 0 20 31 0 2 2 4 1 0 36 5 1 4 4 18 31 0 13 13 4 1 0 36 5 1 4 4 18 4 32 10 
ELSE[ ]\011/* Else */
MPPEM[ ]\011/* MeasurePixelPerEm */
PUSHB[ ]\011/* 1 value pushed */
94 
LT[ ]\011/* LessThan */
IF[ ]\011/* If */
NPUSHB[ ]\011/* 97 values pushed */
66 60 2 10 0 32 22 2 4 13 2 30 0 8 7 6 7 8 6 50 0 3 1 2 1 3 2 50 11 1 6 12 1 1 3 6 1 1 0 38 15 1 10 10 0 1 0 36 9 14 2 0 0 20 31 0 7 7 0 1 0 36 9 14 2 0 0 20 31 0 2 2 4 1 0 36 5 1 4 4 18 31 0 13 13 4 1 0 36 5 1 4 4 18 4 32 12 
ELSE[ ]\011/* Else */
MPPEM[ ]\011/* MeasurePixelPerEm */
PUSHB[ ]\011/* 1 value pushed */
111 
LT[ ]\011/* LessThan */
IF[ ]\011/* If */
NPUSHB[ ]\011/* 93 values pushed */
66 60 2 10 0 32 22 2 4 13 2 30 0 8 7 6 7 8 6 50 0 3 1 2 1 3 2 50 15 1 10 7 0 10 1 0 35 9 14 2 0 0 7 8 0 7 1 0 38 11 1 6 12 1 1 3 6 1 1 0 38 0 2 13 4 2 1 0 35 0 13 4 4 13 1 0 35 0 13 13 4 1 0 36 5 1 4 13 4 1 0 33 10 
ELSE[ ]\011/* Else */
MPPEM[ ]\011/* MeasurePixelPerEm */
PUSHB[ ]\011/* 1 value pushed */
144 
LT[ ]\011/* LessThan */
IF[ ]\011/* If */
NPUSHB[ ]\011/* 94 values pushed */
66 60 2 10 0 32 22 2 4 13 2 30 0 8 7 6 7 8 6 50 0 3 1 2 1 3 2 50 14 1 0 15 1 10 7 0 10 1 0 38 0 9 0 7 8 9 7 1 0 38 11 1 6 12 1 1 3 6 1 1 0 38 0 2 13 4 2 1 0 35 0 13 4 4 13 1 0 35 0 13 13 4 1 0 36 5 1 4 13 4 1 0 33 10 
ELSE[ ]\011/* Else */
MPPEM[ ]\011/* MeasurePixelPerEm */
PUSHB[ ]\011/* 1 value pushed */
232 
LT[ ]\011/* LessThan */
IF[ ]\011/* If */
NPUSHB[ ]\011/* 101 values pushed */
66 60 2 10 0 32 22 2 4 13 2 30 0 8 7 6 7 8 6 50 0 3 12 2 12 3 2 50 14 1 0 15 1 10 7 0 10 1 0 38 0 9 0 7 8 9 7 1 0 38 0 1 12 6 1 1 0 35 11 1 6 0 12 3 6 12 1 0 38 0 2 13 4 2 1 0 35 0 13 4 4 13 1 0 35 0 13 13 4 1 0 36 5 1 4 13 4 1 0 33 11 
ELSE[ ]\011/* Else */
NPUSHB[ ]\011/* 103 values pushed */
66 60 2 10 0 32 22 2 5 13 2 30 0 8 7 6 7 8 6 50 0 3 12 2 12 3 2 50 14 1 0 15 1 10 7 0 10 1 0 38 0 9 0 7 8 9 7 1 0 38 0 11 0 1 12 11 1 1 0 38 0 6 0 12 3 6 12 1 0 38 0 2 13 4 2 1 0 35 0 13 0 5 4 13 5 1 0 38 0 2 2 4 1 0 36 0 4 2 4 1 0 33 11 
EIF[ ]\011/* EndIf */
EIF[ ]\011/* EndIf */
EIF[ ]\011/* EndIf */
EIF[ ]\011/* EndIf */
EIF[ ]\011/* EndIf */
EIF[ ]\011/* EndIf */
PUSHB[ ]\011/* 1 value pushed */
56 
CALL[ ]\011/* CallFunction */";
};
width = 1668;
}
);
note = ae;
unicode = 00E6;
},
{
glyphname = b;
layers = (
{
layerId = "0F82F74C-23B9-402A-A6A2-E1A5FCDC2DA6";
paths = (
{
closed = 1;
nodes = (
"326 0 LINE SMOOTH",
"366 0 OFFCURVE",
"390.667 13.333 OFFCURVE",
"400 56 CURVE SMOOTH",
"411 108 LINE",
"479.59 30.836 OFFCURVE",
"547.144 -16 OFFCURVE",
"666 -16 CURVE SMOOTH",
"798 -16 OFFCURVE",
"908.5 41.667 OFFCURVE",
"986.5 139 CURVE SMOOTH",
"1064.5 236.333 OFFCURVE",
"1110 371 OFFCURVE",
"1110 527 CURVE SMOOTH",
"1110 693.667 OFFCURVE",
"1069.667 825.5 OFFCURVE",
"1003 915.5 CURVE SMOOTH",
"936.333 1005.5 OFFCURVE",
"842 1053 OFFCURVE",
"734 1053 CURVE SMOOTH",
"602 1053 OFFCURVE",
"507.333 1003 OFFCURVE",
"430 927 CURVE",
"430 1497 LINE",
"120 1497 LINE",
"120 0 LINE"
);
},
{
closed = 1;
nodes = (
"675.333 820 OFFCURVE",
"715.833 801.5 OFFCURVE",
"744.5 755.5 CURVE SMOOTH",
"773.167 709.5 OFFCURVE",
"790 636.333 OFFCURVE",
"790 527 CURVE SMOOTH",
"790 412.333 OFFCURVE",
"768.833 333.5 OFFCURVE",
"733.5 283.5 CURVE SMOOTH",
"698.167 233.5 OFFCURVE",
"649.333 212 OFFCURVE",
"592 212 CURVE SMOOTH",
"532 212 OFFCURVE",
"476.667 230 OFFCURVE",
"430 282 CURVE",
"430 722 LINE",
"483.689 786.427 OFFCURVE",
"535.896 820 OFFCURVE",
"626 820 CURVE SMOOTH"
);
}
);
userData = {
assembly = "NPUSHB[ ]\011/* 22 values pushed */
27 26 0 0 36 34 26 44 27 44 0 25 0 24 17 15 7 5 2 1 8 7 
CALL[ ]\011/* CallFunction */
MPPEM[ ]\011/* MeasurePixelPerEm */
PUSHB[ ]\011/* 1 value pushed */
30 
LT[ ]\011/* LessThan */
IF[ ]\011/* If */
NPUSHB[ ]\011/* 49 values pushed */
3 1 4 1 32 31 2 5 4 21 1 2 5 3 30 0 0 0 13 31 7 1 4 4 1 1 0 36 0 1 1 20 31 0 5 5 2 1 0 36 6 3 2 2 2 18 2 32 6 
ELSE[ ]\011/* Else */
MPPEM[ ]\011/* MeasurePixelPerEm */
PUSHB[ ]\011/* 1 value pushed */
94 
LT[ ]\011/* LessThan */
IF[ ]\011/* If */
NPUSHB[ ]\011/* 53 values pushed */
3 1 4 1 32 31 2 5 4 21 1 3 5 3 30 0 0 0 13 31 7 1 4 4 1 1 0 36 0 1 1 20 31 6 1 3 3 12 31 0 5 5 2 1 0 36 0 2 2 18 2 32 7 
ELSE[ ]\011/* Else */
MPPEM[ ]\011/* MeasurePixelPerEm */
PUSHB[ ]\011/* 1 value pushed */
252 
LT[ ]\011/* LessThan */
IF[ ]\011/* If */
NPUSHB[ ]\011/* 50 values pushed */
3 1 4 1 32 31 2 5 4 21 1 3 5 3 30 0 1 7 1 4 5 1 4 1 0 38 0 5 0 2 5 2 1 0 37 6 1 3 3 0 0 0 36 0 0 0 13 3 32 5 
ELSE[ ]\011/* Else */
NPUSHB[ ]\011/* 60 values pushed */
3 1 4 1 32 31 2 5 4 21 1 3 5 3 30 0 1 7 1 4 5 1 4 1 0 38 0 5 3 2 5 1 0 35 0 0 6 1 3 2 0 3 1 0 38 0 5 5 2 1 0 36 0 2 5 2 1 0 33 6 
EIF[ ]\011/* EndIf */
EIF[ ]\011/* EndIf */
EIF[ ]\011/* EndIf */
PUSHB[ ]\011/* 1 value pushed */
56 
CALL[ ]\011/* CallFunction */";
};
width = 1160;
}
);
note = b;
unicode = 0062;
},
{
glyphname = c;
layers = (
{
layerId = "0F82F74C-23B9-402A-A6A2-E1A5FCDC2DA6";
paths = (
{
closed = 1;
nodes = (
"950 900 LINE",
"851.333 1000 OFFCURVE",
"732.667 1053 OFFCURVE",
"570 1053 CURVE SMOOTH",
"400.667 1053 OFFCURVE",
"271.833 994.833 OFFCURVE",
"184.5 899.5 CURVE SMOOTH",
"97.167 804.167 OFFCURVE",
"52 670.333 OFFCURVE",
"52 521 CURVE SMOOTH",
"52 350.333 OFFCURVE",
"107.167 215.833 OFFCURVE",
"194.5 124.5 CURVE SMOOTH",
"281.833 33.167 OFFCURVE",
"401.333 -16 OFFCURVE",
"528 -16 CURVE SMOOTH",
"598.667 -16 OFFCURVE",
"674.5 -7.5 OFFCURVE",
"748.5 18.5 CURVE SMOOTH",
"822.5 44.5 OFFCURVE",
"894 88.667 OFFCURVE",
"958 162 CURVE",
"868 273 LINE",
"855.333 291 OFFCURVE",
"836.667 300 OFFCURVE",
"812 300 CURVE SMOOTH",
"743.362 300 OFFCURVE",
"699.54 212 OFFCURVE",
"586 212 CURVE SMOOTH",
"451.333 212 OFFCURVE",
"370 322.333 OFFCURVE",
"370 521 CURVE SMOOTH",
"370 615.667 OFFCURVE",
"387 692 OFFCURVE",
"423 744 CURVE SMOOTH",
"459 796 OFFCURVE",
"514 825 OFFCURVE",
"590 825 CURVE SMOOTH",
"680.058 825 OFFCURVE",
"747.943 754 OFFCURVE",
"804 754 CURVE SMOOTH",
"836 754 OFFCURVE",
"849.333 768.333 OFFCURVE",
"868 791 CURVE"
);
}
);
userData = {
assembly = "NPUSHB[ ]\011/* 14 values pushed */
40 38 30 28 22 20 17 15 9 7 4 2 6 7 
CALL[ ]\011/* CallFunction */
MPPEM[ ]\011/* MeasurePixelPerEm */
PUSHB[ ]\011/* 1 value pushed */
94 
LT[ ]\011/* LessThan */
IF[ ]\011/* If */
NPUSHB[ ]\011/* 51 values pushed */
42 1 1 5 24 1 4 2 2 30 0 0 1 3 1 0 3 50 0 3 2 1 3 2 48 0 1 1 5 1 0 36 0 5 5 20 31 0 2 2 4 1 0 36 0 4 4 18 4 32 7 
ELSE[ ]\011/* Else */
NPUSHB[ ]\011/* 58 values pushed */
42 1 1 5 24 1 4 2 2 30 0 0 1 3 1 0 3 50 0 3 2 1 3 2 48 0 5 0 1 0 5 1 1 0 38 0 2 4 4 2 1 0 35 0 2 2 4 1 0 36 0 4 2 4 1 0 33 7 
EIF[ ]\011/* EndIf */
PUSHB[ ]\011/* 1 value pushed */
56 
CALL[ ]\011/* CallFunction */";
};
width = 972;
}
);
note = c;
unicode = 0063;
},
{
glyphname = ccedilla;
layers = (
{
layerId = "0F82F74C-23B9-402A-A6A2-E1A5FCDC2DA6";
paths = (
{
closed = 1;
nodes = (
"391.333 -210 OFFCURVE",
"380 -219 OFFCURVE",
"376 -237 CURVE",
"348 -331 LINE",
"398.667 -341.667 OFFCURVE",
"441.333 -347 OFFCURVE",
"496 -347 CURVE SMOOTH",
"642.003 -347 OFFCURVE",
"764 -293.662 OFFCURVE",
"764 -194 CURVE SMOOTH",
"764 -120.104 OFFCURVE",
"716.275 -71.607 OFFCURVE",
"609 -43 CURVE",
"618 -11 LINE",
"739.531 2.81 OFFCURVE",
"862.756 51.718 OFFCURVE",
"958 162 CURVE",
"868 273 LINE",
"855.333 291 OFFCURVE",
"836.667 300 OFFCURVE",
"812 300 CURVE SMOOTH",
"743.362 300 OFFCURVE",
"699.54 212 OFFCURVE",
"586 212 CURVE SMOOTH",
"451.333 212 OFFCURVE",
"370 322.333 OFFCURVE",
"370 521 CURVE SMOOTH",
"370 615.667 OFFCURVE",
"387 692 OFFCURVE",
"423 744 CURVE SMOOTH",
"459 796 OFFCURVE",
"514 825 OFFCURVE",
"590 825 CURVE SMOOTH",
"680.058 825 OFFCURVE",
"747.943 754 OFFCURVE",
"804 754 CURVE SMOOTH",
"836 754 OFFCURVE",
"849.333 768.333 OFFCURVE",
"868 791 CURVE",
"950 900 LINE",
"851.333 1000 OFFCURVE",
"732.667 1053 OFFCURVE",
"570 1053 CURVE SMOOTH",
"400.667 1053 OFFCURVE",
"271.833 994.833 OFFCURVE",
"184.5 899.5 CURVE SMOOTH",
"97.167 804.167 OFFCURVE",
"52 670.333 OFFCURVE",
"52 521 CURVE SMOOTH",
"52 373 OFFCURVE",
"93 253.333 OFFCURVE",
"161 164 CURVE SMOOTH",
"229 74.667 OFFCURVE",
"323 16.333 OFFCURVE",
"427 -5 CURVE",
"388 -136 LINE",
"436.667 -142.667 OFFCURVE",
"471.167 -149.5 OFFCURVE",
"491.5 -156.5 CURVE SMOOTH",
"511.833 -163.5 OFFCURVE",
"522 -174 OFFCURVE",
"522 -188 CURVE SMOOTH",
"522 -202.667 OFFCURVE",
"508.667 -218 OFFCURVE",
"474 -218 CURVE SMOOTH",
"460 -218 OFFCURVE",
"448.333 -216.667 OFFCURVE",
"439 -214 CURVE SMOOTH",
"429.667 -211.333 OFFCURVE",
"420 -210 OFFCURVE",
"410 -210 CURVE SMOOTH"
);
}
);
userData = {
assembly = "NPUSHB[ ]\011/* 22 values pushed */
1 0 65 63 46 44 41 39 33 31 28 26 21 19 4 2 0 69 1 69 9 7 
CALL[ ]\011/* CallFunction */
MPPEM[ ]\011/* MeasurePixelPerEm */
PUSHB[ ]\011/* 1 value pushed */
54 
LT[ ]\011/* LessThan */
IF[ ]\011/* If */
NPUSHB[ ]\011/* 67 values pushed */
23 1 4 2 54 48 10 9 4 0 5 67 1 7 0 3 30 0 3 4 6 4 3 6 50 0 6 5 4 6 5 48 0 5 0 4 5 0 48 0 4 4 2 1 0 36 0 2 2 20 31 1 8 2 0 0 7 1 2 36 0 7 7 22 7 32 8 
ELSE[ ]\011/* Else */
MPPEM[ ]\011/* MeasurePixelPerEm */
PUSHB[ ]\011/* 1 value pushed */
58 
LT[ ]\011/* LessThan */
IF[ ]\011/* If */
NPUSHB[ ]\011/* 64 values pushed */
23 1 4 2 54 48 10 9 4 0 5 67 1 7 0 3 30 0 3 4 6 4 3 6 50 0 6 5 4 6 5 48 0 5 0 4 5 0 48 1 8 2 0 0 7 0 7 1 2 37 0 4 4 2 1 0 36 0 2 2 20 4 32 7 
ELSE[ ]\011/* Else */
MPPEM[ ]\011/* MeasurePixelPerEm */
PUSHB[ ]\011/* 1 value pushed */
94 
LT[ ]\011/* LessThan */
IF[ ]\011/* If */
NPUSHB[ ]\011/* 70 values pushed */
23 1 4 2 54 48 10 9 4 0 5 67 1 7 1 3 30 0 3 4 6 4 3 6 50 0 6 5 4 6 5 48 0 5 0 4 5 0 48 8 1 0 1 4 0 1 48 0 1 0 7 1 7 1 2 37 0 4 4 2 1 0 36 0 2 2 20 4 32 8 
ELSE[ ]\011/* Else */
NPUSHB[ ]\011/* 80 values pushed */
23 1 4 2 54 48 10 9 4 0 5 67 1 7 1 3 30 0 3 4 6 4 3 6 50 0 6 5 4 6 5 48 0 5 0 4 5 0 48 8 1 0 1 4 0 1 48 0 2 0 4 3 2 4 1 0 38 0 1 7 7 1 1 0 35 0 1 1 7 1 2 36 0 7 1 7 1 2 33 9 
EIF[ ]\011/* EndIf */
EIF[ ]\011/* EndIf */
EIF[ ]\011/* EndIf */
PUSHB[ ]\011/* 1 value pushed */
56 
CALL[ ]\011/* CallFunction */";
};
width = 972;
}
);
note = ccedilla;
unicode = 00E7;
},
{
glyphname = d;
layers = (
{
layerId = "0F82F74C-23B9-402A-A6A2-E1A5FCDC2DA6";
paths = (
{
closed = 1;
nodes = (
"1040 0 LINE",
"1040 1497 LINE",
"730 1497 LINE",
"730 972 LINE",
"670 1022.667 OFFCURVE",
"600.667 1057 OFFCURVE",
"494 1057 CURVE SMOOTH",
"362 1057 OFFCURVE",
"250.5 999.167 OFFCURVE",
"172.5 902.5 CURVE SMOOTH",
"94.5 805.833 OFFCURVE",
"50 669.667 OFFCURVE",
"50 515 CURVE SMOOTH",
"50 347 OFFCURVE",
"90.333 214.667 OFFCURVE",
"157 124 CURVE SMOOTH",
"223.667 33.333 OFFCURVE",
"318 -16 OFFCURVE",
"426 -16 CURVE SMOOTH",
"563.992 -16 OFFCURVE",
"662.715 40.213 OFFCURVE",
"748 131 CURVE",
"772 52 LINE SMOOTH",
"782.667 17.333 OFFCURVE",
"809.333 0 OFFCURVE",
"848 0 CURVE SMOOTH"
);
},
{
closed = 1;
nodes = (
"484.667 222 OFFCURVE",
"444.167 240.5 OFFCURVE",
"415.5 286.5 CURVE SMOOTH",
"386.833 332.5 OFFCURVE",
"370 405.667 OFFCURVE",
"370 515 CURVE SMOOTH",
"370 628.333 OFFCURVE",
"391.167 707.5 OFFCURVE",
"426.5 757.5 CURVE SMOOTH",
"461.833 807.5 OFFCURVE",
"510.667 829 OFFCURVE",
"568 829 CURVE SMOOTH",
"628 829 OFFCURVE",
"682 811 OFFCURVE",
"730 759 CURVE",
"730 319 LINE",
"677.184 255.621 OFFCURVE",
"621.432 222 OFFCURVE",
"534 222 CURVE SMOOTH"
);
}
);
userData = {
assembly = "NPUSHB[ ]\011/* 22 values pushed */
27 26 1 0 36 34 26 44 27 44 24 23 20 18 10 8 0 25 1 25 8 7 
CALL[ ]\011/* CallFunction */
MPPEM[ ]\011/* MeasurePixelPerEm */
PUSHB[ ]\011/* 1 value pushed */
30 
LT[ ]\011/* LessThan */
IF[ ]\011/* If */
NPUSHB[ ]\011/* 50 values pushed */
22 1 5 2 32 31 2 4 5 4 1 0 4 3 30 7 1 4 5 0 5 4 0 50 0 3 3 13 31 0 5 5 2 1 0 36 0 2 2 20 31 1 6 2 0 0 12 0 32 6 
ELSE[ ]\011/* Else */
MPPEM[ ]\011/* MeasurePixelPerEm */
PUSHB[ ]\011/* 1 value pushed */
94 
LT[ ]\011/* LessThan */
IF[ ]\011/* If */
NPUSHB[ ]\011/* 54 values pushed */
22 1 5 2 32 31 2 4 5 4 1 0 4 3 30 7 1 4 5 0 5 4 0 50 0 3 3 13 31 0 5 5 2 1 0 36 0 2 2 20 31 6 1 0 0 12 31 0 1 1 18 1 32 7 
ELSE[ ]\011/* Else */
MPPEM[ ]\011/* MeasurePixelPerEm */
PUSHB[ ]\011/* 1 value pushed */
252 
LT[ ]\011/* LessThan */
IF[ ]\011/* If */
NPUSHB[ ]\011/* 54 values pushed */
22 1 5 2 32 31 2 4 5 4 1 0 4 3 30 7 1 4 5 0 5 4 0 50 0 1 0 1 53 0 2 0 5 4 2 5 1 0 38 6 1 0 0 3 0 0 36 0 3 3 13 0 32 6 
ELSE[ ]\011/* Else */
NPUSHB[ ]\011/* 63 values pushed */
22 1 5 2 32 31 2 4 5 4 1 0 4 3 30 7 1 4 5 0 5 4 0 50 0 1 0 1 53 0 3 2 0 3 0 0 35 0 2 0 5 4 2 5 1 0 38 0 3 3 0 1 0 36 6 1 0 3 0 1 0 33 7 
EIF[ ]\011/* EndIf */
EIF[ ]\011/* EndIf */
EIF[ ]\011/* EndIf */
PUSHB[ ]\011/* 1 value pushed */
56 
CALL[ ]\011/* CallFunction */";
};
width = 1160;
}
);
note = d;
unicode = 0064;
},
{
glyphname = eth;
layers = (
{
layerId = "0F82F74C-23B9-402A-A6A2-E1A5FCDC2DA6";
paths = (
{
closed = 1;
nodes = (
"416 963 LINE",
"628 1087 LINE",
"729.333 1019 OFFCURVE",
"783.333 937.333 OFFCURVE",
"810 828 CURVE",
"734 896 OFFCURVE",
"642 935 OFFCURVE",
"522 935 CURVE SMOOTH",
"383.333 935 OFFCURVE",
"266.5 882 OFFCURVE",
"184.5 798 CURVE SMOOTH",
"102.5 714 OFFCURVE",
"56 600 OFFCURVE",
"56 480 CURVE SMOOTH",
"56 324 OFFCURVE",
"110.333 200.333 OFFCURVE",
"201 115 CURVE SMOOTH",
"291.667 29.667 OFFCURVE",
"418.667 -16 OFFCURVE",
"564 -16 CURVE SMOOTH",
"734.667 -16 OFFCURVE",
"869.167 40.167 OFFCURVE",
"960.5 147.5 CURVE SMOOTH",
"1051.833 254.833 OFFCURVE",
"1100 411 OFFCURVE",
"1100 611 CURVE SMOOTH",
"1100 871 OFFCURVE",
"1011.333 1064.667 OFFCURVE",
"866 1202 CURVE",
"932 1235 LINE SMOOTH",
"954.667 1245.667 OFFCURVE",
"967 1266.333 OFFCURVE",
"967 1289 CURVE SMOOTH",
"967 1301.667 OFFCURVE",
"963.333 1313.667 OFFCURVE",
"956 1325 CURVE SMOOTH",
"894 1423 LINE",
"711 1316 LINE",
"597.667 1381.333 OFFCURVE",
"467.333 1423.333 OFFCURVE",
"326 1446 CURVE",
"290 1343 LINE SMOOTH",
"283.333 1323.667 OFFCURVE",
"280 1306 OFFCURVE",
"280 1290 CURVE SMOOTH",
"280 1242 OFFCURVE",
"308.667 1213.667 OFFCURVE",
"350 1203 CURVE SMOOTH",
"379.333 1195 OFFCURVE",
"405.333 1186.333 OFFCURVE",
"432 1177 CURVE",
"386 1155 LINE SMOOTH",
"359.333 1143 OFFCURVE",
"345 1121.667 OFFCURVE",
"345 1099 CURVE SMOOTH",
"345 1086.333 OFFCURVE",
"349.333 1073 OFFCURVE",
"358 1059 CURVE SMOOTH"
);
},
{
closed = 1;
nodes = (
"445.535 212 OFFCURVE",
"364 314.873 OFFCURVE",
"364 478 CURVE SMOOTH",
"364 608.898 OFFCURVE",
"446.018 707 OFFCURVE",
"586 707 CURVE SMOOTH",
"699.333 707 OFFCURVE",
"768.333 645 OFFCURVE",
"807 561 CURVE",
"803 425 OFFCURVE",
"774.833 337.167 OFFCURVE",
"731.5 284.5 CURVE SMOOTH",
"688.167 231.833 OFFCURVE",
"632 212 OFFCURVE",
"572 212 CURVE SMOOTH"
);
}
);
userData = {
assembly = "NPUSHB[ ]\011/* 14 values pushed */
53 52 61 59 52 69 53 69 45 43 35 33 5 7 
CALL[ ]\011/* CallFunction */
MPPEM[ ]\011/* MeasurePixelPerEm */
PUSHB[ ]\011/* 1 value pushed */
94 
LT[ ]\011/* LessThan */
IF[ ]\011/* If */
NPUSHB[ ]\011/* 45 values pushed */
47 1 3 1 57 1 2 3 2 30 51 50 26 19 18 15 6 7 1 28 0 1 0 3 2 1 3 1 0 38 4 1 2 2 0 1 0 36 0 0 0 18 0 32 5 
ELSE[ ]\011/* Else */
NPUSHB[ ]\011/* 55 values pushed */
47 1 3 1 57 1 2 3 2 30 51 50 26 19 18 15 6 7 1 28 0 1 0 3 2 1 3 1 0 38 4 1 2 0 0 2 1 0 35 4 1 2 2 0 1 0 36 0 0 2 0 1 0 33 6 
EIF[ ]\011/* EndIf */
PUSHB[ ]\011/* 1 value pushed */
56 
CALL[ ]\011/* CallFunction */";
};
width = 1162;
}
);
note = eth;
unicode = 00F0;
},
{
glyphname = e;
layers = (
{
layerId = "0F82F74C-23B9-402A-A6A2-E1A5FCDC2DA6";
paths = (
{
closed = 1;
nodes = (
"405.333 1053 OFFCURVE",
"278.167 994.333 OFFCURVE",
"189.5 901 CURVE SMOOTH",
"100.833 807.667 OFFCURVE",
"52 679.667 OFFCURVE",
"52 541 CURVE SMOOTH",
"52 357 OFFCURVE",
"111.167 218.333 OFFCURVE",
"206.5 125 CURVE SMOOTH",
"301.833 31.667 OFFCURVE",
"432.667 -16 OFFCURVE",
"578 -16 CURVE SMOOTH",
"648.667 -16 OFFCURVE",
"728.5 -7.5 OFFCURVE",
"806.5 18.5 CURVE SMOOTH",
"884.5 44.5 OFFCURVE",
"960 88.667 OFFCURVE",
"1024 162 CURVE",
"934 273 LINE",
"921.333 291 OFFCURVE",
"902.667 300 OFFCURVE",
"878 300 CURVE SMOOTH",
"804.786 300 OFFCURVE",
"726.958 216 OFFCURVE",
"606 216 CURVE SMOOTH",
"471.333 216 OFFCURVE",
"382 289.667 OFFCURVE",
"362 463 CURVE",
"960 463 LINE SMOOTH",
"1020.234 463 OFFCURVE",
"1030 493.744 OFFCURVE",
"1030 578 CURVE SMOOTH",
"1030 727.333 OFFCURVE",
"981.5 846.667 OFFCURVE",
"899.5 928 CURVE SMOOTH",
"817.5 1009.333 OFFCURVE",
"701.333 1053 OFFCURVE",
"564 1053 CURVE SMOOTH"
);
},
{
closed = 1;
nodes = (
"696.731 839 OFFCURVE",
"752 749.623 OFFCURVE",
"752 643 CURVE",
"365 643 LINE",
"386.333 769.667 OFFCURVE",
"451.333 839 OFFCURVE",
"570 839 CURVE SMOOTH"
);
}
);
userData = {
assembly = "NPUSHB[ ]\011/* 24 values pushed */
38 37 1 0 41 40 37 45 38 45 28 26 20 18 15 13 11 9 0 36 1 36 9 7 
CALL[ ]\011/* CallFunction */
MPPEM[ ]\011/* MeasurePixelPerEm */
PUSHB[ ]\011/* 1 value pushed */
94 
LT[ ]\011/* LessThan */
IF[ ]\011/* If */
NPUSHB[ ]\011/* 52 values pushed */
22 1 4 2 1 30 0 3 1 2 1 3 2 50 0 6 0 1 3 6 1 1 0 38 8 1 5 5 0 1 0 36 7 1 0 0 20 31 0 2 2 4 1 0 36 0 4 4 18 4 32 7 
ELSE[ ]\011/* Else */
NPUSHB[ ]\011/* 59 values pushed */
22 1 4 2 1 30 0 3 1 2 1 3 2 50 7 1 0 8 1 5 6 0 5 1 0 38 0 6 0 1 3 6 1 1 0 38 0 2 4 4 2 1 0 35 0 2 2 4 1 0 36 0 4 2 4 1 0 33 7 
EIF[ ]\011/* EndIf */
PUSHB[ ]\011/* 1 value pushed */
56 
CALL[ ]\011/* CallFunction */";
};
width = 1088;
}
);
note = e;
unicode = 0065;
},
{
glyphname = eogonek;
layers = (
{
layerId = "0F82F74C-23B9-402A-A6A2-E1A5FCDC2DA6";
paths = (
{
closed = 1;
nodes = (
"736.715 -167 OFFCURVE",
"705.735 -175 OFFCURVE",
"686 -175 CURVE SMOOTH",
"650 -175 OFFCURVE",
"632 -154 OFFCURVE",
"632 -122 CURVE SMOOTH",
"632 -72.667 OFFCURVE",
"670 -32 OFFCURVE",
"718 -4 CURVE",
"824.667 14.667 OFFCURVE",
"936 60.667 OFFCURVE",
"1024 162 CURVE",
"934 273 LINE",
"921.333 291 OFFCURVE",
"902.667 300 OFFCURVE",
"878 300 CURVE SMOOTH",
"804.786 300 OFFCURVE",
"726.958 216 OFFCURVE",
"606 216 CURVE SMOOTH",
"471.333 216 OFFCURVE",
"382 289.667 OFFCURVE",
"362 463 CURVE",
"960 463 LINE SMOOTH",
"1020.234 463 OFFCURVE",
"1030 493.744 OFFCURVE",
"1030 578 CURVE SMOOTH",
"1030 727.333 OFFCURVE",
"981.5 846.667 OFFCURVE",
"899.5 928 CURVE SMOOTH",
"817.5 1009.333 OFFCURVE",
"701.333 1053 OFFCURVE",
"564 1053 CURVE SMOOTH",
"405.333 1053 OFFCURVE",
"278.167 994.333 OFFCURVE",
"189.5 901 CURVE SMOOTH",
"100.833 807.667 OFFCURVE",
"52 679.667 OFFCURVE",
"52 541 CURVE SMOOTH",
"52 369 OFFCURVE",
"103.833 236.167 OFFCURVE",
"188.5 143.5 CURVE SMOOTH",
"273.167 50.833 OFFCURVE",
"391 -2.333 OFFCURVE",
"523 -13 CURVE",
"439 -69 OFFCURVE",
"402 -134 OFFCURVE",
"402 -198 CURVE SMOOTH",
"402 -284.667 OFFCURVE",
"477.333 -347 OFFCURVE",
"620 -347 CURVE SMOOTH",
"698.667 -347 OFFCURVE",
"771.333 -325 OFFCURVE",
"818 -297 CURVE",
"772 -186 LINE",
"767.333 -173.333 OFFCURVE",
"758 -167 OFFCURVE",
"744 -167 CURVE SMOOTH"
);
},
{
closed = 1;
nodes = (
"696.731 839 OFFCURVE",
"752 749.623 OFFCURVE",
"752 643 CURVE",
"365 643 LINE",
"386.333 769.667 OFFCURVE",
"451.333 839 OFFCURVE",
"570 839 CURVE SMOOTH"
);
}
);
userData = {
assembly = "NPUSHB[ ]\011/* 28 values pushed */
59 58 1 0 62 61 58 66 59 66 54 52 42 40 37 35 33 31 23 21 7 5 0 57 1 57 11 7 
CALL[ ]\011/* CallFunction */
MPPEM[ ]\011/* MeasurePixelPerEm */
PUSHB[ ]\011/* 1 value pushed */
54 
LT[ ]\011/* LessThan */
IF[ ]\011/* If */
NPUSHB[ ]\011/* 65 values pushed */
44 12 2 0 4 3 1 1 0 2 30 0 5 3 4 3 5 4 50 0 4 0 3 4 0 48 0 8 0 3 5 8 3 1 0 38 10 1 7 7 2 1 0 36 0 2 2 20 31 6 9 2 0 0 1 1 2 36 0 1 1 22 1 32 8 
ELSE[ ]\011/* Else */
MPPEM[ ]\011/* MeasurePixelPerEm */
PUSHB[ ]\011/* 1 value pushed */
58 
LT[ ]\011/* LessThan */
IF[ ]\011/* If */
NPUSHB[ ]\011/* 62 values pushed */
44 12 2 0 4 3 1 1 0 2 30 0 5 3 4 3 5 4 50 0 4 0 3 4 0 48 0 8 0 3 5 8 3 1 0 38 6 9 2 0 0 1 0 1 1 2 37 10 1 7 7 2 1 0 36 0 2 2 20 7 32 7 
ELSE[ ]\011/* Else */
MPPEM[ ]\011/* MeasurePixelPerEm */
PUSHB[ ]\011/* 1 value pushed */
94 
LT[ ]\011/* LessThan */
IF[ ]\011/* If */
NPUSHB[ ]\011/* 68 values pushed */
44 12 2 0 4 3 1 1 6 2 30 0 5 3 4 3 5 4 50 0 4 0 3 4 0 48 9 1 0 6 3 0 6 48 0 8 0 3 5 8 3 1 0 38 0 6 0 1 6 1 1 2 37 10 1 7 7 2 1 0 36 0 2 2 20 7 32 8 
ELSE[ ]\011/* Else */
NPUSHB[ ]\011/* 78 values pushed */
44 12 2 0 4 3 1 1 6 2 30 0 5 3 4 3 5 4 50 0 4 0 3 4 0 48 9 1 0 6 3 0 6 48 0 2 10 1 7 8 2 7 1 0 38 0 8 0 3 5 8 3 1 0 38 0 6 1 1 6 1 0 35 0 6 6 1 1 2 36 0 1 6 1 1 2 33 9 
EIF[ ]\011/* EndIf */
EIF[ ]\011/* EndIf */
EIF[ ]\011/* EndIf */
PUSHB[ ]\011/* 1 value pushed */
56 
CALL[ ]\011/* CallFunction */";
};
width = 1088;
}
);
note = eogonek;
unicode = 0119;
},
{
glyphname = f;
layers = (
{
layerId = "0F82F74C-23B9-402A-A6A2-E1A5FCDC2DA6";
paths = (
{
closed = 1;
nodes = (
"476 0 LINE",
"476 823 LINE",
"710 823 LINE",
"710 1035 LINE",
"466 1035 LINE",
"466 1084 LINE SMOOTH",
"466 1215.487 OFFCURVE",
"520.829 1259 OFFCURVE",
"636 1259 CURVE SMOOTH",
"672.748 1259 OFFCURVE",
"711.506 1275.098 OFFCURVE",
"714 1315 CURVE SMOOTH",
"720 1466 LINE",
"673.333 1479.333 OFFCURVE",
"632.667 1485 OFFCURVE",
"582 1485 CURVE SMOOTH",
"451.333 1485 OFFCURVE",
"347.833 1446 OFFCURVE",
"276.5 1378 CURVE SMOOTH",
"205.167 1310 OFFCURVE",
"166 1212.667 OFFCURVE",
"166 1094 CURVE SMOOTH",
"166 1035 LINE",
"20 1035 LINE",
"20 913 LINE SMOOTH",
"20 869 OFFCURVE",
"51.333 848.667 OFFCURVE",
"98 838 CURVE SMOOTH",
"166 824 LINE",
"166 0 LINE"
);
}
);
userData = {
assembly = "NPUSHB[ ]\011/* 18 values pushed */
0 0 0 32 0 32 31 30 29 28 23 21 14 12 7 6 7 7 
CALL[ ]\011/* CallFunction */
MPPEM[ ]\011/* MeasurePixelPerEm */
PUSHB[ ]\011/* 1 value pushed */
83 
LT[ ]\011/* LessThan */
IF[ ]\011/* If */
NPUSHB[ ]\011/* 43 values pushed */
16 1 2 1 1 1 4 0 2 30 0 2 2 1 1 0 36 0 1 1 17 31 0 4 4 0 0 0 36 3 1 0 0 14 31 6 1 5 5 12 5 32 6 
ELSE[ ]\011/* Else */
MPPEM[ ]\011/* MeasurePixelPerEm */
PUSHB[ ]\011/* 1 value pushed */
94 
LT[ ]\011/* LessThan */
IF[ ]\011/* If */
NPUSHB[ ]\011/* 41 values pushed */
16 1 2 1 1 1 4 0 2 30 0 1 0 2 0 1 2 1 0 38 0 4 4 0 0 0 36 3 1 0 0 14 31 6 1 5 5 12 5 32 5 
ELSE[ ]\011/* Else */
MPPEM[ ]\011/* MeasurePixelPerEm */
PUSHB[ ]\011/* 1 value pushed */
232 
LT[ ]\011/* LessThan */
IF[ ]\011/* If */
NPUSHB[ ]\011/* 51 values pushed */
16 1 2 1 1 1 4 0 2 30 6 1 5 4 5 53 0 1 0 2 0 1 2 1 0 38 3 1 0 4 4 0 0 0 35 3 1 0 0 4 0 0 36 0 4 0 4 0 0 33 6 
ELSE[ ]\011/* Else */
NPUSHB[ ]\011/* 57 values pushed */
16 1 2 1 1 1 4 3 2 30 0 0 2 3 2 0 3 50 6 1 5 4 5 53 0 1 0 2 0 1 2 1 0 38 0 3 4 4 3 0 0 35 0 3 3 4 0 0 36 0 4 3 4 0 0 33 7 
EIF[ ]\011/* EndIf */
EIF[ ]\011/* EndIf */
EIF[ ]\011/* EndIf */
PUSHB[ ]\011/* 1 value pushed */
56 
CALL[ ]\011/* CallFunction */";
};
width = 724;
}
);
note = f;
unicode = 0066;
},
{
glyphname = g;
layers = (
{
layerId = "0F82F74C-23B9-402A-A6A2-E1A5FCDC2DA6";
paths = (
{
closed = 1;
nodes = (
"364.667 1055 OFFCURVE",
"258.167 1022.5 OFFCURVE",
"181.5 964.5 CURVE SMOOTH",
"104.833 906.5 OFFCURVE",
"58 822 OFFCURVE",
"58 718 CURVE SMOOTH",
"58 592.667 OFFCURVE",
"124 496.333 OFFCURVE",
"232 439 CURVE",
"143.99 397.44 OFFCURVE",
"94 324.734 OFFCURVE",
"94 256 CURVE SMOOTH",
"94 182.667 OFFCURVE",
"124.333 136.667 OFFCURVE",
"171 106 CURVE",
"73.667 70 OFFCURVE",
"14 7 OFFCURVE",
"14 -85 CURVE SMOOTH",
"14 -155.667 OFFCURVE",
"50.5 -223.5 OFFCURVE",
"128.5 -273.5 CURVE SMOOTH",
"206.5 -323.5 OFFCURVE",
"323.333 -357 OFFCURVE",
"486 -357 CURVE SMOOTH",
"651.333 -357 OFFCURVE",
"780 -311.333 OFFCURVE",
"868 -242 CURVE SMOOTH",
"956 -172.667 OFFCURVE",
"1002 -79.333 OFFCURVE",
"1002 14 CURVE SMOOTH",
"1002 114 OFFCURVE",
"962 176.333 OFFCURVE",
"902 215 CURVE SMOOTH",
"842 253.667 OFFCURVE",
"761 268.167 OFFCURVE",
"681 275.5 CURVE SMOOTH",
"548.604 287.636 OFFCURVE",
"360 271.623 OFFCURVE",
"360 342 CURVE SMOOTH",
"360 359.333 OFFCURVE",
"371.333 374.667 OFFCURVE",
"394 388 CURVE",
"422.667 384 OFFCURVE",
"453.333 382 OFFCURVE",
"486 382 CURVE SMOOTH",
"603.333 382 OFFCURVE",
"709.167 414.5 OFFCURVE",
"784.5 472.5 CURVE SMOOTH",
"859.833 530.5 OFFCURVE",
"906 614 OFFCURVE",
"906 718 CURVE SMOOTH",
"906 750 OFFCURVE",
"901.333 781 OFFCURVE",
"892 811 CURVE",
"968 828 LINE SMOOTH",
"1014.667 838.667 OFFCURVE",
"1032 857.333 OFFCURVE",
"1032 892 CURVE SMOOTH",
"1032 1005 LINE",
"719 1005 LINE",
"652.333 1037 OFFCURVE",
"574 1055 OFFCURVE",
"486 1055 CURVE SMOOTH"
);
},
{
closed = 1;
nodes = (
"716 -113.014 OFFCURVE",
"643.074 -144 OFFCURVE",
"492 -144 CURVE SMOOTH",
"352.016 -144 OFFCURVE",
"282 -115.255 OFFCURVE",
"282 -45 CURVE SMOOTH",
"282 -3.667 OFFCURVE",
"309.333 28.333 OFFCURVE",
"348 55 CURVE",
"376.667 51.667 OFFCURVE",
"405.667 49.5 OFFCURVE",
"435 48.5 CURVE SMOOTH",
"493.667 46.5 OFFCURVE",
"549.167 44.333 OFFCURVE",
"596.5 39 CURVE SMOOTH",
"661.579 31.667 OFFCURVE",
"716 12.237 OFFCURVE",
"716 -38 CURVE SMOOTH"
);
},
{
closed = 1;
nodes = (
"389.396 573 OFFCURVE",
"340 628.016 OFFCURVE",
"340 711 CURVE SMOOTH",
"340 795 OFFCURVE",
"383.333 846 OFFCURVE",
"486 846 CURVE SMOOTH",
"588.667 846 OFFCURVE",
"632 795 OFFCURVE",
"632 711 CURVE SMOOTH",
"632 629.667 OFFCURVE",
"588.667 573 OFFCURVE",
"486 573 CURVE SMOOTH"
);
}
);
userData = {
assembly = "NPUSHB[ ]\011/* 28 values pushed */
79 78 1 0 85 83 78 91 79 91 74 72 64 62 35 33 24 23 17 15 4 3 0 57 1 57 11 7 
CALL[ ]\011/* CallFunction */
MPPEM[ ]\011/* MeasurePixelPerEm */
PUSHB[ ]\011/* 1 value pushed */
22 
LT[ ]\011/* LessThan */
IF[ ]\011/* If */
NPUSHB[ ]\011/* 71 values pushed */
9 1 7 8 50 18 2 2 7 65 42 2 5 3 3 30 10 1 7 0 2 3 7 2 1 0 38 0 1 1 14 31 0 8 8 0 1 0 36 9 1 0 0 20 31 0 3 3 5 1 0 36 0 5 5 12 31 0 6 6 4 1 0 36 0 4 4 22 4 32 9 
ELSE[ ]\011/* Else */
MPPEM[ ]\011/* MeasurePixelPerEm */
PUSHB[ ]\011/* 1 value pushed */
32 
LT[ ]\011/* LessThan */
IF[ ]\011/* If */
NPUSHB[ ]\011/* 69 values pushed */
9 1 7 8 50 18 2 2 7 65 42 2 5 3 3 30 10 1 7 0 2 3 7 2 1 0 38 0 3 0 5 6 3 5 1 0 38 0 1 1 14 31 0 8 8 0 1 0 36 9 1 0 0 20 31 0 6 6 4 1 0 36 0 4 4 22 4 32 8 
ELSE[ ]\011/* Else */
MPPEM[ ]\011/* MeasurePixelPerEm */
PUSHB[ ]\011/* 1 value pushed */
54 
LT[ ]\011/* LessThan */
IF[ ]\011/* If */
NPUSHB[ ]\011/* 72 values pushed */
9 1 7 8 50 18 2 2 7 65 42 2 5 3 3 30 0 1 0 8 0 1 8 50 10 1 7 0 2 3 7 2 1 0 38 0 3 0 5 6 3 5 1 0 38 0 8 8 0 1 0 36 9 1 0 0 20 31 0 6 6 4 1 0 36 0 4 4 22 4 32 8 
ELSE[ ]\011/* Else */
MPPEM[ ]\011/* MeasurePixelPerEm */
PUSHB[ ]\011/* 1 value pushed */
94 
LT[ ]\011/* LessThan */
IF[ ]\011/* If */
NPUSHB[ ]\011/* 69 values pushed */
9 1 7 8 50 18 2 2 7 65 42 2 5 3 3 30 0 1 0 8 0 1 8 50 10 1 7 0 2 3 7 2 1 0 38 0 3 0 5 6 3 5 1 0 38 0 6 0 4 6 4 1 0 37 0 8 8 0 1 0 36 9 1 0 0 20 8 32 7 
ELSE[ ]\011/* Else */
NPUSHB[ ]\011/* 79 values pushed */
9 1 7 8 50 18 2 2 7 65 42 2 5 3 3 30 0 1 0 8 0 1 8 50 9 1 0 0 8 7 0 8 1 0 38 10 1 7 0 2 3 7 2 1 0 38 0 3 0 5 6 3 5 1 0 38 0 6 4 4 6 1 0 35 0 6 6 4 1 0 36 0 4 6 4 1 0 33 8 
EIF[ ]\011/* EndIf */
EIF[ ]\011/* EndIf */
EIF[ ]\011/* EndIf */
EIF[ ]\011/* EndIf */
PUSHB[ ]\011/* 1 value pushed */
56 
CALL[ ]\011/* CallFunction */";
};
width = 1046;
}
);
note = g;
unicode = 0067;
},
{
glyphname = h;
layers = (
{
layerId = "0F82F74C-23B9-402A-A6A2-E1A5FCDC2DA6";
paths = (
{
closed = 1;
nodes = (
"430 0 LINE",
"430 739 LINE",
"484.667 788.333 OFFCURVE",
"544 820 OFFCURVE",
"612 820 CURVE SMOOTH",
"702.667 820 OFFCURVE",
"750 760.333 OFFCURVE",
"750 659 CURVE SMOOTH",
"750 0 LINE",
"1060 0 LINE",
"1060 659 LINE SMOOTH",
"1060 772.333 OFFCURVE",
"1029 871.5 OFFCURVE",
"969 941.5 CURVE SMOOTH",
"909 1011.5 OFFCURVE",
"821.333 1053 OFFCURVE",
"708 1053 CURVE SMOOTH",
"586.667 1053 OFFCURVE",
"504.667 1010 OFFCURVE",
"430 946 CURVE",
"430 1497 LINE",
"120 1497 LINE",
"120 0 LINE"
);
}
);
userData = {
assembly = "NPUSHB[ ]\011/* 16 values pushed */
0 0 0 21 0 21 18 16 13 12 7 5 2 1 6 7 
CALL[ ]\011/* CallFunction */
MPPEM[ ]\011/* MeasurePixelPerEm */
PUSHB[ ]\011/* 1 value pushed */
94 
LT[ ]\011/* LessThan */
IF[ ]\011/* If */
NPUSHB[ ]\011/* 36 values pushed */
3 1 3 1 20 1 2 3 2 30 0 0 0 13 31 0 3 3 1 1 0 36 0 1 1 20 31 5 4 2 2 2 12 2 32 5 
ELSE[ ]\011/* Else */
MPPEM[ ]\011/* MeasurePixelPerEm */
PUSHB[ ]\011/* 1 value pushed */
252 
LT[ ]\011/* LessThan */
IF[ ]\011/* If */
NPUSHB[ ]\011/* 36 values pushed */
3 1 3 1 20 1 2 3 2 30 0 1 0 3 2 1 3 1 0 38 5 4 2 2 2 0 0 0 36 0 0 0 13 2 32 4 
ELSE[ ]\011/* Else */
MPPEM[ ]\011/* MeasurePixelPerEm */
PUSHB[ ]\011/* 1 value pushed */
232 
LT[ ]\011/* LessThan */
IF[ ]\011/* If */
NPUSHB[ ]\011/* 45 values pushed */
3 1 3 1 20 1 2 3 2 30 0 0 1 2 0 0 0 35 0 1 0 3 2 1 3 1 0 38 0 0 0 2 0 0 36 5 4 2 2 0 2 0 0 33 5 
ELSE[ ]\011/* Else */
NPUSHB[ ]\011/* 49 values pushed */
3 1 3 1 20 1 4 3 2 30 0 2 4 2 53 0 0 1 4 0 0 0 35 0 1 0 3 4 1 3 1 0 38 0 0 0 4 0 0 36 5 1 4 0 4 0 0 33 6 
EIF[ ]\011/* EndIf */
EIF[ ]\011/* EndIf */
EIF[ ]\011/* EndIf */
PUSHB[ ]\011/* 1 value pushed */
56 
CALL[ ]\011/* CallFunction */";
};
width = 1160;
}
);
note = h;
unicode = 0068;
},
{
glyphname = i;
layers = (
{
layerId = "0F82F74C-23B9-402A-A6A2-E1A5FCDC2DA6";
paths = (
{
closed = 1;
nodes = (
"130 1037 LINE",
"130 0 LINE",
"440 0 LINE",
"440 1037 LINE"
);
},
{
closed = 1;
nodes = (
"476 1422.658 OFFCURVE",
"389.15 1503 OFFCURVE",
"286 1503 CURVE SMOOTH",
"185.395 1503 OFFCURVE",
"102 1421.994 OFFCURVE",
"102 1321 CURVE SMOOTH",
"102 1223.521 OFFCURVE",
"185.646 1141 OFFCURVE",
"286 1141 CURVE SMOOTH",
"388.9 1141 OFFCURVE",
"476 1222.887 OFFCURVE",
"476 1321 CURVE SMOOTH"
);
}
);
userData = {
assembly = "NPUSHB[ ]\011/* 14 values pushed */
0 0 20 18 10 8 0 3 0 3 2 1 5 7 
CALL[ ]\011/* CallFunction */
MPPEM[ ]\011/* MeasurePixelPerEm */
PUSHB[ ]\011/* 1 value pushed */
94 
LT[ ]\011/* LessThan */
IF[ ]\011/* If */
NPUSHB[ ]\011/* 25 values pushed */
0 2 2 3 1 0 36 0 3 3 19 31 4 1 1 1 14 31 0 0 0 12 0 32 4 
ELSE[ ]\011/* Else */
MPPEM[ ]\011/* MeasurePixelPerEm */
PUSHB[ ]\011/* 1 value pushed */
252 
LT[ ]\011/* LessThan */
IF[ ]\011/* If */
NPUSHB[ ]\011/* 24 values pushed */
4 1 1 0 0 1 0 0 0 37 0 2 2 3 1 0 36 0 3 3 19 2 32 3 
ELSE[ ]\011/* Else */
NPUSHB[ ]\011/* 35 values pushed */
0 3 0 2 1 3 2 1 0 38 4 1 1 0 0 1 0 0 35 4 1 1 1 0 0 0 36 0 0 1 0 0 0 33 4 
EIF[ ]\011/* EndIf */
EIF[ ]\011/* EndIf */
PUSHB[ ]\011/* 1 value pushed */
56 
CALL[ ]\011/* CallFunction */";
};
width = 570;
}
);
note = i;
unicode = 0069;
},
{
glyphname = idotless;
layers = (
{
layerId = "0F82F74C-23B9-402A-A6A2-E1A5FCDC2DA6";
paths = (
{
closed = 1;
nodes = (
"130 1037 LINE",
"130 0 LINE",
"440 0 LINE",
"440 1037 LINE"
);
}
);
userData = {
assembly = "NPUSHB[ ]\011/* 10 values pushed */
0 0 0 3 0 3 2 1 3 7 
CALL[ ]\011/* CallFunction */
MPPEM[ ]\011/* MeasurePixelPerEm */
PUSHB[ ]\011/* 1 value pushed */
94 
LT[ ]\011/* LessThan */
IF[ ]\011/* If */
NPUSHB[ ]\011/* 13 values pushed */
2 1 1 1 14 31 0 0 0 12 0 32 2 
ELSE[ ]\011/* Else */
NPUSHB[ ]\011/* 25 values pushed */
2 1 1 0 0 1 0 0 35 2 1 1 1 0 0 0 36 0 0 1 0 0 0 33 3 
EIF[ ]\011/* EndIf */
PUSHB[ ]\011/* 1 value pushed */
56 
CALL[ ]\011/* CallFunction */";
};
width = 570;
}
);
note = dotlessi;
unicode = 0131;
},
{
glyphname = j;
layers = (
{
layerId = "0F82F74C-23B9-402A-A6A2-E1A5FCDC2DA6";
paths = (
{
closed = 1;
nodes = (
"130 1037 LINE",
"130 -2 LINE SMOOTH",
"130 -105.212 OFFCURVE",
"106.078 -135 OFFCURVE",
"10 -135 CURVE SMOOTH",
"-38 -135 OFFCURVE",
"-49.333 -148 OFFCURVE",
"-52 -176 CURVE SMOOTH",
"-62 -339 LINE",
"-15.333 -351 OFFCURVE",
"25.333 -357 OFFCURVE",
"76 -357 CURVE SMOOTH",
"213.333 -357 OFFCURVE",
"303.833 -317.167 OFFCURVE",
"360.5 -252.5 CURVE SMOOTH",
"417.167 -187.833 OFFCURVE",
"440 -99.333 OFFCURVE",
"440 -2 CURVE SMOOTH",
"440 1037 LINE"
);
},
{
closed = 1;
nodes = (
"476 1422.658 OFFCURVE",
"389.15 1503 OFFCURVE",
"286 1503 CURVE SMOOTH",
"185.395 1503 OFFCURVE",
"102 1421.994 OFFCURVE",
"102 1321 CURVE SMOOTH",
"102 1223.521 OFFCURVE",
"185.646 1141 OFFCURVE",
"286 1141 CURVE SMOOTH",
"388.9 1141 OFFCURVE",
"476 1222.887 OFFCURVE",
"476 1321 CURVE SMOOTH"
);
}
);
userData = {
assembly = "NPUSHB[ ]\011/* 16 values pushed */
0 0 36 34 26 24 0 19 0 19 14 12 7 5 6 7 
CALL[ ]\011/* CallFunction */
MPPEM[ ]\011/* MeasurePixelPerEm */
PUSHB[ ]\011/* 1 value pushed */
54 
LT[ ]\011/* LessThan */
IF[ ]\011/* If */
NPUSHB[ ]\011/* 39 values pushed */
10 9 2 0 1 1 30 0 3 3 4 1 0 36 0 4 4 19 31 5 1 2 2 14 31 0 1 1 0 1 2 36 0 0 0 22 0 32 6 
ELSE[ ]\011/* Else */
MPPEM[ ]\011/* MeasurePixelPerEm */
PUSHB[ ]\011/* 1 value pushed */
94 
LT[ ]\011/* LessThan */
IF[ ]\011/* If */
NPUSHB[ ]\011/* 36 values pushed */
10 9 2 0 1 1 30 0 1 0 0 1 0 1 2 37 0 3 3 4 1 0 36 0 4 4 19 31 5 1 2 2 14 2 32 5 
ELSE[ ]\011/* Else */
MPPEM[ ]\011/* MeasurePixelPerEm */
PUSHB[ ]\011/* 1 value pushed */
252 
LT[ ]\011/* LessThan */
IF[ ]\011/* If */
NPUSHB[ ]\011/* 39 values pushed */
10 9 2 0 1 1 30 5 1 2 3 1 3 2 1 50 0 1 0 0 1 0 1 2 37 0 3 3 4 1 0 36 0 4 4 19 3 32 5 
ELSE[ ]\011/* Else */
NPUSHB[ ]\011/* 49 values pushed */
10 9 2 0 1 1 30 5 1 2 3 1 3 2 1 50 0 4 0 3 2 4 3 1 0 38 0 1 0 0 1 1 0 35 0 1 1 0 1 2 36 0 0 1 0 1 2 33 6 
EIF[ ]\011/* EndIf */
EIF[ ]\011/* EndIf */
EIF[ ]\011/* EndIf */
PUSHB[ ]\011/* 1 value pushed */
56 
CALL[ ]\011/* CallFunction */";
};
width = 566;
}
);
note = j;
unicode = 006A;
},
{
glyphname = k;
layers = (
{
layerId = "0F82F74C-23B9-402A-A6A2-E1A5FCDC2DA6";
paths = (
{
closed = 1;
nodes = (
"120 1497 LINE",
"120 0 LINE",
"430 0 LINE",
"430 459 LINE",
"490 459 LINE SMOOTH",
"530 459 OFFCURVE",
"545.333 452.333 OFFCURVE",
"564 419 CURVE SMOOTH",
"760 52 LINE SMOOTH",
"781.333 13.333 OFFCURVE",
"815.333 0 OFFCURVE",
"862 0 CURVE SMOOTH",
"1142 0 LINE",
"850 496 LINE SMOOTH",
"828 533.333 OFFCURVE",
"802 563.333 OFFCURVE",
"772 586 CURVE",
"806.667 607.333 OFFCURVE",
"836.667 633.333 OFFCURVE",
"862 668 CURVE SMOOTH",
"1130 1037 LINE",
"846 1037 LINE SMOOTH",
"798 1037 OFFCURVE",
"768.667 1021.667 OFFCURVE",
"746 987 CURVE SMOOTH",
"550 695 LINE SMOOTH",
"531.333 667 OFFCURVE",
"514.667 658 OFFCURVE",
"476 658 CURVE SMOOTH",
"430 658 LINE",
"430 1497 LINE"
);
}
);
userData = {
assembly = "NPUSHB[ ]\011/* 18 values pushed */
0 0 0 29 0 29 28 27 26 24 19 17 10 8 3 1 7 7 
CALL[ ]\011/* CallFunction */
MPPEM[ ]\011/* MeasurePixelPerEm */
PUSHB[ ]\011/* 1 value pushed */
94 
LT[ ]\011/* LessThan */
IF[ ]\011/* If */
NPUSHB[ ]\011/* 35 values pushed */
14 1 3 0 1 30 0 0 0 3 2 0 3 1 0 38 6 1 5 5 13 31 0 1 1 14 31 4 1 2 2 12 2 32 5 
ELSE[ ]\011/* Else */
MPPEM[ ]\011/* MeasurePixelPerEm */
PUSHB[ ]\011/* 1 value pushed */
252 
LT[ ]\011/* LessThan */
IF[ ]\011/* If */
NPUSHB[ ]\011/* 40 values pushed */
14 1 3 0 1 30 0 1 0 2 1 1 0 35 0 0 0 3 2 0 3 1 0 38 4 1 2 2 5 0 0 36 6 1 5 5 13 5 32 5 
ELSE[ ]\011/* Else */
MPPEM[ ]\011/* MeasurePixelPerEm */
PUSHB[ ]\011/* 1 value pushed */
232 
LT[ ]\011/* LessThan */
IF[ ]\011/* If */
NPUSHB[ ]\011/* 49 values pushed */
14 1 3 0 1 30 6 1 5 1 2 5 0 0 35 0 1 0 2 1 1 0 35 0 0 0 3 2 0 3 1 0 38 0 1 1 2 1 0 36 4 1 2 1 2 1 0 33 6 
ELSE[ ]\011/* Else */
NPUSHB[ ]\011/* 50 values pushed */
14 1 3 0 1 30 0 1 0 2 1 1 0 35 0 0 0 3 4 0 3 1 0 38 6 1 5 0 4 2 5 4 0 0 38 0 1 1 2 1 0 36 0 2 1 2 1 0 33 6 
EIF[ ]\011/* EndIf */
EIF[ ]\011/* EndIf */
EIF[ ]\011/* EndIf */
PUSHB[ ]\011/* 1 value pushed */
56 
CALL[ ]\011/* CallFunction */";
};
width = 1152;
}
);
note = k;
unicode = 006B;
},
{
glyphname = l;
layers = (
{
layerId = "0F82F74C-23B9-402A-A6A2-E1A5FCDC2DA6";
paths = (
{
closed = 1;
nodes = (
"130 1497 LINE",
"130 0 LINE",
"440 0 LINE",
"440 1497 LINE"
);
}
);
userData = {
assembly = "NPUSHB[ ]\011/* 10 values pushed */
0 0 0 3 0 3 2 1 3 7 
CALL[ ]\011/* CallFunction */
MPPEM[ ]\011/* MeasurePixelPerEm */
PUSHB[ ]\011/* 1 value pushed */
94 
LT[ ]\011/* LessThan */
IF[ ]\011/* If */
NPUSHB[ ]\011/* 13 values pushed */
2 1 1 1 13 31 0 0 0 12 0 32 2 
ELSE[ ]\011/* Else */
MPPEM[ ]\011/* MeasurePixelPerEm */
PUSHB[ ]\011/* 1 value pushed */
252 
LT[ ]\011/* LessThan */
IF[ ]\011/* If */
NPUSHB[ ]\011/* 15 values pushed */
0 0 0 1 0 0 36 2 1 1 1 13 0 32 2 
ELSE[ ]\011/* Else */
NPUSHB[ ]\011/* 25 values pushed */
2 1 1 0 0 1 0 0 35 2 1 1 1 0 0 0 36 0 0 1 0 0 0 33 3 
EIF[ ]\011/* EndIf */
EIF[ ]\011/* EndIf */
PUSHB[ ]\011/* 1 value pushed */
56 
CALL[ ]\011/* CallFunction */";
};
width = 570;
}
);
note = l;
unicode = 006C;
},
{
glyphname = lslash;
layers = (
{
layerId = "0F82F74C-23B9-402A-A6A2-E1A5FCDC2DA6";
paths = (
{
closed = 1;
nodes = (
"200 1497 LINE",
"200 847 LINE",
"86 800 LINE SMOOTH",
"62 790 OFFCURVE",
"50 772 OFFCURVE",
"50 746 CURVE SMOOTH",
"50 566 LINE",
"200 624 LINE",
"200 0 LINE",
"510 0 LINE",
"510 728 LINE",
"620 774 LINE SMOOTH",
"646.667 785.333 OFFCURVE",
"660 806 OFFCURVE",
"660 836 CURVE SMOOTH",
"660 1010 LINE",
"510 951 LINE",
"510 1497 LINE"
);
}
);
userData = {
assembly = "NPUSHB[ ]\011/* 10 values pushed */
0 0 0 15 0 15 8 7 3 7 
CALL[ ]\011/* CallFunction */
MPPEM[ ]\011/* MeasurePixelPerEm */
PUSHB[ ]\011/* 1 value pushed */
94 
LT[ ]\011/* LessThan */
IF[ ]\011/* If */
NPUSHB[ ]\011/* 24 values pushed */
14 10 9 6 2 1 6 0 1 1 30 2 1 1 1 13 31 0 0 0 12 0 32 3 
ELSE[ ]\011/* Else */
MPPEM[ ]\011/* MeasurePixelPerEm */
PUSHB[ ]\011/* 1 value pushed */
252 
LT[ ]\011/* LessThan */
IF[ ]\011/* If */
NPUSHB[ ]\011/* 26 values pushed */
14 10 9 6 2 1 6 0 1 1 30 0 0 0 1 0 0 36 2 1 1 1 13 0 32 3 
ELSE[ ]\011/* Else */
NPUSHB[ ]\011/* 36 values pushed */
14 10 9 6 2 1 6 0 1 1 30 2 1 1 0 0 1 0 0 35 2 1 1 1 0 0 0 36 0 0 1 0 0 0 33 4 
EIF[ ]\011/* EndIf */
EIF[ ]\011/* EndIf */
PUSHB[ ]\011/* 1 value pushed */
56 
CALL[ ]\011/* CallFunction */";
};
width = 710;
}
);
note = lslash;
unicode = 0142;
},
{
glyphname = m;
layers = (
{
layerId = "0F82F74C-23B9-402A-A6A2-E1A5FCDC2DA6";
paths = (
{
closed = 1;
nodes = (
"430 0 LINE",
"430 750 LINE",
"474 792.667 OFFCURVE",
"524 820 OFFCURVE",
"580 820 CURVE SMOOTH",
"670.667 820 OFFCURVE",
"718 777.667 OFFCURVE",
"718 659 CURVE SMOOTH",
"718 0 LINE",
"1028 0 LINE",
"1028 659 LINE SMOOTH",
"1028 763 OFFCURVE",
"1090 820 OFFCURVE",
"1174 820 CURVE SMOOTH",
"1266 820 OFFCURVE",
"1312 766.333 OFFCURVE",
"1312 659 CURVE SMOOTH",
"1312 0 LINE",
"1622 0 LINE",
"1622 659 LINE SMOOTH",
"1622 783 OFFCURVE",
"1589.5 882.167 OFFCURVE",
"1527.5 949.5 CURVE SMOOTH",
"1465.5 1016.833 OFFCURVE",
"1372.667 1053 OFFCURVE",
"1254 1053 CURVE SMOOTH",
"1122.195 1053 OFFCURVE",
"988.257 999.166 OFFCURVE",
"921 875 CURVE",
"878.333 983 OFFCURVE",
"797.333 1053 OFFCURVE",
"672 1053 CURVE SMOOTH",
"557.463 1053 OFFCURVE",
"475.541 1002.254 OFFCURVE",
"405 929 CURVE",
"388 985 LINE SMOOTH",
"377.333 1019.667 OFFCURVE",
"350.667 1037 OFFCURVE",
"312 1037 CURVE SMOOTH",
"120 1037 LINE",
"120 0 LINE"
);
}
);
userData = {
assembly = "NPUSHB[ ]\011/* 22 values pushed */
0 0 0 42 0 42 39 37 34 33 30 28 26 25 20 18 12 10 3 1 9 7 
CALL[ ]\011/* CallFunction */
MPPEM[ ]\011/* MeasurePixelPerEm */
PUSHB[ ]\011/* 1 value pushed */
30 
LT[ ]\011/* LessThan */
IF[ ]\011/* If */
NPUSHB[ ]\011/* 36 values pushed */
14 6 2 4 0 41 1 3 4 2 30 6 1 4 4 0 1 0 36 2 1 2 0 0 14 31 8 7 5 3 3 3 12 3 32 4 
ELSE[ ]\011/* Else */
MPPEM[ ]\011/* MeasurePixelPerEm */
PUSHB[ ]\011/* 1 value pushed */
94 
LT[ ]\011/* LessThan */
IF[ ]\011/* If */
NPUSHB[ ]\011/* 40 values pushed */
14 6 2 4 0 41 1 3 4 2 30 0 0 0 14 31 6 1 4 4 1 1 0 36 2 1 1 1 20 31 8 7 5 3 3 3 12 3 32 5 
ELSE[ ]\011/* Else */
MPPEM[ ]\011/* MeasurePixelPerEm */
PUSHB[ ]\011/* 1 value pushed */
232 
LT[ ]\011/* LessThan */
IF[ ]\011/* If */
NPUSHB[ ]\011/* 49 values pushed */
14 6 2 4 0 41 1 3 4 2 30 0 0 4 3 0 1 0 35 2 1 1 6 1 4 3 1 4 1 0 38 0 0 0 3 0 0 36 8 7 5 3 3 0 3 0 0 33 5 
ELSE[ ]\011/* Else */
NPUSHB[ ]\011/* 67 values pushed */
14 6 2 6 0 41 1 7 4 2 30 0 5 7 3 7 5 3 50 0 3 3 51 0 0 6 7 0 1 0 35 0 1 0 6 4 1 6 1 0 38 0 2 0 4 7 2 4 1 0 38 0 0 0 7 0 0 36 8 1 7 0 7 0 0 33 8 
EIF[ ]\011/* EndIf */
EIF[ ]\011/* EndIf */
EIF[ ]\011/* EndIf */
PUSHB[ ]\011/* 1 value pushed */
56 
CALL[ ]\011/* CallFunction */";
};
width = 1722;
}
);
note = m;
unicode = 006D;
},
{
glyphname = n;
layers = (
{
layerId = "0F82F74C-23B9-402A-A6A2-E1A5FCDC2DA6";
paths = (
{
closed = 1;
nodes = (
"430 0 LINE",
"430 739 LINE",
"484.667 788.333 OFFCURVE",
"544 820 OFFCURVE",
"612 820 CURVE SMOOTH",
"702.667 820 OFFCURVE",
"750 760.333 OFFCURVE",
"750 659 CURVE SMOOTH",
"750 0 LINE",
"1060 0 LINE",
"1060 659 LINE SMOOTH",
"1060 772.333 OFFCURVE",
"1029 871.5 OFFCURVE",
"969 941.5 CURVE SMOOTH",
"909 1011.5 OFFCURVE",
"821.333 1053 OFFCURVE",
"708 1053 CURVE SMOOTH",
"576.879 1053 OFFCURVE",
"490.193 1003.58 OFFCURVE",
"406 925 CURVE",
"388 985 LINE SMOOTH",
"377.333 1019.667 OFFCURVE",
"350.667 1037 OFFCURVE",
"312 1037 CURVE SMOOTH",
"120 1037 LINE",
"120 0 LINE"
);
}
);
userData = {
assembly = "NPUSHB[ ]\011/* 16 values pushed */
0 0 0 26 0 26 23 21 18 17 12 10 3 1 6 7 
CALL[ ]\011/* CallFunction */
MPPEM[ ]\011/* MeasurePixelPerEm */
PUSHB[ ]\011/* 1 value pushed */
30 
LT[ ]\011/* LessThan */
IF[ ]\011/* If */
NPUSHB[ ]\011/* 32 values pushed */
6 1 3 0 25 1 2 3 2 30 0 3 3 0 1 0 36 1 1 0 0 14 31 5 4 2 2 2 12 2 32 4 
ELSE[ ]\011/* Else */
MPPEM[ ]\011/* MeasurePixelPerEm */
PUSHB[ ]\011/* 1 value pushed */
94 
LT[ ]\011/* LessThan */
IF[ ]\011/* If */
NPUSHB[ ]\011/* 36 values pushed */
6 1 3 0 25 1 2 3 2 30 0 0 0 14 31 0 3 3 1 1 0 36 0 1 1 20 31 5 4 2 2 2 12 2 32 5 
ELSE[ ]\011/* Else */
MPPEM[ ]\011/* MeasurePixelPerEm */
PUSHB[ ]\011/* 1 value pushed */
232 
LT[ ]\011/* LessThan */
IF[ ]\011/* If */
NPUSHB[ ]\011/* 45 values pushed */
6 1 3 0 25 1 2 3 2 30 0 0 3 2 0 1 0 35 0 1 0 3 2 1 3 1 0 38 0 0 0 2 0 0 36 5 4 2 2 0 2 0 0 33 5 
ELSE[ ]\011/* Else */
NPUSHB[ ]\011/* 49 values pushed */
6 1 3 0 25 1 4 3 2 30 0 2 4 2 53 0 0 3 4 0 1 0 35 0 1 0 3 4 1 3 1 0 38 0 0 0 4 0 0 36 5 1 4 0 4 0 0 33 6 
EIF[ ]\011/* EndIf */
EIF[ ]\011/* EndIf */
EIF[ ]\011/* EndIf */
PUSHB[ ]\011/* 1 value pushed */
56 
CALL[ ]\011/* CallFunction */";
};
width = 1160;
}
);
note = n;
unicode = 006E;
},
{
glyphname = o;
layers = (
{
layerId = "0F82F74C-23B9-402A-A6A2-E1A5FCDC2DA6";
paths = (
{
closed = 1;
nodes = (
"423.333 1053 OFFCURVE",
"291.5 1002 OFFCURVE",
"197.5 910 CURVE SMOOTH",
"103.5 818 OFFCURVE",
"50 685 OFFCURVE",
"50 521 CURVE SMOOTH",
"50 355.667 OFFCURVE",
"103.5 221.167 OFFCURVE",
"197.5 128.5 CURVE SMOOTH",
"291.5 35.833 OFFCURVE",
"423.333 -16 OFFCURVE",
"582 -16 CURVE SMOOTH",
"739.333 -16 OFFCURVE",
"870.833 35.833 OFFCURVE",
"963.5 128.5 CURVE SMOOTH",
"1056.167 221.167 OFFCURVE",
"1110 355.667 OFFCURVE",
"1110 521 CURVE SMOOTH",
"1110 685 OFFCURVE",
"1056.167 818 OFFCURVE",
"963.5 910 CURVE SMOOTH",
"870.833 1002 OFFCURVE",
"739.333 1053 OFFCURVE",
"582 1053 CURVE SMOOTH"
);
},
{
closed = 1;
nodes = (
"435.333 214 OFFCURVE",
"370 313.667 OFFCURVE",
"370 519 CURVE SMOOTH",
"370 724.333 OFFCURVE",
"435.333 823 OFFCURVE",
"582 823 CURVE SMOOTH",
"724.667 823 OFFCURVE",
"790 724.333 OFFCURVE",
"790 519 CURVE SMOOTH",
"790 313.667 OFFCURVE",
"724.667 214 OFFCURVE",
"582 214 CURVE SMOOTH"
);
}
);
userData = {
assembly = "NPUSHB[ ]\011/* 18 values pushed */
21 20 1 0 27 25 20 31 21 31 11 9 0 19 1 19 6 7 
CALL[ ]\011/* CallFunction */
MPPEM[ ]\011/* MeasurePixelPerEm */
PUSHB[ ]\011/* 1 value pushed */
94 
LT[ ]\011/* LessThan */
IF[ ]\011/* If */
NPUSHB[ ]\011/* 28 values pushed */
0 3 3 0 1 0 36 4 1 0 0 20 31 5 1 2 2 1 1 0 36 0 1 1 18 1 32 4 
ELSE[ ]\011/* Else */
NPUSHB[ ]\011/* 36 values pushed */
4 1 0 0 3 2 0 3 1 0 38 5 1 2 1 1 2 1 0 35 5 1 2 2 1 1 0 36 0 1 2 1 1 0 33 4 
EIF[ ]\011/* EndIf */
PUSHB[ ]\011/* 1 value pushed */
56 
CALL[ ]\011/* CallFunction */";
};
width = 1160;
}
);
note = o;
unicode = 006F;
},
{
glyphname = oslash;
layers = (
{
layerId = "0F82F74C-23B9-402A-A6A2-E1A5FCDC2DA6";
paths = (
{
closed = 1;
nodes = (
"1156 1146 LINE",
"1004 1146 LINE SMOOTH",
"932.227 1146 OFFCURVE",
"909.838 1125.537 OFFCURVE",
"866 1068 CURVE SMOOTH",
"820 1006 LINE",
"749.333 1037.333 OFFCURVE",
"670 1053 OFFCURVE",
"582 1053 CURVE SMOOTH",
"423.333 1053 OFFCURVE",
"291.5 1002 OFFCURVE",
"197.5 910 CURVE SMOOTH",
"103.5 818 OFFCURVE",
"50 685 OFFCURVE",
"50 521 CURVE SMOOTH",
"50 362.333 OFFCURVE",
"98.333 233 OFFCURVE",
"185 141 CURVE",
"24 -78 LINE",
"136 -78 LINE SMOOTH",
"203.917 -78 OFFCURVE",
"277.275 -53.831 OFFCURVE",
"320 9 CURVE SMOOTH",
"337 33 LINE",
"410.333 0.333 OFFCURVE",
"492 -16 OFFCURVE",
"582 -16 CURVE SMOOTH",
"739.333 -16 OFFCURVE",
"870.833 35.833 OFFCURVE",
"963.5 128.5 CURVE SMOOTH",
"1056.167 221.167 OFFCURVE",
"1110 355.667 OFFCURVE",
"1110 521 CURVE SMOOTH",
"1110 678.333 OFFCURVE",
"1060.667 807 OFFCURVE",
"974 899 CURVE"
);
},
{
closed = 1;
nodes = (
"541.333 205 OFFCURVE",
"506.667 211.667 OFFCURVE",
"478 225 CURVE",
"796 656 LINE",
"805.333 616.667 OFFCURVE",
"810 571 OFFCURVE",
"810 519 CURVE SMOOTH",
"810 313.667 OFFCURVE",
"724.667 205 OFFCURVE",
"582 205 CURVE SMOOTH"
);
},
{
closed = 1;
nodes = (
"350 724.333 OFFCURVE",
"435.333 833 OFFCURVE",
"582 833 CURVE SMOOTH",
"619.333 833 OFFCURVE",
"651.667 826.667 OFFCURVE",
"679 814 CURVE",
"363 384 LINE",
"354.333 420.667 OFFCURVE",
"350 465.667 OFFCURVE",
"350 519 CURVE SMOOTH"
);
}
);
userData = {
assembly = "NPUSHB[ ]\011/* 18 values pushed */
37 36 50 48 36 43 37 43 35 33 27 25 17 15 9 7 7 7 
CALL[ ]\011/* CallFunction */
MPPEM[ ]\011/* MeasurePixelPerEm */
PUSHB[ ]\011/* 1 value pushed */
94 
LT[ ]\011/* LessThan */
IF[ ]\011/* If */
NPUSHB[ ]\011/* 56 values pushed */
28 0 2 5 2 47 46 42 41 4 4 5 18 10 2 0 4 3 30 0 3 2 3 52 0 1 0 1 53 0 5 5 2 1 0 36 0 2 2 20 31 6 1 4 4 0 1 0 36 0 0 0 18 0 32 7 
ELSE[ ]\011/* Else */
NPUSHB[ ]\011/* 64 values pushed */
28 0 2 5 2 47 46 42 41 4 4 5 18 10 2 0 4 3 30 0 3 2 3 52 0 1 0 1 53 0 2 0 5 4 2 5 1 0 38 6 1 4 0 0 4 1 0 35 6 1 4 4 0 1 0 36 0 0 4 0 1 0 33 7 
EIF[ ]\011/* EndIf */
PUSHB[ ]\011/* 1 value pushed */
56 
CALL[ ]\011/* CallFunction */";
};
width = 1160;
}
);
note = oslash;
unicode = 00F8;
},
{
glyphname = oe;
layers = (
{
layerId = "0F82F74C-23B9-402A-A6A2-E1A5FCDC2DA6";
paths = (
{
closed = 1;
nodes = (
"1110 1053 OFFCURVE",
"989.333 986 OFFCURVE",
"912 878 CURVE",
"828 991.333 OFFCURVE",
"703.333 1053 OFFCURVE",
"546 1053 CURVE SMOOTH",
"403.333 1053 OFFCURVE",
"279 1002 OFFCURVE",
"191 910 CURVE SMOOTH",
"103 818 OFFCURVE",
"50 685 OFFCURVE",
"50 521 CURVE SMOOTH",
"50 355.667 OFFCURVE",
"102.333 221.167 OFFCURVE",
"189 128.5 CURVE SMOOTH",
"275.667 35.833 OFFCURVE",
"396.667 -16 OFFCURVE",
"534 -16 CURVE SMOOTH",
"699.333 -16 OFFCURVE",
"829 47.333 OFFCURVE",
"913 162 CURVE",
"996.427 42.074 OFFCURVE",
"1130.23 -16 OFFCURVE",
"1266 -16 CURVE SMOOTH",
"1335.333 -16 OFFCURVE",
"1412 -7.5 OFFCURVE",
"1488 18.5 CURVE SMOOTH",
"1564 44.5 OFFCURVE",
"1638 88.667 OFFCURVE",
"1702 162 CURVE",
"1610 273 LINE SMOOTH",
"1596.667 289 OFFCURVE",
"1578.667 300 OFFCURVE",
"1556 300 CURVE SMOOTH",
"1479.245 300 OFFCURVE",
"1413.108 216 OFFCURVE",
"1296 216 CURVE SMOOTH",
"1173.333 216 OFFCURVE",
"1088.667 284.333 OFFCURVE",
"1066 443 CURVE",
"1636 443 LINE SMOOTH",
"1695.128 443 OFFCURVE",
"1704 473.752 OFFCURVE",
"1704 558 CURVE SMOOTH",
"1704 708.667 OFFCURVE",
"1658.167 832.5 OFFCURVE",
"1581.5 918.5 CURVE SMOOTH",
"1504.833 1004.5 OFFCURVE",
"1396.667 1053 OFFCURVE",
"1274 1053 CURVE SMOOTH"
);
},
{
closed = 1;
nodes = (
"429.333 214 OFFCURVE",
"370 313.667 OFFCURVE",
"370 519 CURVE SMOOTH",
"370 724.333 OFFCURVE",
"429.333 823 OFFCURVE",
"564 823 CURVE SMOOTH",
"697.333 823 OFFCURVE",
"756 724.333 OFFCURVE",
"756 519 CURVE SMOOTH",
"756 313.667 OFFCURVE",
"697.333 214 OFFCURVE",
"564 214 CURVE SMOOTH"
);
},
{
closed = 1;
nodes = (
"1380.324 839 OFFCURVE",
"1428 730.574 OFFCURVE",
"1428 623 CURVE",
"1064 623 LINE",
"1081.333 763 OFFCURVE",
"1142.667 839 OFFCURVE",
"1260 839 CURVE SMOOTH"
);
}
);
userData = {
assembly = "NPUSHB[ ]\011/* 36 values pushed */
65 64 53 52 1 0 68 67 64 72 65 72 59 57 52 63 53 63 47 45 37 35 29 27 20 18 15 13 11 9 0 51 1 51 14 7 
CALL[ ]\011/* CallFunction */
MPPEM[ ]\011/* MeasurePixelPerEm */
PUSHB[ ]\011/* 1 value pushed */
30 
LT[ ]\011/* LessThan */
IF[ ]\011/* If */
NPUSHB[ ]\011/* 62 values pushed */
49 1 8 0 33 23 2 4 2 2 30 0 3 1 2 1 3 2 50 0 10 0 1 3 10 1 1 0 38 13 9 2 8 8 0 1 0 36 6 11 2 0 0 20 31 12 7 2 2 2 4 1 0 36 5 1 4 4 18 4 32 7 
ELSE[ ]\011/* Else */
MPPEM[ ]\011/* MeasurePixelPerEm */
PUSHB[ ]\011/* 1 value pushed */
94 
LT[ ]\011/* LessThan */
IF[ ]\011/* If */
NPUSHB[ ]\011/* 75 values pushed */
49 1 9 0 33 23 2 4 2 2 30 0 3 1 2 1 3 2 50 0 10 0 1 3 10 1 1 0 38 13 1 9 9 0 1 0 36 6 11 2 0 0 20 31 0 8 8 0 1 0 36 6 11 2 0 0 20 31 12 7 2 2 2 4 1 0 36 5 1 4 4 18 4 32 9 
ELSE[ ]\011/* Else */
MPPEM[ ]\011/* MeasurePixelPerEm */
PUSHB[ ]\011/* 1 value pushed */
201 
LT[ ]\011/* LessThan */
IF[ ]\011/* If */
NPUSHB[ ]\011/* 78 values pushed */
49 1 9 0 33 23 2 4 2 2 30 0 3 1 2 1 3 2 50 13 1 9 8 0 9 1 0 35 6 11 2 0 0 8 10 0 8 1 0 38 0 10 0 1 3 10 1 1 0 38 12 7 2 2 4 4 2 1 0 35 12 7 2 2 2 4 1 0 36 5 1 4 2 4 1 0 33 8 
ELSE[ ]\011/* Else */
MPPEM[ ]\011/* MeasurePixelPerEm */
PUSHB[ ]\011/* 1 value pushed */
232 
LT[ ]\011/* LessThan */
IF[ ]\011/* If */
NPUSHB[ ]\011/* 84 values pushed */
49 1 9 0 33 23 2 4 7 2 30 0 3 1 2 1 3 2 50 13 1 9 8 0 9 1 0 35 6 11 2 0 0 8 10 0 8 1 0 38 0 10 0 1 3 10 1 1 0 38 0 2 7 4 2 1 0 35 12 1 7 4 4 7 1 0 35 12 1 7 7 4 1 0 36 5 1 4 7 4 1 0 33 9 
ELSE[ ]\011/* Else */
NPUSHB[ ]\011/* 85 values pushed */
49 1 9 6 33 23 2 5 7 2 30 0 3 1 2 1 3 2 50 11 1 0 13 1 9 8 0 9 1 0 38 0 6 0 8 10 6 8 1 0 38 0 10 0 1 3 10 1 1 0 38 0 2 7 4 2 1 0 35 12 1 7 0 5 4 7 5 1 0 38 0 2 2 4 1 0 36 0 4 2 4 1 0 33 9 
EIF[ ]\011/* EndIf */
EIF[ ]\011/* EndIf */
EIF[ ]\011/* EndIf */
EIF[ ]\011/* EndIf */
PUSHB[ ]\011/* 1 value pushed */
56 
CALL[ ]\011/* CallFunction */";
};
width = 1762;
}
);
note = oe;
unicode = 0153;
},
{
glyphname = p;
layers = (
{
layerId = "0F82F74C-23B9-402A-A6A2-E1A5FCDC2DA6";
paths = (
{
closed = 1;
nodes = (
"430 -329 LINE",
"430 69 LINE",
"490 17 OFFCURVE",
"558 -16 OFFCURVE",
"666 -16 CURVE SMOOTH",
"798 -16 OFFCURVE",
"908.5 41.667 OFFCURVE",
"986.5 139 CURVE SMOOTH",
"1064.5 236.333 OFFCURVE",
"1110 371 OFFCURVE",
"1110 527 CURVE SMOOTH",
"1110 693.667 OFFCURVE",
"1069.667 826.333 OFFCURVE",
"1003 917 CURVE SMOOTH",
"936.333 1007.667 OFFCURVE",
"842 1057 OFFCURVE",
"734 1057 CURVE SMOOTH",
"598.688 1057 OFFCURVE",
"492.637 998.801 OFFCURVE",
"411 909 CURVE",
"388 985 LINE SMOOTH",
"377.333 1019.667 OFFCURVE",
"350.667 1037 OFFCURVE",
"312 1037 CURVE SMOOTH",
"120 1037 LINE",
"120 -329 LINE"
);
},
{
closed = 1;
nodes = (
"675.333 820 OFFCURVE",
"715.833 801.5 OFFCURVE",
"744.5 755.5 CURVE SMOOTH",
"773.167 709.5 OFFCURVE",
"790 636.333 OFFCURVE",
"790 527 CURVE SMOOTH",
"790 412.333 OFFCURVE",
"768.833 333.5 OFFCURVE",
"733.5 283.5 CURVE SMOOTH",
"698.167 233.5 OFFCURVE",
"649.333 212 OFFCURVE",
"592 212 CURVE SMOOTH",
"532 212 OFFCURVE",
"476.667 230 OFFCURVE",
"430 282 CURVE",
"430 722 LINE",
"483.689 786.427 OFFCURVE",
"535.896 820 OFFCURVE",
"626 820 CURVE SMOOTH"
);
}
);
userData = {
assembly = "NPUSHB[ ]\011/* 22 values pushed */
27 26 0 0 36 34 26 44 27 44 0 25 0 25 22 20 12 10 3 1 8 7 
CALL[ ]\011/* CallFunction */
MPPEM[ ]\011/* MeasurePixelPerEm */
PUSHB[ ]\011/* 1 value pushed */
24 
LT[ ]\011/* LessThan */
IF[ ]\011/* If */
NPUSHB[ ]\011/* 50 values pushed */
6 1 4 0 32 31 2 5 4 24 1 2 5 3 30 7 1 4 0 5 0 4 5 50 1 1 0 0 14 31 0 5 5 2 1 2 36 0 2 2 18 31 6 1 3 3 16 3 32 6 
ELSE[ ]\011/* Else */
MPPEM[ ]\011/* MeasurePixelPerEm */
PUSHB[ ]\011/* 1 value pushed */
54 
LT[ ]\011/* LessThan */
IF[ ]\011/* If */
NPUSHB[ ]\011/* 54 values pushed */
6 1 4 0 32 31 2 5 4 24 1 2 5 3 30 7 1 4 0 5 0 4 5 50 0 1 1 20 31 0 0 0 14 31 0 5 5 2 1 2 36 0 2 2 18 31 6 1 3 3 16 3 32 7 
ELSE[ ]\011/* Else */
MPPEM[ ]\011/* MeasurePixelPerEm */
PUSHB[ ]\011/* 1 value pushed */
94 
LT[ ]\011/* LessThan */
IF[ ]\011/* If */
NPUSHB[ ]\011/* 56 values pushed */
6 1 4 0 32 31 2 5 4 24 1 2 5 3 30 7 1 4 0 5 0 4 5 50 0 1 1 20 31 0 5 5 2 1 2 36 0 2 2 18 31 6 1 3 3 0 1 0 36 0 0 0 14 3 32 7 
ELSE[ ]\011/* Else */
NPUSHB[ ]\011/* 63 values pushed */
6 1 4 0 32 31 2 5 4 24 1 2 5 3 30 0 1 0 1 52 7 1 4 0 5 0 4 5 50 0 0 4 3 0 1 0 35 0 5 0 2 3 5 2 1 2 38 0 0 0 3 0 0 36 6 1 3 0 3 0 0 33 7 
EIF[ ]\011/* EndIf */
EIF[ ]\011/* EndIf */
EIF[ ]\011/* EndIf */
PUSHB[ ]\011/* 1 value pushed */
56 
CALL[ ]\011/* CallFunction */";
};
width = 1156;
}
);
note = p;
unicode = 0070;
},
{
glyphname = thorn;
layers = (
{
layerId = "0F82F74C-23B9-402A-A6A2-E1A5FCDC2DA6";
paths = (
{
closed = 1;
nodes = (
"430 -329 LINE",
"430 87 LINE",
"491.608 22.592 OFFCURVE",
"560.48 -16 OFFCURVE",
"666 -16 CURVE SMOOTH",
"798 -16 OFFCURVE",
"908.5 41.667 OFFCURVE",
"986.5 139 CURVE SMOOTH",
"1064.5 236.333 OFFCURVE",
"1110 371 OFFCURVE",
"1110 527 CURVE SMOOTH",
"1110 693.667 OFFCURVE",
"1069.667 825.5 OFFCURVE",
"1003 915.5 CURVE SMOOTH",
"936.333 1005.5 OFFCURVE",
"842 1053 OFFCURVE",
"734 1053 CURVE SMOOTH",
"602 1053 OFFCURVE",
"507.333 1003 OFFCURVE",
"430 927 CURVE",
"430 1497 LINE",
"120 1497 LINE",
"120 -329 LINE"
);
},
{
closed = 1;
nodes = (
"675.333 820 OFFCURVE",
"715.833 801.5 OFFCURVE",
"744.5 755.5 CURVE SMOOTH",
"773.167 709.5 OFFCURVE",
"790 636.333 OFFCURVE",
"790 527 CURVE SMOOTH",
"790 412.333 OFFCURVE",
"768.833 333.5 OFFCURVE",
"733.5 283.5 CURVE SMOOTH",
"698.167 233.5 OFFCURVE",
"649.333 212 OFFCURVE",
"592 212 CURVE SMOOTH",
"532 212 OFFCURVE",
"476.667 230 OFFCURVE",
"430 282 CURVE",
"430 722 LINE",
"483.689 786.427 OFFCURVE",
"535.896 820 OFFCURVE",
"626 820 CURVE SMOOTH"
);
}
);
userData = {
assembly = "NPUSHB[ ]\011/* 22 values pushed */
24 23 0 0 33 31 23 41 24 41 0 22 0 22 17 15 7 5 2 1 8 7 
CALL[ ]\011/* CallFunction */
MPPEM[ ]\011/* MeasurePixelPerEm */
PUSHB[ ]\011/* 1 value pushed */
54 
LT[ ]\011/* LessThan */
IF[ ]\011/* If */
NPUSHB[ ]\011/* 53 values pushed */
3 1 4 1 29 28 2 5 4 21 1 2 5 3 30 0 0 0 13 31 7 1 4 4 1 1 0 36 0 1 1 20 31 0 5 5 2 1 0 36 0 2 2 18 31 6 1 3 3 16 3 32 7 
ELSE[ ]\011/* Else */
MPPEM[ ]\011/* MeasurePixelPerEm */
PUSHB[ ]\011/* 1 value pushed */
94 
LT[ ]\011/* LessThan */
IF[ ]\011/* If */
NPUSHB[ ]\011/* 55 values pushed */
3 1 4 1 29 28 2 5 4 21 1 2 5 3 30 7 1 4 4 1 1 0 36 0 1 1 20 31 0 5 5 2 1 0 36 0 2 2 18 31 6 1 3 3 0 0 0 36 0 0 0 13 3 32 7 
ELSE[ ]\011/* Else */
MPPEM[ ]\011/* MeasurePixelPerEm */
PUSHB[ ]\011/* 1 value pushed */
252 
LT[ ]\011/* LessThan */
IF[ ]\011/* If */
NPUSHB[ ]\011/* 51 values pushed */
3 1 4 1 29 28 2 5 4 21 1 2 5 3 30 0 1 7 1 4 5 1 4 1 0 38 0 5 0 2 3 5 2 1 0 38 6 1 3 3 0 0 0 36 0 0 0 13 3 32 5 
ELSE[ ]\011/* Else */
NPUSHB[ ]\011/* 60 values pushed */
3 1 4 1 29 28 2 5 4 21 1 2 5 3 30 0 0 1 3 0 0 0 35 0 1 7 1 4 5 1 4 1 0 38 0 5 0 2 3 5 2 1 0 38 0 0 0 3 0 0 36 6 1 3 0 3 0 0 33 6 
EIF[ ]\011/* EndIf */
EIF[ ]\011/* EndIf */
EIF[ ]\011/* EndIf */
PUSHB[ ]\011/* 1 value pushed */
56 
CALL[ ]\011/* CallFunction */";
};
width = 1156;
}
);
note = thorn;
unicode = 00FE;
},
{
glyphname = q;
layers = (
{
layerId = "0F82F74C-23B9-402A-A6A2-E1A5FCDC2DA6";
paths = (
{
closed = 1;
nodes = (
"848 1037 LINE SMOOTH",
"809.333 1037 OFFCURVE",
"784 1019.667 OFFCURVE",
"772 985 CURVE SMOOTH",
"759 944 LINE",
"687.169 1015.831 OFFCURVE",
"614.094 1057 OFFCURVE",
"494 1057 CURVE SMOOTH",
"362 1057 OFFCURVE",
"250.5 999.167 OFFCURVE",
"172.5 902.5 CURVE SMOOTH",
"94.5 805.833 OFFCURVE",
"50 669.667 OFFCURVE",
"50 515 CURVE SMOOTH",
"50 347 OFFCURVE",
"90.333 214.667 OFFCURVE",
"157 124 CURVE SMOOTH",
"223.667 33.333 OFFCURVE",
"318 -16 OFFCURVE",
"426 -16 CURVE SMOOTH",
"558 -16 OFFCURVE",
"651.333 35.667 OFFCURVE",
"730 113 CURVE",
"730 -329 LINE",
"1040 -329 LINE",
"1040 1037 LINE"
);
},
{
closed = 1;
nodes = (
"484.667 222 OFFCURVE",
"444.167 240.5 OFFCURVE",
"415.5 286.5 CURVE SMOOTH",
"386.833 332.5 OFFCURVE",
"370 405.667 OFFCURVE",
"370 515 CURVE SMOOTH",
"370 628.333 OFFCURVE",
"391.167 707.5 OFFCURVE",
"426.5 757.5 CURVE SMOOTH",
"461.833 807.5 OFFCURVE",
"510.667 829 OFFCURVE",
"568 829 CURVE SMOOTH",
"628 829 OFFCURVE",
"682 809.667 OFFCURVE",
"730 759 CURVE",
"730 319 LINE",
"677.184 255.621 OFFCURVE",
"621.432 222 OFFCURVE",
"534 222 CURVE SMOOTH"
);
}
);
userData = {
assembly = "NPUSHB[ ]\011/* 22 values pushed */
26 25 0 0 35 33 25 43 26 43 0 24 0 23 17 15 7 5 2 1 8 7 
CALL[ ]\011/* CallFunction */
MPPEM[ ]\011/* MeasurePixelPerEm */
PUSHB[ ]\011/* 1 value pushed */
24 
LT[ ]\011/* LessThan */
IF[ ]\011/* If */
NPUSHB[ ]\011/* 49 values pushed */
21 1 5 2 31 30 2 4 5 3 1 1 4 3 30 0 5 5 2 1 0 36 6 3 2 2 2 20 31 7 1 4 4 1 1 0 36 0 1 1 18 31 0 0 0 16 0 32 6 
ELSE[ ]\011/* Else */
MPPEM[ ]\011/* MeasurePixelPerEm */
PUSHB[ ]\011/* 1 value pushed */
54 
LT[ ]\011/* LessThan */
IF[ ]\011/* If */
NPUSHB[ ]\011/* 53 values pushed */
21 1 5 3 31 30 2 4 5 3 1 1 4 3 30 6 1 3 3 14 31 0 5 5 2 1 0 36 0 2 2 20 31 7 1 4 4 1 1 0 36 0 1 1 18 31 0 0 0 16 0 32 7 
ELSE[ ]\011/* Else */
MPPEM[ ]\011/* MeasurePixelPerEm */
PUSHB[ ]\011/* 1 value pushed */
94 
LT[ ]\011/* LessThan */
IF[ ]\011/* If */
NPUSHB[ ]\011/* 55 values pushed */
21 1 5 3 31 30 2 4 5 3 1 1 4 3 30 0 5 5 2 1 0 36 0 2 2 20 31 7 1 4 4 1 1 0 36 0 1 1 18 31 0 0 0 3 1 0 36 6 1 3 3 14 0 32 7 
ELSE[ ]\011/* Else */
NPUSHB[ ]\011/* 61 values pushed */
21 1 5 3 31 30 2 4 5 3 1 1 4 3 30 6 1 3 5 0 3 1 0 35 0 2 0 5 4 2 5 1 0 38 7 1 4 0 1 0 4 1 1 0 38 6 1 3 3 0 0 0 36 0 0 3 0 0 0 33 6 
EIF[ ]\011/* EndIf */
EIF[ ]\011/* EndIf */
EIF[ ]\011/* EndIf */
PUSHB[ ]\011/* 1 value pushed */
56 
CALL[ ]\011/* CallFunction */";
};
width = 1160;
}
);
note = q;
unicode = 0071;
},
{
glyphname = r;
layers = (
{
layerId = "0F82F74C-23B9-402A-A6A2-E1A5FCDC2DA6";
paths = (
{
closed = 1;
nodes = (
"430 0 LINE",
"430 636 LINE",
"476.667 722.667 OFFCURVE",
"540.667 766 OFFCURVE",
"622 766 CURVE SMOOTH",
"645.333 766 OFFCURVE",
"664.667 764.5 OFFCURVE",
"680 761.5 CURVE SMOOTH",
"695.333 758.5 OFFCURVE",
"708.667 757 OFFCURVE",
"720 757 CURVE SMOOTH",
"746.667 757 OFFCURVE",
"762.667 767 OFFCURVE",
"768 795 CURVE SMOOTH",
"808 1023 LINE",
"779.333 1045.667 OFFCURVE",
"741.333 1057 OFFCURVE",
"694 1057 CURVE SMOOTH",
"582 1057 OFFCURVE",
"487 984.333 OFFCURVE",
"411 867 CURVE",
"394 964 LINE SMOOTH",
"383.108 1018.458 OFFCURVE",
"365.761 1037 OFFCURVE",
"304 1037 CURVE SMOOTH",
"120 1037 LINE",
"120 0 LINE"
);
}
);
userData = {
assembly = "NPUSHB[ ]\011/* 16 values pushed */
0 0 0 23 0 23 21 19 18 16 12 10 3 1 6 7 
CALL[ ]\011/* CallFunction */
MPPEM[ ]\011/* MeasurePixelPerEm */
PUSHB[ ]\011/* 1 value pushed */
24 
LT[ ]\011/* LessThan */
IF[ ]\011/* If */
NPUSHB[ ]\011/* 33 values pushed */
13 8 2 2 0 22 1 4 2 2 30 3 1 2 2 0 1 0 36 1 1 0 0 14 31 5 1 4 4 12 4 32 4 
ELSE[ ]\011/* Else */
MPPEM[ ]\011/* MeasurePixelPerEm */
PUSHB[ ]\011/* 1 value pushed */
52 
LT[ ]\011/* LessThan */
IF[ ]\011/* If */
NPUSHB[ ]\011/* 37 values pushed */
13 8 2 2 0 22 1 4 2 2 30 0 0 0 14 31 3 1 2 2 1 1 0 36 0 1 1 20 31 5 1 4 4 12 4 32 5 
ELSE[ ]\011/* Else */
MPPEM[ ]\011/* MeasurePixelPerEm */
PUSHB[ ]\011/* 1 value pushed */
94 
LT[ ]\011/* LessThan */
IF[ ]\011/* If */
NPUSHB[ ]\011/* 43 values pushed */
13 8 2 3 0 22 1 4 2 2 30 0 2 3 4 3 2 42 0 0 0 14 31 0 3 3 1 1 0 36 0 1 1 20 31 5 1 4 4 12 4 32 6 
ELSE[ ]\011/* Else */
MPPEM[ ]\011/* MeasurePixelPerEm */
PUSHB[ ]\011/* 1 value pushed */
20 
LT[ ]\011/* LessThan */
IF[ ]\011/* If */
NPUSHB[ ]\011/* 52 values pushed */
13 8 2 3 0 22 1 4 2 2 30 0 2 3 4 3 2 42 0 0 3 4 0 1 0 35 0 1 0 3 2 1 3 1 0 38 0 0 0 4 0 0 36 5 1 4 0 4 0 0 33 6 
ELSE[ ]\011/* Else */
NPUSHB[ ]\011/* 53 values pushed */
13 8 2 3 0 22 1 4 2 2 30 0 2 3 4 3 2 4 50 0 0 3 4 0 1 0 35 0 1 0 3 2 1 3 1 0 38 0 0 0 4 0 0 36 5 1 4 0 4 0 0 33 6 
EIF[ ]\011/* EndIf */
EIF[ ]\011/* EndIf */
EIF[ ]\011/* EndIf */
EIF[ ]\011/* EndIf */
PUSHB[ ]\011/* 1 value pushed */
56 
CALL[ ]\011/* CallFunction */";
};
width = 826;
}
);
note = r;
unicode = 0072;
},
{
glyphname = s;
layers = (
{
layerId = "0F82F74C-23B9-402A-A6A2-E1A5FCDC2DA6";
paths = (
{
closed = 1;
nodes = (
"824 919 LINE",
"742.52 1000.48 OFFCURVE",
"609.359 1053 OFFCURVE",
"466 1053 CURVE SMOOTH",
"328.667 1053 OFFCURVE",
"226 1015 OFFCURVE",
"158 955 CURVE SMOOTH",
"90 895 OFFCURVE",
"56 813 OFFCURVE",
"56 725 CURVE SMOOTH",
"56 630.333 OFFCURVE",
"86.667 565.5 OFFCURVE",
"132 519.5 CURVE SMOOTH",
"177.333 473.5 OFFCURVE",
"238 445.333 OFFCURVE",
"298 424 CURVE SMOOTH",
"406.253 385.51 OFFCURVE",
"540 367.276 OFFCURVE",
"540 283 CURVE SMOOTH",
"540 229.19 OFFCURVE",
"494.505 193 OFFCURVE",
"410 193 CURVE SMOOTH",
"298.833 193 OFFCURVE",
"239.949 269 OFFCURVE",
"172 269 CURVE SMOOTH",
"133.333 269 OFFCURVE",
"111.333 252.667 OFFCURVE",
"94 226 CURVE SMOOTH",
"22 112 LINE",
"104.677 37.591 OFFCURVE",
"260.935 -16 OFFCURVE",
"394 -16 CURVE SMOOTH",
"535.333 -16 OFFCURVE",
"644.5 20.333 OFFCURVE",
"718.5 83 CURVE SMOOTH",
"792.5 145.667 OFFCURVE",
"830 234.333 OFFCURVE",
"830 337 CURVE SMOOTH",
"830 497.305 OFFCURVE",
"721.922 565.094 OFFCURVE",
"590 612 CURVE SMOOTH",
"482.695 650.153 OFFCURVE",
"350 672.003 OFFCURVE",
"350 750 CURVE SMOOTH",
"350 803.333 OFFCURVE",
"393.333 835 OFFCURVE",
"472 835 CURVE SMOOTH",
"546.16 835 OFFCURVE",
"638.937 775 OFFCURVE",
"694 775 CURVE SMOOTH",
"722 775 OFFCURVE",
"738 784.667 OFFCURVE",
"754 810 CURVE SMOOTH"
);
}
);
userData = {
assembly = "NPUSHB[ ]\011/* 14 values pushed */
59 57 40 38 35 33 26 24 9 7 4 2 6 7 
CALL[ ]\011/* CallFunction */
MPPEM[ ]\011/* MeasurePixelPerEm */
PUSHB[ ]\011/* 1 value pushed */
94 
LT[ ]\011/* LessThan */
IF[ ]\011/* If */
NPUSHB[ ]\011/* 51 values pushed */
63 1 1 5 30 1 2 4 2 30 0 0 1 3 1 0 3 50 0 3 4 1 3 4 48 0 1 1 5 1 0 36 0 5 5 20 31 0 4 4 2 1 0 36 0 2 2 18 2 32 7 
ELSE[ ]\011/* Else */
NPUSHB[ ]\011/* 58 values pushed */
63 1 1 5 30 1 2 4 2 30 0 0 1 3 1 0 3 50 0 3 4 1 3 4 48 0 5 0 1 0 5 1 1 0 38 0 4 2 2 4 1 0 35 0 4 4 2 1 0 36 0 2 4 2 1 0 33 7 
EIF[ ]\011/* EndIf */
PUSHB[ ]\011/* 1 value pushed */
56 
CALL[ ]\011/* CallFunction */";
};
width = 880;
}
);
note = s;
unicode = 0073;
},
{
glyphname = germandbls;
layers = (
{
layerId = "0F82F74C-23B9-402A-A6A2-E1A5FCDC2DA6";
paths = (
{
closed = 1;
nodes = (
"548 1485 OFFCURVE",
"409 1429.833 OFFCURVE",
"313 1338.5 CURVE SMOOTH",
"217 1247.167 OFFCURVE",
"166 1120.667 OFFCURVE",
"166 978 CURVE SMOOTH",
"166 0 LINE",
"476 0 LINE",
"476 968 LINE SMOOTH",
"476 1061.333 OFFCURVE",
"492.667 1137.167 OFFCURVE",
"530 1188.5 CURVE SMOOTH",
"567.333 1239.833 OFFCURVE",
"626 1268 OFFCURVE",
"710 1268 CURVE SMOOTH",
"836.667 1268 OFFCURVE",
"892 1213.333 OFFCURVE",
"892 1124 CURVE SMOOTH",
"892 1064.298 OFFCURVE",
"808.037 995.057 OFFCURVE",
"759 959 CURVE SMOOTH",
"736.333 942.333 OFFCURVE",
"715 923.5 OFFCURVE",
"695 902.5 CURVE SMOOTH",
"655 860.5 OFFCURVE",
"626 805 OFFCURVE",
"626 725 CURVE SMOOTH",
"626 677.667 OFFCURVE",
"634.667 638.167 OFFCURVE",
"652 606.5 CURVE SMOOTH",
"686.667 543.167 OFFCURVE",
"741 498.167 OFFCURVE",
"801 465.5 CURVE SMOOTH",
"831 449.167 OFFCURVE",
"859 433 OFFCURVE",
"885 417 CURVE SMOOTH",
"937 385 OFFCURVE",
"976 350.333 OFFCURVE",
"976 297 CURVE SMOOTH",
"976 234.333 OFFCURVE",
"932 193 OFFCURVE",
"880 193 CURVE SMOOTH",
"788.244 193 OFFCURVE",
"744.832 269 OFFCURVE",
"672 269 CURVE SMOOTH",
"633.333 269 OFFCURVE",
"611.333 252.667 OFFCURVE",
"594 226 CURVE SMOOTH",
"522 112 LINE",
"602.534 39.52 OFFCURVE",
"735.929 -16 OFFCURVE",
"852 -16 CURVE SMOOTH",
"960 -16 OFFCURVE",
"1064 14 OFFCURVE",
"1140 74 CURVE SMOOTH",
"1216 134 OFFCURVE",
"1266 223.667 OFFCURVE",
"1266 345 CURVE SMOOTH",
"1266 395.667 OFFCURVE",
"1258.167 439.167 OFFCURVE",
"1242.5 475.5 CURVE SMOOTH",
"1211.167 548.167 OFFCURVE",
"1163.667 599.667 OFFCURVE",
"1109 637 CURVE SMOOTH",
"1050.885 676.688 OFFCURVE",
"952 736.332 OFFCURVE",
"952 786 CURVE SMOOTH",
"952 835.831 OFFCURVE",
"1016.815 871.533 OFFCURVE",
"1073 910.5 CURVE SMOOTH",
"1093.667 924.833 OFFCURVE",
"1113 941.667 OFFCURVE",
"1131 961 CURVE SMOOTH",
"1167 999.667 OFFCURVE",
"1194 1051.333 OFFCURVE",
"1194 1126 CURVE SMOOTH",
"1194 1194 OFFCURVE",
"1163.5 1282.667 OFFCURVE",
"1089.5 1356 CURVE SMOOTH",
"1015.5 1429.333 OFFCURVE",
"897.333 1485 OFFCURVE",
"724 1485 CURVE SMOOTH"
);
}
);
userData = {
assembly = "NPUSHB[ ]\011/* 18 values pushed */
1 0 65 64 59 57 39 37 34 32 25 23 0 70 1 70 7 7 
CALL[ ]\011/* CallFunction */
MPPEM[ ]\011/* MeasurePixelPerEm */
PUSHB[ ]\011/* 1 value pushed */
30 
LT[ ]\011/* LessThan */
IF[ ]\011/* If */
NPUSHB[ ]\011/* 42 values pushed */
29 1 1 3 1 30 0 2 4 3 4 2 3 50 0 4 4 0 1 0 36 6 1 0 0 17 31 0 3 3 1 1 0 36 5 1 1 1 18 1 32 6 
ELSE[ ]\011/* Else */
MPPEM[ ]\011/* MeasurePixelPerEm */
PUSHB[ ]\011/* 1 value pushed */
83 
LT[ ]\011/* LessThan */
IF[ ]\011/* If */
NPUSHB[ ]\011/* 46 values pushed */
29 1 5 3 1 30 0 2 4 3 4 2 3 50 0 4 4 0 1 0 36 6 1 0 0 17 31 0 5 5 12 31 0 3 3 1 1 0 36 0 1 1 18 1 32 7 
ELSE[ ]\011/* Else */
MPPEM[ ]\011/* MeasurePixelPerEm */
PUSHB[ ]\011/* 1 value pushed */
94 
LT[ ]\011/* LessThan */
IF[ ]\011/* If */
NPUSHB[ ]\011/* 44 values pushed */
29 1 5 3 1 30 0 2 4 3 4 2 3 50 6 1 0 0 4 2 0 4 1 0 38 0 5 5 12 31 0 3 3 1 1 0 36 0 1 1 18 1 32 6 
ELSE[ ]\011/* Else */
NPUSHB[ ]\011/* 56 values pushed */
29 1 5 3 1 30 0 2 4 3 4 2 3 50 0 5 3 1 3 5 1 50 6 1 0 0 4 2 0 4 1 0 38 0 3 5 1 3 1 0 35 0 3 3 1 1 0 36 0 1 3 1 1 0 33 7 
EIF[ ]\011/* EndIf */
EIF[ ]\011/* EndIf */
EIF[ ]\011/* EndIf */
PUSHB[ ]\011/* 1 value pushed */
56 
CALL[ ]\011/* CallFunction */";
};
width = 1316;
}
);
note = germandbls;
unicode = 00DF;
},
{
glyphname = t;
layers = (
{
layerId = "0F82F74C-23B9-402A-A6A2-E1A5FCDC2DA6";
paths = (
{
closed = 1;
nodes = (
"590.667 -16 OFFCURVE",
"694 14 OFFCURVE",
"774 74 CURVE",
"680 221 LINE SMOOTH",
"668 239.667 OFFCURVE",
"658.667 248 OFFCURVE",
"640 248 CURVE SMOOTH",
"614.187 248 OFFCURVE",
"598.179 225 OFFCURVE",
"558 225 CURVE SMOOTH",
"514 225 OFFCURVE",
"490 260 OFFCURVE",
"490 308 CURVE SMOOTH",
"490 823 LINE",
"742 823 LINE",
"742 1035 LINE",
"490 1035 LINE",
"490 1338 LINE",
"328 1338 LINE SMOOTH",
"290.667 1338 OFFCURVE",
"268 1322 OFFCURVE",
"260 1290 CURVE SMOOTH",
"199 1037 LINE",
"34 1005 LINE",
"34 884 LINE SMOOTH",
"34 844 OFFCURVE",
"60 823 OFFCURVE",
"92 823 CURVE SMOOTH",
"180 823 LINE",
"180 287 LINE SMOOTH",
"180 195 OFFCURVE",
"207.167 119.167 OFFCURVE",
"258.5 66.5 CURVE SMOOTH",
"309.833 13.833 OFFCURVE",
"385.333 -16 OFFCURVE",
"484 -16 CURVE SMOOTH"
);
}
);
userData = {
assembly = "NPUSHB[ ]\011/* 20 values pushed */
1 0 30 28 25 23 20 19 18 17 16 14 8 6 0 35 1 35 8 7 
CALL[ ]\011/* CallFunction */
MPPEM[ ]\011/* MeasurePixelPerEm */
PUSHB[ ]\011/* 1 value pushed */
22 
LT[ ]\011/* LessThan */
IF[ ]\011/* If */
NPUSHB[ ]\011/* 44 values pushed */
11 1 1 3 33 1 0 5 2 30 0 2 3 2 52 4 1 1 1 3 0 0 36 0 3 3 14 31 6 1 5 5 0 1 2 36 7 1 0 0 18 0 32 6 
ELSE[ ]\011/* Else */
MPPEM[ ]\011/* MeasurePixelPerEm */
PUSHB[ ]\011/* 1 value pushed */
94 
LT[ ]\011/* LessThan */
IF[ ]\011/* If */
NPUSHB[ ]\011/* 51 values pushed */
11 1 1 3 33 1 0 5 2 30 0 2 3 2 52 0 6 1 5 1 6 5 50 4 1 1 1 3 0 0 36 0 3 3 14 31 0 5 5 0 1 2 36 7 1 0 0 18 0 32 7 
ELSE[ ]\011/* Else */
MPPEM[ ]\011/* MeasurePixelPerEm */
PUSHB[ ]\011/* 1 value pushed */
232 
LT[ ]\011/* LessThan */
IF[ ]\011/* If */
NPUSHB[ ]\011/* 58 values pushed */
11 1 1 3 33 1 0 5 2 30 0 2 3 2 52 0 6 1 5 1 6 5 50 0 3 4 1 1 6 3 1 1 0 38 0 5 0 0 5 1 0 35 0 5 5 0 1 2 36 7 1 0 5 0 1 2 33 7 
ELSE[ ]\011/* Else */
NPUSHB[ ]\011/* 64 values pushed */
11 1 4 3 33 1 0 5 2 30 0 2 3 2 52 0 1 4 6 4 1 6 50 0 6 5 4 6 5 48 0 3 0 4 1 3 4 0 0 38 0 5 0 0 5 1 0 35 0 5 5 0 1 2 36 7 1 0 5 0 1 2 33 8 
EIF[ ]\011/* EndIf */
EIF[ ]\011/* EndIf */
EIF[ ]\011/* EndIf */
PUSHB[ ]\011/* 1 value pushed */
56 
CALL[ ]\011/* CallFunction */";
};
width = 800;
}
);
note = t;
unicode = 0074;
},
{
glyphname = u;
layers = (
{
layerId = "0F82F74C-23B9-402A-A6A2-E1A5FCDC2DA6";
paths = (
{
closed = 1;
nodes = (
"100 1037 LINE",
"100 379 LINE SMOOTH",
"100 264.333 OFFCURVE",
"131 166.667 OFFCURVE",
"191 96 CURVE SMOOTH",
"251 25.333 OFFCURVE",
"338.667 -16 OFFCURVE",
"452 -16 CURVE SMOOTH",
"579.166 -16 OFFCURVE",
"672.058 33.756 OFFCURVE",
"753 112 CURVE",
"772 52 LINE SMOOTH",
"784 17.333 OFFCURVE",
"809.333 0 OFFCURVE",
"848 0 CURVE SMOOTH",
"1040 0 LINE",
"1040 1037 LINE",
"730 1037 LINE",
"730 298 LINE",
"674 247.333 OFFCURVE",
"616 218 OFFCURVE",
"548 218 CURVE SMOOTH",
"457.333 218 OFFCURVE",
"410 276.333 OFFCURVE",
"410 379 CURVE SMOOTH",
"410 1037 LINE"
);
}
);
userData = {
assembly = "NPUSHB[ ]\011/* 16 values pushed */
0 0 0 25 0 25 20 18 12 10 9 8 5 3 6 7 
CALL[ ]\011/* CallFunction */
MPPEM[ ]\011/* MeasurePixelPerEm */
PUSHB[ ]\011/* 1 value pushed */
30 
LT[ ]\011/* LessThan */
IF[ ]\011/* If */
NPUSHB[ ]\011/* 32 values pushed */
7 1 0 1 14 1 2 0 2 30 5 4 2 1 1 14 31 0 0 0 2 1 2 36 3 1 2 2 12 2 32 4 
ELSE[ ]\011/* Else */
MPPEM[ ]\011/* MeasurePixelPerEm */
PUSHB[ ]\011/* 1 value pushed */
94 
LT[ ]\011/* LessThan */
IF[ ]\011/* If */
NPUSHB[ ]\011/* 36 values pushed */
7 1 0 1 14 1 2 0 2 30 5 4 2 1 1 14 31 0 2 2 12 31 0 0 0 3 1 2 36 0 3 3 18 3 32 5 
ELSE[ ]\011/* Else */
MPPEM[ ]\011/* MeasurePixelPerEm */
PUSHB[ ]\011/* 1 value pushed */
232 
LT[ ]\011/* LessThan */
IF[ ]\011/* If */
NPUSHB[ ]\011/* 45 values pushed */
7 1 0 1 14 1 2 0 2 30 0 0 2 3 0 1 0 35 5 4 2 1 0 2 3 1 2 1 0 38 0 0 0 3 1 2 36 0 3 0 3 1 2 33 5 
ELSE[ ]\011/* Else */
NPUSHB[ ]\011/* 52 values pushed */
7 1 0 4 14 1 2 0 2 30 5 1 4 1 0 1 4 0 50 0 0 2 3 0 1 0 35 0 1 0 2 3 1 2 1 0 38 0 0 0 3 1 2 36 0 3 0 3 1 2 33 6 
EIF[ ]\011/* EndIf */
EIF[ ]\011/* EndIf */
EIF[ ]\011/* EndIf */
PUSHB[ ]\011/* 1 value pushed */
56 
CALL[ ]\011/* CallFunction */";
};
width = 1160;
}
);
note = u;
unicode = 0075;
},
{
glyphname = v;
layers = (
{
layerId = "0F82F74C-23B9-402A-A6A2-E1A5FCDC2DA6";
paths = (
{
closed = 1;
nodes = (
"1096 1037 LINE",
"850 1037 LINE SMOOTH",
"810 1037 OFFCURVE",
"778.667 1013.667 OFFCURVE",
"768 983 CURVE SMOOTH",
"618 518 LINE SMOOTH",
"594 442 OFFCURVE",
"571.667 371 OFFCURVE",
"557 299 CURVE",
"542.333 371 OFFCURVE",
"520.667 442 OFFCURVE",
"498 518 CURVE SMOOTH",
"354 983 LINE SMOOTH",
"343.333 1013.667 OFFCURVE",
"312 1037 OFFCURVE",
"268 1037 CURVE SMOOTH",
"10 1037 LINE",
"412 0 LINE",
"694 0 LINE"
);
}
);
userData = {
assembly = "NPUSHB[ ]\011/* 8 values pushed */
18 16 4 2 1 0 3 7 
CALL[ ]\011/* CallFunction */
MPPEM[ ]\011/* MeasurePixelPerEm */
PUSHB[ ]\011/* 1 value pushed */
94 
LT[ ]\011/* LessThan */
IF[ ]\011/* If */
NPUSHB[ ]\011/* 19 values pushed */
10 1 0 1 1 30 2 1 1 1 14 31 0 0 0 12 0 32 3 
ELSE[ ]\011/* Else */
MPPEM[ ]\011/* MeasurePixelPerEm */
PUSHB[ ]\011/* 1 value pushed */
232 
LT[ ]\011/* LessThan */
IF[ ]\011/* If */
NPUSHB[ ]\011/* 17 values pushed */
10 1 0 1 1 30 2 1 1 0 1 52 0 0 0 43 3 
ELSE[ ]\011/* Else */
NPUSHB[ ]\011/* 21 values pushed */
10 1 0 2 1 30 0 1 2 1 52 0 2 0 2 52 0 0 0 43 4 
EIF[ ]\011/* EndIf */
EIF[ ]\011/* EndIf */
PUSHB[ ]\011/* 1 value pushed */
56 
CALL[ ]\011/* CallFunction */";
};
width = 1106;
}
);
note = v;
unicode = 0076;
},
{
glyphname = w;
layers = (
{
layerId = "0F82F74C-23B9-402A-A6A2-E1A5FCDC2DA6";
paths = (
{
closed = 1;
nodes = (
"322 0 LINE",
"562 0 LINE SMOOTH",
"596 0 OFFCURVE",
"618 17.333 OFFCURVE",
"628 52 CURVE SMOOTH",
"778 567 LINE SMOOTH",
"792.667 613.667 OFFCURVE",
"803.667 659.333 OFFCURVE",
"813 706 CURVE",
"822.333 660.667 OFFCURVE",
"834.667 615.667 OFFCURVE",
"848 569 CURVE SMOOTH",
"996 52 LINE SMOOTH",
"1006.667 14.667 OFFCURVE",
"1025.333 0 OFFCURVE",
"1052 0 CURVE SMOOTH",
"1304 0 LINE",
"1626 1037 LINE",
"1390 1037 LINE SMOOTH",
"1350 1037 OFFCURVE",
"1314.667 1015 OFFCURVE",
"1308 983 CURVE SMOOTH",
"1198 518 LINE SMOOTH",
"1180.667 444.667 OFFCURVE",
"1164.667 380.667 OFFCURVE",
"1154 314 CURVE",
"1145.333 348 OFFCURVE",
"1136.167 381.667 OFFCURVE",
"1126.5 415 CURVE SMOOTH",
"1116.833 448.333 OFFCURVE",
"1107.333 482.667 OFFCURVE",
"1098 518 CURVE SMOOTH",
"974 984 LINE SMOOTH",
"966 1014.667 OFFCURVE",
"932 1038 OFFCURVE",
"888 1038 CURVE SMOOTH",
"750 1038 LINE SMOOTH",
"710 1038 OFFCURVE",
"676 1014.667 OFFCURVE",
"668 984 CURVE SMOOTH",
"538 518 LINE SMOOTH",
"528 482 OFFCURVE",
"517.833 447.5 OFFCURVE",
"507.5 414.5 CURVE SMOOTH",
"497.167 381.5 OFFCURVE",
"487.333 348.667 OFFCURVE",
"478 316 CURVE",
"467.333 381.333 OFFCURVE",
"454 447.333 OFFCURVE",
"438 518 CURVE SMOOTH",
"334 983 LINE SMOOTH",
"327.333 1015 OFFCURVE",
"292 1037 OFFCURVE",
"248 1037 CURVE SMOOTH",
"0 1037 LINE"
);
}
);
userData = {
assembly = "NPUSHB[ ]\011/* 12 values pushed */
47 45 34 32 31 29 17 14 2 0 5 7 
CALL[ ]\011/* CallFunction */
MPPEM[ ]\011/* MeasurePixelPerEm */
PUSHB[ ]\011/* 1 value pushed */
94 
LT[ ]\011/* LessThan */
IF[ ]\011/* If */
NPUSHB[ ]\011/* 23 values pushed */
40 23 8 3 3 0 1 30 2 1 2 0 0 14 31 4 1 3 3 12 3 32 3 
ELSE[ ]\011/* Else */
MPPEM[ ]\011/* MeasurePixelPerEm */
PUSHB[ ]\011/* 1 value pushed */
78 
LT[ ]\011/* LessThan */
IF[ ]\011/* If */
NPUSHB[ ]\011/* 21 values pushed */
40 23 8 3 3 0 1 30 2 1 2 0 3 0 52 4 1 3 3 43 3 
ELSE[ ]\011/* Else */
MPPEM[ ]\011/* MeasurePixelPerEm */
PUSHW[ ]\011/* 1 value pushed */
1000 
LT[ ]\011/* LessThan */
IF[ ]\011/* If */
NPUSHB[ ]\011/* 25 values pushed */
40 23 8 3 3 0 1 30 0 1 0 1 52 2 1 0 3 0 52 4 1 3 3 43 4 
ELSE[ ]\011/* Else */
NPUSHB[ ]\011/* 33 values pushed */
40 23 8 3 4 2 1 30 0 1 0 1 52 0 0 2 0 52 0 2 4 2 52 0 4 3 4 52 0 3 3 43 6 
EIF[ ]\011/* EndIf */
EIF[ ]\011/* EndIf */
EIF[ ]\011/* EndIf */
PUSHB[ ]\011/* 1 value pushed */
56 
CALL[ ]\011/* CallFunction */";
};
width = 1626;
}
);
note = w;
unicode = 0077;
},
{
glyphname = x;
layers = (
{
layerId = "0F82F74C-23B9-402A-A6A2-E1A5FCDC2DA6";
paths = (
{
closed = 1;
nodes = (
"20 0 LINE",
"296 0 LINE SMOOTH",
"336 0 OFFCURVE",
"362 26 OFFCURVE",
"378 54 CURVE SMOOTH",
"530 312 LINE SMOOTH",
"540.667 329.333 OFFCURVE",
"550.333 349.333 OFFCURVE",
"557 372 CURVE",
"742 54 LINE SMOOTH",
"759.333 24.667 OFFCURVE",
"784 0 OFFCURVE",
"828 0 CURVE SMOOTH",
"1126 0 LINE",
"778 550 LINE",
"1112 1037 LINE",
"828 1037 LINE SMOOTH",
"797.333 1037 OFFCURVE",
"777.333 1025.667 OFFCURVE",
"760 995 CURVE SMOOTH",
"628 764 LINE SMOOTH",
"613.333 738.667 OFFCURVE",
"601 717 OFFCURVE",
"593 693 CURVE",
"408 1000 LINE SMOOTH",
"392 1026.667 OFFCURVE",
"376 1037 OFFCURVE",
"332 1037 CURVE SMOOTH",
"34 1037 LINE",
"368 536 LINE"
);
}
);
userData = {
assembly = "NPUSHB[ ]\011/* 10 values pushed */
29 27 18 16 14 12 3 1 4 7 
CALL[ ]\011/* CallFunction */
MPPEM[ ]\011/* MeasurePixelPerEm */
PUSHB[ ]\011/* 1 value pushed */
94 
LT[ ]\011/* LessThan */
IF[ ]\011/* If */
NPUSHB[ ]\011/* 23 values pushed */
21 15 6 0 4 2 0 1 30 1 1 0 0 14 31 3 1 2 2 12 2 32 3 
ELSE[ ]\011/* Else */
MPPEM[ ]\011/* MeasurePixelPerEm */
PUSHB[ ]\011/* 1 value pushed */
232 
LT[ ]\011/* LessThan */
IF[ ]\011/* If */
NPUSHB[ ]\011/* 35 values pushed */
21 15 6 0 4 2 0 1 30 1 1 0 2 2 0 1 0 35 1 1 0 0 2 1 0 36 3 1 2 0 2 1 0 33 4 
ELSE[ ]\011/* Else */
NPUSHB[ ]\011/* 42 values pushed */
21 15 6 0 4 3 1 1 30 0 1 3 2 1 1 0 35 0 0 0 3 2 0 3 1 0 38 0 1 1 2 1 0 36 0 2 1 2 1 0 33 5 
EIF[ ]\011/* EndIf */
EIF[ ]\011/* EndIf */
PUSHB[ ]\011/* 1 value pushed */
56 
CALL[ ]\011/* CallFunction */";
};
width = 1146;
}
);
note = x;
unicode = 0078;
},
{
glyphname = y;
layers = (
{
layerId = "0F82F74C-23B9-402A-A6A2-E1A5FCDC2DA6";
paths = (
{
closed = 1;
nodes = (
"1098 1037 LINE",
"848 1037 LINE SMOOTH",
"812 1037 OFFCURVE",
"776.667 1013.667 OFFCURVE",
"766 983 CURVE SMOOTH",
"612 538 LINE SMOOTH",
"604.667 516.667 OFFCURVE",
"597 495.667 OFFCURVE",
"589 475 CURVE SMOOTH",
"581 454.333 OFFCURVE",
"573.667 433.333 OFFCURVE",
"567 412 CURVE",
"557 453.333 OFFCURVE",
"544 494.667 OFFCURVE",
"528 536 CURVE SMOOTH",
"358 983 LINE SMOOTH",
"347.333 1012.333 OFFCURVE",
"322 1037 OFFCURVE",
"274 1037 CURVE SMOOTH",
"0 1037 LINE",
"414 91 LINE",
"214 -329 LINE",
"446 -329 LINE SMOOTH",
"504.667 -329 OFFCURVE",
"525.333 -310.333 OFFCURVE",
"544 -269 CURVE SMOOTH"
);
}
);
userData = {
assembly = "NPUSHB[ ]\011/* 8 values pushed */
21 19 8 6 4 2 3 7 
CALL[ ]\011/* CallFunction */
MPPEM[ ]\011/* MeasurePixelPerEm */
PUSHB[ ]\011/* 1 value pushed */
54 
LT[ ]\011/* LessThan */
IF[ ]\011/* If */
NPUSHB[ ]\011/* 20 values pushed */
13 5 2 0 1 1 30 2 1 1 1 14 31 0 0 0 16 0 32 3 
ELSE[ ]\011/* Else */
MPPEM[ ]\011/* MeasurePixelPerEm */
PUSHB[ ]\011/* 1 value pushed */
94 
LT[ ]\011/* LessThan */
IF[ ]\011/* If */
NPUSHB[ ]\011/* 22 values pushed */
13 5 2 0 1 1 30 0 0 0 1 1 0 36 2 1 1 1 14 0 32 3 
ELSE[ ]\011/* Else */
MPPEM[ ]\011/* MeasurePixelPerEm */
PUSHB[ ]\011/* 1 value pushed */
232 
LT[ ]\011/* LessThan */
IF[ ]\011/* If */
NPUSHB[ ]\011/* 32 values pushed */
13 5 2 0 1 1 30 2 1 1 0 0 1 1 0 35 2 1 1 1 0 1 0 36 0 0 1 0 1 0 33 4 
ELSE[ ]\011/* Else */
NPUSHB[ ]\011/* 38 values pushed */
13 5 2 0 2 1 30 0 2 1 0 1 2 0 50 0 1 2 0 1 1 0 35 0 1 1 0 1 0 36 0 0 1 0 1 0 33 5 
EIF[ ]\011/* EndIf */
EIF[ ]\011/* EndIf */
EIF[ ]\011/* EndIf */
PUSHB[ ]\011/* 1 value pushed */
56 
CALL[ ]\011/* CallFunction */";
};
width = 1106;
}
);
note = y;
unicode = 0079;
},
{
glyphname = z;
layers = (
{
layerId = "0F82F74C-23B9-402A-A6A2-E1A5FCDC2DA6";
paths = (
{
closed = 1;
nodes = (
"894 1037 LINE",
"92 1037 LINE",
"92 807 LINE",
"541 807 LINE",
"104 228 LINE SMOOTH",
"78.667 193.333 OFFCURVE",
"64 151.333 OFFCURVE",
"64 126 CURVE SMOOTH",
"64 0 LINE",
"884 0 LINE",
"884 230 LINE",
"421 230 LINE",
"854 802 LINE SMOOTH",
"875.333 830 OFFCURVE",
"894 870.333 OFFCURVE",
"894 913 CURVE SMOOTH"
);
}
);
userData = {
assembly = "NPUSHB[ ]\011/* 10 values pushed */
15 14 13 12 7 6 5 4 4 7 
CALL[ ]\011/* CallFunction */
MPPEM[ ]\011/* MeasurePixelPerEm */
PUSHB[ ]\011/* 1 value pushed */
94 
LT[ ]\011/* LessThan */
IF[ ]\011/* If */
NPUSHB[ ]\011/* 26 values pushed */
0 2 2 3 0 0 36 0 3 3 14 31 0 0 0 1 0 0 36 0 1 1 12 1 32 4 
ELSE[ ]\011/* Else */
NPUSHB[ ]\011/* 33 values pushed */
0 3 0 2 0 3 2 0 0 38 0 0 1 1 0 0 0 35 0 0 0 1 0 0 36 0 1 0 1 0 0 33 4 
EIF[ ]\011/* EndIf */
PUSHB[ ]\011/* 1 value pushed */
56 
CALL[ ]\011/* CallFunction */";
};
width = 954;
}
);
note = z;
unicode = 007A;
},
{
glyphname = fi;
layers = (
{
layerId = "0F82F74C-23B9-402A-A6A2-E1A5FCDC2DA6";
paths = (
{
closed = 1;
nodes = (
"476 0 LINE",
"476 823 LINE",
"814 823 LINE",
"814 0 LINE",
"1124 0 LINE",
"1124 1035 LINE",
"466 1035 LINE",
"466 1040 LINE SMOOTH",
"466 1121.333 OFFCURVE",
"483.833 1184.5 OFFCURVE",
"536.5 1226.5 CURVE SMOOTH",
"589.167 1268.5 OFFCURVE",
"677.333 1290 OFFCURVE",
"816 1290 CURVE SMOOTH",
"850.667 1290 OFFCURVE",
"887.333 1297.667 OFFCURVE",
"890 1331 CURVE SMOOTH",
"900 1488 LINE",
"853.333 1500 OFFCURVE",
"784 1506 OFFCURVE",
"724 1506 CURVE SMOOTH",
"529.333 1506 OFFCURVE",
"389.667 1454.5 OFFCURVE",
"299 1372.5 CURVE SMOOTH",
"208.333 1290.5 OFFCURVE",
"166 1175.333 OFFCURVE",
"166 1050 CURVE SMOOTH",
"166 1035 LINE",
"20 1035 LINE",
"20 913 LINE SMOOTH",
"20 869 OFFCURVE",
"51.333 848.667 OFFCURVE",
"98 838 CURVE SMOOTH",
"166 824 LINE",
"166 0 LINE"
);
}
);
userData = {
assembly = "NPUSHB[ ]\011/* 20 values pushed */
0 0 0 32 0 32 31 30 29 28 27 26 21 19 14 12 7 6 8 7 
CALL[ ]\011/* CallFunction */
MPPEM[ ]\011/* MeasurePixelPerEm */
PUSHB[ ]\011/* 1 value pushed */
94 
LT[ ]\011/* LessThan */
IF[ ]\011/* If */
NPUSHB[ ]\011/* 45 values pushed */
17 16 2 2 1 1 1 5 0 2 30 0 2 2 1 1 0 36 0 1 1 19 31 0 5 5 0 0 0 36 3 1 0 0 14 31 7 6 2 4 4 12 4 32 6 
ELSE[ ]\011/* Else */
MPPEM[ ]\011/* MeasurePixelPerEm */
PUSHB[ ]\011/* 1 value pushed */
252 
LT[ ]\011/* LessThan */
IF[ ]\011/* If */
NPUSHB[ ]\011/* 43 values pushed */
17 16 2 2 1 1 1 5 0 2 30 7 6 2 4 5 4 53 3 1 0 0 5 4 0 5 0 0 38 0 2 2 1 1 0 36 0 1 1 19 2 32 5 
ELSE[ ]\011/* Else */
MPPEM[ ]\011/* MeasurePixelPerEm */
PUSHB[ ]\011/* 1 value pushed */
232 
LT[ ]\011/* LessThan */
IF[ ]\011/* If */
NPUSHB[ ]\011/* 53 values pushed */
17 16 2 2 1 1 1 5 0 2 30 7 6 2 4 5 4 53 0 1 0 2 0 1 2 1 0 38 3 1 0 5 5 0 0 0 35 3 1 0 0 5 0 0 36 0 5 0 5 0 0 33 6 
ELSE[ ]\011/* Else */
NPUSHB[ ]\011/* 65 values pushed */
17 16 2 2 1 1 1 5 3 2 30 0 0 2 3 2 0 3 50 7 1 6 5 4 5 6 4 50 0 4 4 51 0 1 0 2 0 1 2 1 0 38 0 3 5 5 3 0 0 35 0 3 3 5 0 0 36 0 5 3 5 0 0 33 8 
EIF[ ]\011/* EndIf */
EIF[ ]\011/* EndIf */
EIF[ ]\011/* EndIf */
PUSHB[ ]\011/* 1 value pushed */
56 
CALL[ ]\011/* CallFunction */";
};
width = 1258;
}
);
note = fi;
unicode = FB01;
},
{
glyphname = fl;
layers = (
{
layerId = "0F82F74C-23B9-402A-A6A2-E1A5FCDC2DA6";
paths = (
{
closed = 1;
nodes = (
"476 0 LINE",
"476 823 LINE",
"690 823 LINE",
"690 1035 LINE",
"466 1035 LINE",
"466 1071 LINE SMOOTH",
"466 1204.333 OFFCURVE",
"533.333 1276 OFFCURVE",
"660 1276 CURVE SMOOTH",
"680 1276 OFFCURVE",
"705.833 1275.167 OFFCURVE",
"737.5 1273.5 CURVE SMOOTH",
"769.167 1271.833 OFFCURVE",
"802 1270.333 OFFCURVE",
"836 1269 CURVE",
"836 0 LINE",
"1144 0 LINE",
"1144 1477 LINE",
"970 1477 LINE SMOOTH",
"910.667 1477 OFFCURVE",
"852.167 1479 OFFCURVE",
"794.5 1483 CURVE SMOOTH",
"736.833 1487 OFFCURVE",
"675.333 1489 OFFCURVE",
"610 1489 CURVE SMOOTH",
"455.333 1489 OFFCURVE",
"344 1437.5 OFFCURVE",
"272 1359.5 CURVE SMOOTH",
"200 1281.5 OFFCURVE",
"166 1176.333 OFFCURVE",
"166 1071 CURVE SMOOTH",
"166 1035 LINE",
"20 1035 LINE",
"20 913 LINE SMOOTH",
"20 869 OFFCURVE",
"51.333 848.667 OFFCURVE",
"98 838 CURVE SMOOTH",
"166 824 LINE",
"166 0 LINE"
);
}
);
userData = {
assembly = "NPUSHB[ ]\011/* 20 values pushed */
0 0 0 31 0 31 30 29 28 27 24 20 19 18 17 12 7 6 8 7 
CALL[ ]\011/* CallFunction */
MPPEM[ ]\011/* MeasurePixelPerEm */
PUSHB[ ]\011/* 1 value pushed */
94 
LT[ ]\011/* LessThan */
IF[ ]\011/* If */
NPUSHB[ ]\011/* 40 values pushed */
1 1 5 0 1 30 0 3 3 1 1 0 36 0 1 1 17 31 0 5 5 0 0 0 36 4 1 0 0 14 31 7 6 2 2 2 12 2 32 6 
ELSE[ ]\011/* Else */
MPPEM[ ]\011/* MeasurePixelPerEm */
PUSHB[ ]\011/* 1 value pushed */
232 
LT[ ]\011/* LessThan */
IF[ ]\011/* If */
NPUSHB[ ]\011/* 48 values pushed */
1 1 5 0 1 30 7 6 2 2 5 2 53 0 1 0 3 0 1 3 1 0 38 4 1 0 5 5 0 0 0 35 4 1 0 0 5 0 0 36 0 5 0 5 0 0 33 6 
ELSE[ ]\011/* Else */
NPUSHB[ ]\011/* 60 values pushed */
1 1 5 4 1 30 0 0 3 4 3 0 4 50 7 1 6 5 2 5 6 2 50 0 2 2 51 0 1 0 3 0 1 3 1 0 38 0 4 5 5 4 0 0 35 0 4 4 5 0 0 36 0 5 4 5 0 0 33 8 
EIF[ ]\011/* EndIf */
EIF[ ]\011/* EndIf */
PUSHB[ ]\011/* 1 value pushed */
56 
CALL[ ]\011/* CallFunction */";
};
width = 1276;
}
);
note = fl;
unicode = FB02;
},
{
glyphname = ordfeminine;
layers = (
{
layerId = "0F82F74C-23B9-402A-A6A2-E1A5FCDC2DA6";
paths = (
{
closed = 1;
nodes = (
"646 1229 LINE SMOOTH",
"646 1373.932 OFFCURVE",
"540 1479 OFFCURVE",
"386 1479 CURVE SMOOTH",
"275.333 1479 OFFCURVE",
"178.667 1449.667 OFFCURVE",
"100 1379 CURVE",
"138 1310 LINE",
"152.667 1291.333 OFFCURVE",
"171.333 1270 OFFCURVE",
"202 1270 CURVE SMOOTH",
"267.695 1270 OFFCURVE",
"281.439 1308 OFFCURVE",
"358 1308 CURVE SMOOTH",
"402 1308 OFFCURVE",
"430 1290.333 OFFCURVE",
"430 1229 CURVE SMOOTH",
"430 1213 LINE",
"284.667 1209 OFFCURVE",
"194.333 1179.833 OFFCURVE",
"141 1140.5 CURVE SMOOTH",
"87.667 1101.167 OFFCURVE",
"70 1052.667 OFFCURVE",
"70 1010 CURVE SMOOTH",
"70 898 OFFCURVE",
"142.667 834 OFFCURVE",
"264 834 CURVE SMOOTH",
"344.761 834 OFFCURVE",
"396.043 858.863 OFFCURVE",
"456 911 CURVE",
"468 884 LINE",
"485.333 849.333 OFFCURVE",
"502 842 OFFCURVE",
"542 842 CURVE SMOOTH",
"646 842 LINE"
);
},
{
closed = 1;
nodes = (
"296 980 OFFCURVE",
"282 989.333 OFFCURVE",
"282 1020 CURVE SMOOTH",
"282 1061.297 OFFCURVE",
"327.87 1078.654 OFFCURVE",
"430 1083 CURVE",
"430 1020 LINE",
"398 989.333 OFFCURVE",
"372 980 OFFCURVE",
"336 980 CURVE SMOOTH"
);
}
);
userData = {
assembly = "NPUSHB[ ]\011/* 22 values pushed */
41 40 45 44 40 51 41 51 35 33 28 26 23 21 18 17 11 9 2 0 9 7 
CALL[ ]\011/* CallFunction */
MPPEM[ ]\011/* MeasurePixelPerEm */
PUSHB[ ]\011/* 1 value pushed */
13 
LT[ ]\011/* LessThan */
IF[ ]\011/* If */
NPUSHB[ ]\011/* 53 values pushed */
31 1 3 5 43 1 6 7 5 1 0 6 3 30 8 1 6 7 0 7 6 0 50 1 1 0 0 51 0 2 0 7 6 2 7 1 0 38 4 1 3 3 5 1 0 36 0 5 5 17 3 32 6 
ELSE[ ]\011/* Else */
MPPEM[ ]\011/* MeasurePixelPerEm */
PUSHB[ ]\011/* 1 value pushed */
58 
LT[ ]\011/* LessThan */
IF[ ]\011/* If */
NPUSHB[ ]\011/* 60 values pushed */
31 1 3 5 43 1 6 7 5 1 0 6 3 30 0 4 3 2 3 4 2 50 8 1 6 7 0 7 6 0 50 1 1 0 0 51 0 2 0 7 6 2 7 1 0 38 0 3 3 5 1 0 36 0 5 5 17 3 32 7 
ELSE[ ]\011/* Else */
MPPEM[ ]\011/* MeasurePixelPerEm */
PUSHB[ ]\011/* 1 value pushed */
94 
LT[ ]\011/* LessThan */
IF[ ]\011/* If */
NPUSHB[ ]\011/* 66 values pushed */
31 1 3 5 43 1 6 7 5 1 0 6 3 30 0 4 3 2 3 4 2 50 8 1 6 7 0 7 6 0 50 0 0 1 7 0 1 48 0 1 1 51 0 2 0 7 6 2 7 1 0 38 0 3 3 5 1 0 36 0 5 5 17 3 32 8 
ELSE[ ]\011/* Else */
NPUSHB[ ]\011/* 75 values pushed */
31 1 3 5 43 1 6 7 5 1 0 6 3 30 0 4 3 2 3 4 2 50 8 1 6 7 0 7 6 0 50 0 0 1 7 0 1 48 0 1 1 51 0 5 0 3 4 5 3 1 0 38 0 2 7 7 2 1 0 35 0 2 2 7 1 0 36 0 7 2 7 1 0 33 9 
EIF[ ]\011/* EndIf */
EIF[ ]\011/* EndIf */
EIF[ ]\011/* EndIf */
PUSHB[ ]\011/* 1 value pushed */
56 
CALL[ ]\011/* CallFunction */";
};
width = 706;
}
);
note = ordfeminine;
unicode = 00AA;
},
{
glyphname = ordmasculine;
layers = (
{
layerId = "0F82F74C-23B9-402A-A6A2-E1A5FCDC2DA6";
paths = (
{
closed = 1;
nodes = (
"294.667 1477 OFFCURVE",
"208.333 1446.833 OFFCURVE",
"147 1391.5 CURVE SMOOTH",
"85.667 1336.167 OFFCURVE",
"50 1256 OFFCURVE",
"50 1156 CURVE SMOOTH",
"50 1054.667 OFFCURVE",
"85.667 973 OFFCURVE",
"147 917 CURVE SMOOTH",
"208.333 861 OFFCURVE",
"294.667 830 OFFCURVE",
"396 830 CURVE SMOOTH",
"496 830 OFFCURVE",
"582 861 OFFCURVE",
"642 917 CURVE SMOOTH",
"702 973 OFFCURVE",
"738 1054.667 OFFCURVE",
"738 1156 CURVE SMOOTH",
"738 1256 OFFCURVE",
"702 1336.167 OFFCURVE",
"642 1391.5 CURVE SMOOTH",
"582 1446.833 OFFCURVE",
"496 1477 OFFCURVE",
"396 1477 CURVE SMOOTH"
);
},
{
closed = 1;
nodes = (
"321.333 1004 OFFCURVE",
"292 1046 OFFCURVE",
"292 1154 CURVE SMOOTH",
"292 1262 OFFCURVE",
"321.333 1303 OFFCURVE",
"396 1303 CURVE SMOOTH",
"464 1303 OFFCURVE",
"496 1262 OFFCURVE",
"496 1154 CURVE SMOOTH",
"496 1046 OFFCURVE",
"464 1004 OFFCURVE",
"396 1004 CURVE SMOOTH"
);
}
);
userData = {
assembly = "NPUSHB[ ]\011/* 18 values pushed */
21 20 1 0 27 25 20 31 21 31 11 9 0 19 1 19 6 7 
CALL[ ]\011/* CallFunction */
MPPEM[ ]\011/* MeasurePixelPerEm */
PUSHB[ ]\011/* 1 value pushed */
30 
LT[ ]\011/* LessThan */
IF[ ]\011/* If */
NPUSHB[ ]\011/* 28 values pushed */
0 3 3 0 1 0 36 4 1 0 0 17 31 0 1 1 2 1 0 36 5 1 2 2 14 1 32 4 
ELSE[ ]\011/* Else */
MPPEM[ ]\011/* MeasurePixelPerEm */
PUSHB[ ]\011/* 1 value pushed */
94 
LT[ ]\011/* LessThan */
IF[ ]\011/* If */
NPUSHB[ ]\011/* 25 values pushed */
5 1 2 0 1 2 1 1 0 37 0 3 3 0 1 0 36 4 1 0 0 17 3 32 3 
ELSE[ ]\011/* Else */
NPUSHB[ ]\011/* 36 values pushed */
4 1 0 0 3 2 0 3 1 0 38 5 1 2 1 1 2 1 0 35 5 1 2 2 1 1 0 36 0 1 2 1 1 0 33 4 
EIF[ ]\011/* EndIf */
EIF[ ]\011/* EndIf */
PUSHB[ ]\011/* 1 value pushed */
56 
CALL[ ]\011/* CallFunction */";
};
width = 788;
}
);
note = ordmasculine;
unicode = 00BA;
},
{
glyphname = pi;
layers = (
{
layerId = "0F82F74C-23B9-402A-A6A2-E1A5FCDC2DA6";
paths = (
{
closed = 1;
nodes = (
"162 1037 LINE SMOOTH",
"95.039 1037 OFFCURVE",
"48 981.914 OFFCURVE",
"48 932 CURVE SMOOTH",
"48 824 LINE",
"218 824 LINE",
"218 287 LINE SMOOTH",
"218 220.184 OFFCURVE",
"199.849 199 OFFCURVE",
"126 199 CURVE SMOOTH",
"74 199 OFFCURVE",
"63.333 174.667 OFFCURVE",
"62 148 CURVE SMOOTH",
"54 21 LINE",
"108.667 -5.667 OFFCURVE",
"171.333 -16 OFFCURVE",
"222 -16 CURVE SMOOTH",
"335.333 -16 OFFCURVE",
"412 14.667 OFFCURVE",
"460 68 CURVE SMOOTH",
"508 121.333 OFFCURVE",
"528 196 OFFCURVE",
"528 284 CURVE SMOOTH",
"528 824 LINE",
"814 824 LINE",
"814 0 LINE",
"1124 0 LINE",
"1124 824 LINE",
"1204 824 LINE SMOOTH",
"1264 824 OFFCURVE",
"1298 866.333 OFFCURVE",
"1298 917 CURVE SMOOTH",
"1298 1037 LINE"
);
}
);
userData = {
assembly = "NPUSHB[ ]\011/* 20 values pushed */
0 0 0 35 0 34 29 28 23 21 16 14 9 8 7 6 5 3 8 7 
CALL[ ]\011/* CallFunction */
MPPEM[ ]\011/* MeasurePixelPerEm */
PUSHB[ ]\011/* 1 value pushed */
30 
LT[ ]\011/* LessThan */
IF[ ]\011/* If */
NPUSHB[ ]\011/* 37 values pushed */
18 1 1 4 1 30 0 4 0 1 0 4 1 50 5 2 2 0 0 6 1 0 36 7 1 6 6 14 31 3 1 1 1 12 1 32 5 
ELSE[ ]\011/* Else */
MPPEM[ ]\011/* MeasurePixelPerEm */
PUSHB[ ]\011/* 1 value pushed */
94 
LT[ ]\011/* LessThan */
IF[ ]\011/* If */
NPUSHB[ ]\011/* 41 values pushed */
18 1 1 4 1 30 0 4 0 1 0 4 1 50 5 2 2 0 0 6 1 0 36 7 1 6 6 14 31 0 1 1 12 31 0 3 3 18 3 32 6 
ELSE[ ]\011/* Else */
MPPEM[ ]\011/* MeasurePixelPerEm */
PUSHB[ ]\011/* 1 value pushed */
232 
LT[ ]\011/* LessThan */
IF[ ]\011/* If */
NPUSHB[ ]\011/* 52 values pushed */
18 1 1 4 1 30 0 4 0 1 0 4 1 50 0 1 3 0 1 3 48 0 3 3 51 7 1 6 0 0 6 1 0 35 7 1 6 6 0 0 0 36 5 2 2 0 6 0 0 0 33 7 
ELSE[ ]\011/* Else */
NPUSHB[ ]\011/* 63 values pushed */
18 1 1 4 1 30 0 5 6 2 2 5 42 0 0 2 4 2 0 42 0 4 1 2 4 1 48 0 1 3 2 1 3 48 0 3 3 51 7 1 6 5 2 6 1 2 35 7 1 6 6 2 0 0 36 0 2 6 2 0 0 33 9 
EIF[ ]\011/* EndIf */
EIF[ ]\011/* EndIf */
EIF[ ]\011/* EndIf */
PUSHB[ ]\011/* 1 value pushed */
56 
CALL[ ]\011/* CallFunction */";
};
width = 1336;
}
);
note = pi;
unicode = 03C0;
},
{
glyphname = zero;
layers = (
{
layerId = "0F82F74C-23B9-402A-A6A2-E1A5FCDC2DA6";
paths = (
{
closed = 1;
nodes = (
"1120 983.667 OFFCURVE",
"1062.167 1169.333 OFFCURVE",
"965.5 1292 CURVE SMOOTH",
"868.833 1414.667 OFFCURVE",
"732.667 1473 OFFCURVE",
"578 1473 CURVE SMOOTH",
"423.333 1473 OFFCURVE",
"289 1414.667 OFFCURVE",
"193 1292 CURVE SMOOTH",
"97 1169.333 OFFCURVE",
"40 983.667 OFFCURVE",
"40 729 CURVE SMOOTH",
"40 474.333 OFFCURVE",
"97 288.667 OFFCURVE",
"193 166 CURVE SMOOTH",
"289 43.333 OFFCURVE",
"423.333 -16 OFFCURVE",
"578 -16 CURVE SMOOTH",
"732.667 -16 OFFCURVE",
"868.833 43.333 OFFCURVE",
"965.5 166 CURVE SMOOTH",
"1062.167 288.667 OFFCURVE",
"1120 474.333 OFFCURVE",
"1120 729 CURVE SMOOTH"
);
},
{
closed = 1;
nodes = (
"800 526.333 OFFCURVE",
"772.5 403.5 OFFCURVE",
"730.5 329.5 CURVE SMOOTH",
"688.5 255.5 OFFCURVE",
"632.667 233 OFFCURVE",
"578 233 CURVE SMOOTH",
"523.333 233 OFFCURVE",
"468.167 255.5 OFFCURVE",
"427.5 329.5 CURVE SMOOTH",
"386.833 403.5 OFFCURVE",
"360 526.333 OFFCURVE",
"360 729 CURVE SMOOTH",
"360 930.333 OFFCURVE",
"386.833 1054.667 OFFCURVE",
"427.5 1128 CURVE SMOOTH",
"468.167 1201.333 OFFCURVE",
"523.333 1224 OFFCURVE",
"578 1224 CURVE SMOOTH",
"632.667 1224 OFFCURVE",
"688.5 1201.333 OFFCURVE",
"730.5 1128 CURVE SMOOTH",
"772.5 1054.667 OFFCURVE",
"800 930.333 OFFCURVE",
"800 729 CURVE SMOOTH"
);
}
);
userData = {
assembly = "NPUSHB[ ]\011/* 10 values pushed */
36 34 26 24 16 14 6 4 4 7 
CALL[ ]\011/* CallFunction */
MPPEM[ ]\011/* MeasurePixelPerEm */
PUSHB[ ]\011/* 1 value pushed */
94 
LT[ ]\011/* LessThan */
IF[ ]\011/* If */
NPUSHB[ ]\011/* 26 values pushed */
0 2 2 1 1 0 36 0 1 1 17 31 0 3 3 0 1 0 36 0 0 0 18 0 32 4 
ELSE[ ]\011/* Else */
NPUSHB[ ]\011/* 33 values pushed */
0 1 0 2 3 1 2 1 0 38 0 3 0 0 3 1 0 35 0 3 3 0 1 0 36 0 0 3 0 1 0 33 4 
EIF[ ]\011/* EndIf */
PUSHB[ ]\011/* 1 value pushed */
56 
CALL[ ]\011/* CallFunction */";
};
width = 1160;
}
);
note = zero;
unicode = 0030;
},
{
glyphname = one;
layers = (
{
layerId = "0F82F74C-23B9-402A-A6A2-E1A5FCDC2DA6";
paths = (
{
closed = 1;
nodes = (
"252 0 LINE",
"1082 0 LINE",
"1082 224 LINE",
"842 224 LINE",
"842 1458 LINE",
"586 1458 LINE",
"132 1077 LINE",
"230 947 LINE SMOOTH",
"243.333 929.667 OFFCURVE",
"272.333 911 OFFCURVE",
"307 911 CURVE SMOOTH",
"327 911 OFFCURVE",
"348.667 917.667 OFFCURVE",
"370 935 CURVE SMOOTH",
"535 1072 LINE",
"533 1032.667 OFFCURVE",
"532 995 OFFCURVE",
"532 959 CURVE SMOOTH",
"532 224 LINE",
"252 224 LINE"
);
}
);
userData = {
assembly = "NPUSHB[ ]\011/* 12 values pushed */
18 17 16 15 14 13 9 7 1 0 5 7 
CALL[ ]\011/* CallFunction */
MPPEM[ ]\011/* MeasurePixelPerEm */
PUSHB[ ]\011/* 1 value pushed */
94 
LT[ ]\011/* LessThan */
IF[ ]\011/* If */
NPUSHB[ ]\011/* 35 values pushed */
12 4 2 1 2 1 30 0 1 2 0 2 1 0 50 0 2 2 11 31 3 1 0 0 4 0 2 36 0 4 4 12 4 32 5 
ELSE[ ]\011/* Else */
MPPEM[ ]\011/* MeasurePixelPerEm */
PUSHB[ ]\011/* 1 value pushed */
232 
LT[ ]\011/* LessThan */
IF[ ]\011/* If */
NPUSHB[ ]\011/* 42 values pushed */
12 4 2 1 2 1 30 0 2 1 2 52 0 1 0 1 52 3 1 0 4 4 0 0 0 35 3 1 0 0 4 0 2 36 0 4 0 4 0 2 33 6 
ELSE[ ]\011/* Else */
NPUSHB[ ]\011/* 47 values pushed */
12 4 2 1 2 1 30 0 2 1 2 52 0 1 0 1 52 0 3 0 4 0 3 42 0 0 3 4 0 0 0 35 0 0 0 4 0 2 36 0 4 0 4 0 2 33 7 
EIF[ ]\011/* EndIf */
EIF[ ]\011/* EndIf */
PUSHB[ ]\011/* 1 value pushed */
56 
CALL[ ]\011/* CallFunction */";
};
width = 1160;
}
);
note = one;
unicode = 0031;
},
{
glyphname = two;
layers = (
{
layerId = "0F82F74C-23B9-402A-A6A2-E1A5FCDC2DA6";
paths = (
{
closed = 1;
nodes = (
"468.667 1473 OFFCURVE",
"350.5 1438 OFFCURVE",
"260.5 1366 CURVE SMOOTH",
"170.5 1294 OFFCURVE",
"107.333 1186.333 OFFCURVE",
"86 1041 CURVE",
"250 1012 LINE SMOOTH",
"266 1009.333 OFFCURVE",
"281.667 1008 OFFCURVE",
"295 1008 CURVE SMOOTH",
"351 1008 OFFCURVE",
"380.667 1033 OFFCURVE",
"402 1093 CURVE SMOOTH",
"429.163 1166.34 OFFCURVE",
"494.725 1220 OFFCURVE",
"584 1220 CURVE SMOOTH",
"697.333 1220 OFFCURVE",
"752 1156 OFFCURVE",
"752 1040 CURVE SMOOTH",
"752 969.333 OFFCURVE",
"734.667 907.833 OFFCURVE",
"700 844.5 CURVE SMOOTH",
"665.333 781.167 OFFCURVE",
"612 717 OFFCURVE",
"540 645 CURVE SMOOTH",
"120 222 LINE",
"80 186 OFFCURVE",
"66 138.667 OFFCURVE",
"66 100 CURVE SMOOTH",
"66 0 LINE",
"1090 0 LINE",
"1090 180 LINE SMOOTH",
"1090 240 OFFCURVE",
"1048.667 280 OFFCURVE",
"982 280 CURVE SMOOTH",
"710 280 LINE SMOOTH",
"647.333 280 OFFCURVE",
"574.333 266.333 OFFCURVE",
"501 245 CURVE",
"786 537 LINE SMOOTH",
"863.333 615.667 OFFCURVE",
"934 690.5 OFFCURVE",
"986 772.5 CURVE SMOOTH",
"1038 854.5 OFFCURVE",
"1070 943.333 OFFCURVE",
"1070 1050 CURVE SMOOTH",
"1070 1174 OFFCURVE",
"1025.333 1279.333 OFFCURVE",
"944 1354 CURVE SMOOTH",
"862.667 1428.667 OFFCURVE",
"746 1473 OFFCURVE",
"602 1473 CURVE SMOOTH"
);
}
);
userData = {
assembly = "NPUSHB[ ]\011/* 16 values pushed */
1 0 42 40 34 32 20 19 16 13 0 49 1 49 6 7 
CALL[ ]\011/* CallFunction */
MPPEM[ ]\011/* MeasurePixelPerEm */
PUSHB[ ]\011/* 1 value pushed */
94 
LT[ ]\011/* LessThan */
IF[ ]\011/* If */
NPUSHB[ ]\011/* 45 values pushed */
45 1 4 3 11 1 2 1 2 30 0 4 3 1 3 4 1 50 0 3 3 0 1 0 36 5 1 0 0 17 31 0 1 1 2 0 0 36 0 2 2 12 2 32 6 
ELSE[ ]\011/* Else */
NPUSHB[ ]\011/* 52 values pushed */
45 1 4 3 11 1 2 1 2 30 0 4 3 1 3 4 1 50 5 1 0 0 3 4 0 3 1 0 38 0 1 2 2 1 1 0 35 0 1 1 2 0 0 36 0 2 1 2 0 0 33 6 
EIF[ ]\011/* EndIf */
PUSHB[ ]\011/* 1 value pushed */
56 
CALL[ ]\011/* CallFunction */";
};
width = 1160;
}
);
note = two;
unicode = 0032;
},
{
glyphname = three;
layers = (
{
layerId = "0F82F74C-23B9-402A-A6A2-E1A5FCDC2DA6";
paths = (
{
closed = 1;
nodes = (
"496.667 1473 OFFCURVE",
"378.5 1438 OFFCURVE",
"288.5 1366 CURVE SMOOTH",
"198.5 1294 OFFCURVE",
"135.333 1186.333 OFFCURVE",
"114 1041 CURVE",
"278 1012 LINE SMOOTH",
"294 1009.333 OFFCURVE",
"309.667 1008 OFFCURVE",
"323 1008 CURVE SMOOTH",
"379 1008 OFFCURVE",
"408.667 1033 OFFCURVE",
"430 1093 CURVE SMOOTH",
"457.163 1166.34 OFFCURVE",
"522.725 1220 OFFCURVE",
"612 1220 CURVE SMOOTH",
"725.333 1220 OFFCURVE",
"780 1155.667 OFFCURVE",
"780 1041 CURVE SMOOTH",
"780 985 OFFCURVE",
"770.167 937.167 OFFCURVE",
"729.5 904.5 CURVE SMOOTH",
"688.833 871.833 OFFCURVE",
"617.333 852 OFFCURVE",
"496 852 CURVE",
"496 638 LINE",
"640 638 OFFCURVE",
"715 618 OFFCURVE",
"755 582 CURVE SMOOTH",
"795 546 OFFCURVE",
"798 495.667 OFFCURVE",
"798 433 CURVE SMOOTH",
"798 329.787 OFFCURVE",
"720.924 237 OFFCURVE",
"592 237 CURVE SMOOTH",
"501.333 237 OFFCURVE",
"438 284.333 OFFCURVE",
"378 395 CURVE SMOOTH",
"360.667 427 OFFCURVE",
"324.667 444 OFFCURVE",
"282 444 CURVE SMOOTH",
"259.333 444 OFFCURVE",
"236 440.667 OFFCURVE",
"212 430 CURVE SMOOTH",
"74 374 LINE",
"120.667 238 OFFCURVE",
"183 139.833 OFFCURVE",
"267 76.5 CURVE SMOOTH",
"351 13.167 OFFCURVE",
"457.333 -16 OFFCURVE",
"596 -16 CURVE SMOOTH",
"730.667 -16 OFFCURVE",
"859.5 22 OFFCURVE",
"953.5 98 CURVE SMOOTH",
"1047.5 174 OFFCURVE",
"1108 288.333 OFFCURVE",
"1108 443 CURVE SMOOTH",
"1108 606.333 OFFCURVE",
"1027.333 716 OFFCURVE",
"866 772 CURVE",
"935.333 796 OFFCURVE",
"989.833 831.167 OFFCURVE",
"1026.5 882.5 CURVE SMOOTH",
"1063.167 933.833 OFFCURVE",
"1082 1003 OFFCURVE",
"1082 1095 CURVE SMOOTH",
"1082 1196.333 OFFCURVE",
"1041.333 1290.667 OFFCURVE",
"964 1360 CURVE SMOOTH",
"886.667 1429.333 OFFCURVE",
"774 1473 OFFCURVE",
"630 1473 CURVE SMOOTH"
);
}
);
userData = {
assembly = "NPUSHB[ ]\011/* 22 values pushed */
1 0 60 58 52 50 44 43 42 41 33 31 27 25 18 16 0 67 1 67 9 7 
CALL[ ]\011/* CallFunction */
MPPEM[ ]\011/* MeasurePixelPerEm */
PUSHB[ ]\011/* 1 value pushed */
94 
LT[ ]\011/* LessThan */
IF[ ]\011/* If */
NPUSHB[ ]\011/* 67 values pushed */
63 1 7 6 10 1 4 5 22 1 3 2 3 30 0 7 6 5 6 7 5 50 0 2 4 3 4 2 3 50 0 5 0 4 2 5 4 1 0 38 0 6 6 0 1 0 36 8 1 0 0 17 31 0 3 3 1 1 0 36 0 1 1 18 1 32 8 
ELSE[ ]\011/* Else */
NPUSHB[ ]\011/* 74 values pushed */
63 1 7 6 10 1 4 5 22 1 3 2 3 30 0 7 6 5 6 7 5 50 0 2 4 3 4 2 3 50 8 1 0 0 6 7 0 6 1 0 38 0 5 0 4 2 5 4 1 0 38 0 3 1 1 3 1 0 35 0 3 3 1 1 0 36 0 1 3 1 1 0 33 8 
EIF[ ]\011/* EndIf */
PUSHB[ ]\011/* 1 value pushed */
56 
CALL[ ]\011/* CallFunction */";
};
width = 1160;
}
);
note = three;
unicode = 0033;
},
{
glyphname = four;
layers = (
{
layerId = "0F82F74C-23B9-402A-A6A2-E1A5FCDC2DA6";
paths = (
{
closed = 1;
nodes = (
"976 1457 LINE",
"680 1457 LINE",
"6 551 LINE",
"38 398 LINE SMOOTH",
"46 362 OFFCURVE",
"81.333 335 OFFCURVE",
"120 335 CURVE SMOOTH",
"706 335 LINE",
"706 0 LINE",
"976 0 LINE",
"976 335 LINE",
"1066 335 LINE SMOOTH",
"1104.667 335 OFFCURVE",
"1126 361.333 OFFCURVE",
"1126 392 CURVE SMOOTH",
"1126 566 LINE",
"976 566 LINE"
);
},
{
closed = 1;
nodes = (
"706 566 LINE",
"331 566 LINE",
"716 1105 LINE",
"709.333 1047.667 OFFCURVE",
"706 992.667 OFFCURVE",
"706 946 CURVE SMOOTH"
);
}
);
userData = {
assembly = "NPUSHB[ ]\011/* 14 values pushed */
22 21 16 15 11 9 8 7 6 4 1 0 6 7 
CALL[ ]\011/* CallFunction */
MPPEM[ ]\011/* MeasurePixelPerEm */
PUSHB[ ]\011/* 1 value pushed */
94 
LT[ ]\011/* LessThan */
IF[ ]\011/* If */
NPUSHB[ ]\011/* 30 values pushed */
20 1 0 4 1 30 5 1 0 3 1 1 2 0 1 1 2 38 0 4 4 11 31 0 2 2 12 2 32 4 
ELSE[ ]\011/* Else */
MPPEM[ ]\011/* MeasurePixelPerEm */
PUSHB[ ]\011/* 1 value pushed */
232 
LT[ ]\011/* LessThan */
IF[ ]\011/* If */
NPUSHB[ ]\011/* 42 values pushed */
20 1 0 4 1 30 0 4 0 4 52 0 2 1 2 53 5 1 0 1 1 0 0 0 35 5 1 0 0 1 1 2 36 3 1 1 0 1 1 2 33 6 
ELSE[ ]\011/* Else */
NPUSHB[ ]\011/* 49 values pushed */
20 1 0 4 1 30 0 4 0 4 52 0 2 1 2 53 0 0 5 1 0 0 0 35 0 5 0 3 1 5 3 1 2 38 0 0 0 1 1 0 36 0 1 0 1 1 0 33 7 
EIF[ ]\011/* EndIf */
EIF[ ]\011/* EndIf */
PUSHB[ ]\011/* 1 value pushed */
56 
CALL[ ]\011/* CallFunction */";
};
width = 1160;
}
);
note = four;
unicode = 0034;
},
{
glyphname = five;
layers = (
{
layerId = "0F82F74C-23B9-402A-A6A2-E1A5FCDC2DA6";
paths = (
{
closed = 1;
nodes = (
"998 1457 LINE",
"252 1457 LINE",
"128 728 LINE",
"320 676 LINE",
"382.667 700.667 OFFCURVE",
"446.667 713 OFFCURVE",
"512 713 CURVE SMOOTH",
"658.667 713 OFFCURVE",
"742 637.333 OFFCURVE",
"742 496 CURVE SMOOTH",
"742 345.479 OFFCURVE",
"672.825 235 OFFCURVE",
"512 235 CURVE SMOOTH",
"429.333 235 OFFCURVE",
"376.5 260.5 OFFCURVE",
"334.5 286.5 CURVE SMOOTH",
"295.9 310.395 OFFCURVE",
"257.472 339 OFFCURVE",
"220 339 CURVE SMOOTH",
"189.333 339 OFFCURVE",
"162 324.667 OFFCURVE",
"142 298 CURVE SMOOTH",
"46 170 LINE",
"98 119.333 OFFCURVE",
"162.167 73.5 OFFCURVE",
"237.5 39.5 CURVE SMOOTH",
"312.833 5.5 OFFCURVE",
"399.333 -16 OFFCURVE",
"494 -16 CURVE SMOOTH",
"656.667 -16 OFFCURVE",
"796.333 37.667 OFFCURVE",
"895 131 CURVE SMOOTH",
"993.667 224.333 OFFCURVE",
"1052 355 OFFCURVE",
"1052 511 CURVE SMOOTH",
"1052 635 OFFCURVE",
"1011 746.833 OFFCURVE",
"931 827.5 CURVE SMOOTH",
"851 908.167 OFFCURVE",
"733.333 958 OFFCURVE",
"580 958 CURVE SMOOTH",
"532 958 OFFCURVE",
"481.667 953.333 OFFCURVE",
"427 944 CURVE",
"468 1185 LINE",
"816 1185 LINE SMOOTH",
"936.725 1185 OFFCURVE",
"998 1236.105 OFFCURVE",
"998 1329 CURVE SMOOTH"
);
}
);
userData = {
assembly = "NPUSHB[ ]\011/* 16 values pushed */
47 46 43 41 35 33 30 28 21 19 11 9 6 4 7 7 
CALL[ ]\011/* CallFunction */
MPPEM[ ]\011/* MeasurePixelPerEm */
PUSHB[ ]\011/* 1 value pushed */
94 
LT[ ]\011/* LessThan */
IF[ ]\011/* If */
NPUSHB[ ]\011/* 59 values pushed */
45 7 2 5 1 44 1 3 5 25 1 2 4 3 30 0 3 5 4 5 3 4 50 0 1 0 5 3 1 5 1 0 38 0 0 0 6 0 0 36 0 6 6 11 31 0 4 4 2 1 0 36 0 2 2 18 2 32 7 
ELSE[ ]\011/* Else */
NPUSHB[ ]\011/* 66 values pushed */
45 7 2 5 1 44 1 3 5 25 1 2 4 3 30 0 3 5 4 5 3 4 50 0 6 0 0 1 6 0 1 0 38 0 1 0 5 3 1 5 1 0 38 0 4 2 2 4 1 0 35 0 4 4 2 1 0 36 0 2 4 2 1 0 33 7 
EIF[ ]\011/* EndIf */
PUSHB[ ]\011/* 1 value pushed */
56 
CALL[ ]\011/* CallFunction */";
};
width = 1160;
}
);
note = five;
unicode = 0035;
},
{
glyphname = six;
layers = (
{
layerId = "0F82F74C-23B9-402A-A6A2-E1A5FCDC2DA6";
paths = (
{
closed = 1;
nodes = (
"629.333 923 OFFCURVE",
"578.667 913.333 OFFCURVE",
"532 896 CURVE",
"544 910.667 OFFCURVE",
"556.667 926.333 OFFCURVE",
"570 941 CURVE",
"1002 1457 LINE",
"726 1457 LINE SMOOTH",
"651.333 1457 OFFCURVE",
"589.333 1426 OFFCURVE",
"560 1386 CURVE SMOOTH",
"232 943 LINE SMOOTH",
"122.667 793.667 OFFCURVE",
"66 651.333 OFFCURVE",
"66 506 CURVE SMOOTH",
"66 352.667 OFFCURVE",
"114.5 222 OFFCURVE",
"204.5 130 CURVE SMOOTH",
"294.5 38 OFFCURVE",
"425.333 -16 OFFCURVE",
"588 -16 CURVE SMOOTH",
"746.667 -16 OFFCURVE",
"879.833 41.167 OFFCURVE",
"972.5 132.5 CURVE SMOOTH",
"1065.167 223.833 OFFCURVE",
"1118 350 OFFCURVE",
"1118 486 CURVE SMOOTH",
"1118 635.333 OFFCURVE",
"1063.333 745 OFFCURVE",
"982 817 CURVE SMOOTH",
"900.667 889 OFFCURVE",
"793.333 923 OFFCURVE",
"688 923 CURVE SMOOTH"
);
},
{
closed = 1;
nodes = (
"364 603.769 OFFCURVE",
"451.167 699 OFFCURVE",
"578 699 CURVE SMOOTH",
"718.424 699 OFFCURVE",
"808 609.648 OFFCURVE",
"808 463 CURVE SMOOTH",
"808 331.239 OFFCURVE",
"709.701 229 OFFCURVE",
"582 229 CURVE SMOOTH",
"434.922 229 OFFCURVE",
"364 318.828 OFFCURVE",
"364 464 CURVE SMOOTH"
);
}
);
userData = {
assembly = "NPUSHB[ ]\011/* 16 values pushed */
1 0 46 44 36 34 23 21 11 9 0 29 1 29 6 7 
CALL[ ]\011/* CallFunction */
MPPEM[ ]\011/* MeasurePixelPerEm */
PUSHB[ ]\011/* 1 value pushed */
94 
LT[ ]\011/* LessThan */
IF[ ]\011/* If */
NPUSHB[ ]\011/* 41 values pushed */
27 1 4 0 1 30 5 1 0 2 4 2 0 4 50 0 4 3 2 4 3 48 0 2 2 11 31 0 3 3 1 1 2 36 0 1 1 18 1 32 6 
ELSE[ ]\011/* Else */
NPUSHB[ ]\011/* 45 values pushed */
27 1 4 0 1 30 0 2 0 2 52 5 1 0 4 0 52 0 4 3 4 52 0 3 1 1 3 1 0 35 0 3 3 1 1 2 36 0 1 3 1 1 2 33 7 
EIF[ ]\011/* EndIf */
PUSHB[ ]\011/* 1 value pushed */
56 
CALL[ ]\011/* CallFunction */";
};
width = 1160;
}
);
note = six;
unicode = 0036;
},
{
glyphname = seven;
layers = (
{
layerId = "0F82F74C-23B9-402A-A6A2-E1A5FCDC2DA6";
paths = (
{
closed = 1;
nodes = (
"82 1457 LINE",
"82 1253 LINE SMOOTH",
"82 1217.501 OFFCURVE",
"115.953 1185 OFFCURVE",
"152 1185 CURVE SMOOTH",
"793 1185 LINE",
"754.333 1143.667 OFFCURVE",
"722 1100.333 OFFCURVE",
"694 1043 CURVE SMOOTH",
"174 0 LINE",
"400 0 LINE SMOOTH",
"485.333 0 OFFCURVE",
"535.333 44.667 OFFCURVE",
"562 102 CURVE SMOOTH",
"1071 1180 LINE SMOOTH",
"1085.667 1212 OFFCURVE",
"1106 1253.667 OFFCURVE",
"1106 1327 CURVE SMOOTH",
"1106 1457 LINE"
);
}
);
userData = {
assembly = "NPUSHB[ ]\011/* 12 values pushed */
0 0 0 20 0 20 15 13 9 7 4 7 
CALL[ ]\011/* CallFunction */
MPPEM[ ]\011/* MeasurePixelPerEm */
PUSHB[ ]\011/* 1 value pushed */
94 
LT[ ]\011/* LessThan */
IF[ ]\011/* If */
NPUSHB[ ]\011/* 20 values pushed */
0 1 1 2 0 0 36 3 1 2 2 11 31 0 0 0 12 0 32 3 
ELSE[ ]\011/* Else */
NPUSHB[ ]\011/* 30 values pushed */
0 0 1 0 53 3 1 2 1 1 2 0 0 35 3 1 2 2 1 1 0 36 0 1 2 1 1 0 33 4 
EIF[ ]\011/* EndIf */
PUSHB[ ]\011/* 1 value pushed */
56 
CALL[ ]\011/* CallFunction */";
};
width = 1160;
}
);
note = seven;
unicode = 0037;
},
{
glyphname = eight;
layers = (
{
layerId = "0F82F74C-23B9-402A-A6A2-E1A5FCDC2DA6";
paths = (
{
closed = 1;
nodes = (
"734.667 -16 OFFCURVE",
"865.167 27.167 OFFCURVE",
"956.5 102.5 CURVE SMOOTH",
"1047.833 177.833 OFFCURVE",
"1100 286.333 OFFCURVE",
"1100 417 CURVE SMOOTH",
"1100 495.667 OFFCURVE",
"1081.833 566.5 OFFCURVE",
"1042.5 624.5 CURVE SMOOTH",
"1003.167 682.5 OFFCURVE",
"941.667 728.333 OFFCURVE",
"855 759 CURVE",
"987 819 OFFCURVE",
"1052 926.667 OFFCURVE",
"1052 1076 CURVE SMOOTH",
"1052 1189.333 OFFCURVE",
"1003 1288.333 OFFCURVE",
"919 1359 CURVE SMOOTH",
"835 1429.667 OFFCURVE",
"717.333 1473 OFFCURVE",
"580 1473 CURVE SMOOTH",
"442.667 1473 OFFCURVE",
"325 1429.667 OFFCURVE",
"241 1359 CURVE SMOOTH",
"157 1288.333 OFFCURVE",
"108 1189.333 OFFCURVE",
"108 1076 CURVE SMOOTH",
"108 926.667 OFFCURVE",
"171.667 819 OFFCURVE",
"305 759 CURVE",
"217 728.333 OFFCURVE",
"155.833 682.5 OFFCURVE",
"116.5 624.5 CURVE SMOOTH",
"77.167 566.5 OFFCURVE",
"60 495.667 OFFCURVE",
"60 417 CURVE SMOOTH",
"60 286.333 OFFCURVE",
"112.167 177.833 OFFCURVE",
"203.5 102.5 CURVE SMOOTH",
"294.833 27.167 OFFCURVE",
"425.333 -16 OFFCURVE",
"580 -16 CURVE SMOOTH"
);
},
{
closed = 1;
nodes = (
"444.923 218 OFFCURVE",
"380 303.326 OFFCURVE",
"380 423 CURVE SMOOTH",
"380 554.702 OFFCURVE",
"433.883 634 OFFCURVE",
"580 634 CURVE SMOOTH",
"726.117 634 OFFCURVE",
"780 554.702 OFFCURVE",
"780 423 CURVE SMOOTH",
"780 302.894 OFFCURVE",
"714.706 218 OFFCURVE",
"580 218 CURVE SMOOTH"
);
},
{
closed = 1;
nodes = (
"448.685 870 OFFCURVE",
"410 958.254 OFFCURVE",
"410 1070 CURVE SMOOTH",
"410 1167.805 OFFCURVE",
"461.977 1247 OFFCURVE",
"580 1247 CURVE SMOOTH",
"697.209 1247 OFFCURVE",
"750 1167.778 OFFCURVE",
"750 1070 CURVE SMOOTH",
"750 958.254 OFFCURVE",
"711.315 870 OFFCURVE",
"580 870 CURVE SMOOTH"
);
}
);
userData = {
assembly = "NPUSHB[ ]\011/* 26 values pushed */
57 56 37 36 1 0 67 65 56 75 57 75 47 45 36 55 37 55 19 17 0 35 1 35 9 7 
CALL[ ]\011/* CallFunction */
MPPEM[ ]\011/* MeasurePixelPerEm */
PUSHB[ ]\011/* 1 value pushed */
94 
LT[ ]\011/* LessThan */
IF[ ]\011/* If */
NPUSHB[ ]\011/* 46 values pushed */
26 10 2 3 4 1 30 8 1 4 0 3 2 4 3 1 0 38 0 5 5 1 1 0 36 0 1 1 17 31 7 1 2 2 0 1 0 36 6 1 0 0 18 0 32 6 
ELSE[ ]\011/* Else */
NPUSHB[ ]\011/* 54 values pushed */
26 10 2 3 4 1 30 0 1 0 5 4 1 5 1 0 38 8 1 4 0 3 2 4 3 1 0 38 7 1 2 0 0 2 1 0 35 7 1 2 2 0 1 0 36 6 1 0 2 0 1 0 33 6 
EIF[ ]\011/* EndIf */
PUSHB[ ]\011/* 1 value pushed */
56 
CALL[ ]\011/* CallFunction */";
};
width = 1160;
}
);
note = eight;
unicode = 0038;
},
{
glyphname = nine;
layers = (
{
layerId = "0F82F74C-23B9-402A-A6A2-E1A5FCDC2DA6";
paths = (
{
closed = 1;
nodes = (
"589.333 568 OFFCURVE",
"661 584 OFFCURVE",
"721 616 CURVE",
"705 594.667 OFFCURVE",
"688.667 574.667 OFFCURVE",
"670 552 CURVE SMOOTH",
"208 0 LINE",
"494 0 LINE SMOOTH",
"566 0 OFFCURVE",
"627.333 30.333 OFFCURVE",
"654 69 CURVE SMOOTH",
"968 515 LINE SMOOTH",
"1016 583 OFFCURVE",
"1055.167 651.833 OFFCURVE",
"1082.5 728.5 CURVE SMOOTH",
"1109.833 805.167 OFFCURVE",
"1126 888 OFFCURVE",
"1126 984 CURVE SMOOTH",
"1126 1128 OFFCURVE",
"1078.5 1249.333 OFFCURVE",
"992.5 1336 CURVE SMOOTH",
"906.5 1422.667 OFFCURVE",
"781.333 1473 OFFCURVE",
"624 1473 CURVE SMOOTH",
"469.333 1473 OFFCURVE",
"342.5 1418 OFFCURVE",
"252.5 1330 CURVE SMOOTH",
"162.5 1242 OFFCURVE",
"112 1121 OFFCURVE",
"112 989 CURVE SMOOTH",
"112 845 OFFCURVE",
"164.833 740.333 OFFCURVE",
"241.5 671 CURVE SMOOTH",
"318.167 601.667 OFFCURVE",
"417.333 568 OFFCURVE",
"512 568 CURVE SMOOTH"
);
},
{
closed = 1;
nodes = (
"830 880 OFFCURVE",
"756 794 OFFCURVE",
"624 794 CURVE SMOOTH",
"489.333 794 OFFCURVE",
"422 866.667 OFFCURVE",
"422 1012 CURVE SMOOTH",
"422 1135.349 OFFCURVE",
"496.7 1228 OFFCURVE",
"620 1228 CURVE SMOOTH",
"746.899 1228 OFFCURVE",
"830 1149.616 OFFCURVE",
"830 1012 CURVE SMOOTH"
);
}
);
userData = {
assembly = "NPUSHB[ ]\011/* 16 values pushed */
1 0 45 43 38 36 25 23 11 9 0 31 1 31 6 7 
CALL[ ]\011/* CallFunction */
MPPEM[ ]\011/* MeasurePixelPerEm */
PUSHB[ ]\011/* 1 value pushed */
94 
LT[ ]\011/* LessThan */
IF[ ]\011/* If */
NPUSHB[ ]\011/* 36 values pushed */
29 1 0 4 1 30 0 4 5 1 0 2 4 0 1 0 38 0 3 3 1 1 0 36 0 1 1 17 31 0 2 2 12 2 32 5 
ELSE[ ]\011/* Else */
NPUSHB[ ]\011/* 45 values pushed */
29 1 0 4 1 30 0 2 0 2 53 0 1 0 3 4 1 3 1 0 38 0 4 0 0 4 1 0 35 0 4 4 0 1 0 36 5 1 0 4 0 1 0 33 6 
EIF[ ]\011/* EndIf */
PUSHB[ ]\011/* 1 value pushed */
56 
CALL[ ]\011/* CallFunction */";
};
width = 1160;
}
);
note = nine;
unicode = 0039;
},
{
glyphname = onesuperior;
layers = (
{
layerId = "0F82F74C-23B9-402A-A6A2-E1A5FCDC2DA6";
paths = (
{
closed = 1;
nodes = (
"150 900 LINE",
"602 900 LINE",
"602 1036 LINE",
"500 1036 LINE",
"500 1650 LINE",
"314 1650 LINE",
"72 1451 LINE",
"140 1361 LINE SMOOTH",
"149.333 1349 OFFCURVE",
"170 1337 OFFCURVE",
"194 1337 CURVE SMOOTH",
"208.667 1337 OFFCURVE",
"222.667 1341.667 OFFCURVE",
"236 1351 CURVE SMOOTH",
"286 1388 LINE",
"280 1334 LINE",
"280 1036 LINE",
"150 1036 LINE"
);
}
);
userData = {
assembly = "NPUSHB[ ]\011/* 12 values pushed */
16 15 14 13 12 11 7 5 1 0 5 7 
CALL[ ]\011/* CallFunction */
MPPEM[ ]\011/* MeasurePixelPerEm */
PUSHB[ ]\011/* 1 value pushed */
94 
LT[ ]\011/* LessThan */
IF[ ]\011/* If */
NPUSHB[ ]\011/* 36 values pushed */
10 3 2 1 2 2 1 0 1 2 30 0 2 1 2 52 0 1 0 1 52 0 4 4 0 0 0 36 3 1 0 0 14 4 32 5 
ELSE[ ]\011/* Else */
MPPEM[ ]\011/* MeasurePixelPerEm */
PUSHB[ ]\011/* 1 value pushed */
232 
LT[ ]\011/* LessThan */
IF[ ]\011/* If */
NPUSHB[ ]\011/* 46 values pushed */
10 3 2 1 2 2 1 0 1 2 30 0 2 1 2 52 0 1 0 1 52 3 1 0 4 4 0 0 0 35 3 1 0 0 4 0 2 36 0 4 0 4 0 2 33 6 
ELSE[ ]\011/* Else */
NPUSHB[ ]\011/* 51 values pushed */
10 3 2 1 2 2 1 0 1 2 30 0 2 1 2 52 0 1 0 1 52 0 3 0 4 0 3 42 0 0 3 4 0 0 0 35 0 0 0 4 0 2 36 0 4 0 4 0 2 33 7 
EIF[ ]\011/* EndIf */
EIF[ ]\011/* EndIf */
PUSHB[ ]\011/* 1 value pushed */
56 
CALL[ ]\011/* CallFunction */";
};
width = 668;
}
);
note = onesuperior;
unicode = 00B9;
},
{
glyphname = twosuperior;
layers = (
{
layerId = "0F82F74C-23B9-402A-A6A2-E1A5FCDC2DA6";
paths = (
{
closed = 1;
nodes = (
"191.637 1658 OFFCURVE",
"79.543 1583.569 OFFCURVE",
"56 1424 CURVE",
"180 1405 LINE SMOOTH",
"190.667 1403 OFFCURVE",
"200.667 1402 OFFCURVE",
"210 1402 CURVE SMOOTH",
"247.333 1402 OFFCURVE",
"263.333 1418.333 OFFCURVE",
"282 1445 CURVE",
"298 1474.333 OFFCURVE",
"312 1487 OFFCURVE",
"340 1487 CURVE SMOOTH",
"374.667 1487 OFFCURVE",
"386 1458 OFFCURVE",
"386 1426 CURVE SMOOTH",
"386 1374.794 OFFCURVE",
"338.965 1296.965 OFFCURVE",
"290 1248 CURVE SMOOTH",
"92 1054 LINE SMOOTH",
"65.333 1028.667 OFFCURVE",
"56 995.667 OFFCURVE",
"56 969 CURVE SMOOTH",
"56 900 LINE",
"626 900 LINE",
"626 1026 LINE SMOOTH",
"626 1067.333 OFFCURVE",
"598.667 1094 OFFCURVE",
"552 1094 CURVE SMOOTH",
"484 1094 LINE SMOOTH",
"449.333 1094 OFFCURVE",
"405 1085.333 OFFCURVE",
"361 1072 CURVE",
"462 1175 LINE SMOOTH",
"537.743 1256.153 OFFCURVE",
"610 1326.06 OFFCURVE",
"610 1434 CURVE SMOOTH",
"610 1563.445 OFFCURVE",
"513.509 1658 OFFCURVE",
"352 1658 CURVE SMOOTH"
);
}
);
userData = {
assembly = "NPUSHB[ ]\011/* 16 values pushed */
1 0 40 38 34 32 20 19 16 13 0 46 1 46 6 7 
CALL[ ]\011/* CallFunction */
MPPEM[ ]\011/* MeasurePixelPerEm */
PUSHB[ ]\011/* 1 value pushed */
24 
LT[ ]\011/* LessThan */
IF[ ]\011/* If */
NPUSHB[ ]\011/* 43 values pushed */
42 1 4 3 11 1 2 1 2 30 0 4 3 1 3 4 1 50 5 1 0 0 3 4 0 3 1 0 38 0 2 2 1 1 0 36 0 1 1 20 2 32 5 
ELSE[ ]\011/* Else */
NPUSHB[ ]\011/* 52 values pushed */
42 1 4 3 11 1 2 1 2 30 0 4 3 1 3 4 1 50 5 1 0 0 3 4 0 3 1 0 38 0 1 2 2 1 1 0 35 0 1 1 2 0 0 36 0 2 1 2 0 0 33 6 
EIF[ ]\011/* EndIf */
PUSHB[ ]\011/* 1 value pushed */
56 
CALL[ ]\011/* CallFunction */";
};
width = 668;
}
);
note = twosuperior;
unicode = 00B2;
},
{
glyphname = threesuperior;
layers = (
{
layerId = "0F82F74C-23B9-402A-A6A2-E1A5FCDC2DA6";
paths = (
{
closed = 1;
nodes = (
"216.003 1658 OFFCURVE",
"105.157 1580.956 OFFCURVE",
"82 1424 CURVE",
"196 1405 LINE SMOOTH",
"208.667 1403 OFFCURVE",
"219.667 1402 OFFCURVE",
"229 1402 CURVE SMOOTH",
"262.333 1402 OFFCURVE",
"276.667 1416.333 OFFCURVE",
"294 1447 CURVE",
"306 1471 OFFCURVE",
"320 1483 OFFCURVE",
"352 1483 CURVE SMOOTH",
"394.667 1483 OFFCURVE",
"404 1456.667 OFFCURVE",
"404 1422 CURVE SMOOTH",
"404 1366.211 OFFCURVE",
"376.11 1348 OFFCURVE",
"280 1348 CURVE",
"280 1208 LINE",
"373.459 1208 OFFCURVE",
"406 1202.594 OFFCURVE",
"406 1132 CURVE SMOOTH",
"406 1093.333 OFFCURVE",
"382 1068 OFFCURVE",
"342 1068 CURVE SMOOTH",
"318 1068 OFFCURVE",
"290.667 1079.333 OFFCURVE",
"272 1114 CURVE SMOOTH",
"260.667 1135.333 OFFCURVE",
"239.333 1146 OFFCURVE",
"208 1146 CURVE SMOOTH",
"192.667 1146 OFFCURVE",
"176.667 1143 OFFCURVE",
"160 1137 CURVE SMOOTH",
"64 1099 LINE",
"120.22 938.007 OFFCURVE",
"207.819 892 OFFCURVE",
"354 892 CURVE SMOOTH",
"495.91 892 OFFCURVE",
"628 973.275 OFFCURVE",
"628 1140 CURVE SMOOTH",
"628 1216 OFFCURVE",
"590 1260.667 OFFCURVE",
"514 1286 CURVE",
"587.333 1320.667 OFFCURVE",
"616 1378.333 OFFCURVE",
"616 1461 CURVE SMOOTH",
"616 1567.122 OFFCURVE",
"515.621 1658 OFFCURVE",
"364 1658 CURVE SMOOTH"
);
}
);
userData = {
assembly = "NPUSHB[ ]\011/* 22 values pushed */
1 0 53 51 47 45 39 38 37 36 30 28 25 23 17 15 0 59 1 59 9 7 
CALL[ ]\011/* CallFunction */
MPPEM[ ]\011/* MeasurePixelPerEm */
PUSHB[ ]\011/* 1 value pushed */
66 
LT[ ]\011/* LessThan */
IF[ ]\011/* If */
NPUSHB[ ]\011/* 65 values pushed */
55 1 7 6 8 1 4 5 21 1 3 2 3 30 0 7 6 5 6 7 5 50 0 2 4 3 4 2 3 50 8 1 0 0 6 7 0 6 1 0 38 0 5 0 4 2 5 4 1 0 38 0 1 1 3 1 0 36 0 3 3 20 1 32 7 
ELSE[ ]\011/* Else */
NPUSHB[ ]\011/* 74 values pushed */
55 1 7 6 8 1 4 5 21 1 3 2 3 30 0 7 6 5 6 7 5 50 0 2 4 3 4 2 3 50 8 1 0 0 6 7 0 6 1 0 38 0 5 0 4 2 5 4 1 0 38 0 3 1 1 3 1 0 35 0 3 3 1 1 0 36 0 1 3 1 1 0 33 8 
EIF[ ]\011/* EndIf */
PUSHB[ ]\011/* 1 value pushed */
56 
CALL[ ]\011/* CallFunction */";
};
width = 668;
}
);
note = threesuperior;
unicode = 00B3;
},
{
glyphname = fraction;
layers = (
{
layerId = "0F82F74C-23B9-402A-A6A2-E1A5FCDC2DA6";
paths = (
{
closed = 1;
nodes = (
"974 1457 LINE",
"842 1457 LINE SMOOTH",
"770 1457 OFFCURVE",
"722 1421.667 OFFCURVE",
"682 1359 CURVE SMOOTH",
"-166 0 LINE",
"-34 0 LINE SMOOTH",
"33.389 0 OFFCURVE",
"77.365 21.507 OFFCURVE",
"118 85 CURVE SMOOTH"
);
}
);
userData = {
assembly = "NPUSHB[ ]\011/* 6 values pushed */
11 9 6 4 2 7 
CALL[ ]\011/* CallFunction */
MPPEM[ ]\011/* MeasurePixelPerEm */
PUSHB[ ]\011/* 1 value pushed */
94 
LT[ ]\011/* LessThan */
IF[ ]\011/* If */
NPUSHB[ ]\011/* 12 values pushed */
0 1 1 11 31 0 0 0 12 0 32 2 
ELSE[ ]\011/* Else */
NPUSHB[ ]\011/* 10 values pushed */
0 1 0 1 52 0 0 0 43 2 
EIF[ ]\011/* EndIf */
PUSHB[ ]\011/* 1 value pushed */
56 
CALL[ ]\011/* CallFunction */";
};
width = 800;
}
);
note = fraction;
unicode = 2044;
},
{
glyphname = onehalf;
layers = (
{
layerId = "0F82F74C-23B9-402A-A6A2-E1A5FCDC2DA6";
paths = (
{
closed = 1;
nodes = (
"967.637 758 OFFCURVE",
"855.543 683.569 OFFCURVE",
"832 524 CURVE",
"956 505 LINE SMOOTH",
"966.667 503 OFFCURVE",
"976.667 502 OFFCURVE",
"986 502 CURVE SMOOTH",
"1023.333 502 OFFCURVE",
"1039.333 518.333 OFFCURVE",
"1058 545 CURVE",
"1074 574.333 OFFCURVE",
"1088 587 OFFCURVE",
"1116 587 CURVE SMOOTH",
"1150.667 587 OFFCURVE",
"1162 558 OFFCURVE",
"1162 526 CURVE SMOOTH",
"1162 474.794 OFFCURVE",
"1114.965 396.965 OFFCURVE",
"1066 348 CURVE SMOOTH",
"868 154 LINE SMOOTH",
"841.333 128.667 OFFCURVE",
"832 95.667 OFFCURVE",
"832 69 CURVE SMOOTH",
"832 0 LINE",
"1402 0 LINE",
"1402 126 LINE SMOOTH",
"1402 167.333 OFFCURVE",
"1374.667 194 OFFCURVE",
"1328 194 CURVE SMOOTH",
"1260 194 LINE SMOOTH",
"1225.333 194 OFFCURVE",
"1181 185.333 OFFCURVE",
"1137 172 CURVE",
"1238 275 LINE SMOOTH",
"1313.743 356.153 OFFCURVE",
"1386 426.06 OFFCURVE",
"1386 534 CURVE SMOOTH",
"1386 663.445 OFFCURVE",
"1289.509 758 OFFCURVE",
"1128 758 CURVE SMOOTH"
);
},
{
closed = 1;
nodes = (
"130 708 LINE",
"582 708 LINE",
"582 844 LINE",
"480 844 LINE",
"480 1458 LINE",
"294 1458 LINE",
"52 1259 LINE",
"120 1169 LINE SMOOTH",
"129.333 1157 OFFCURVE",
"150 1145 OFFCURVE",
"174 1145 CURVE SMOOTH",
"188.667 1145 OFFCURVE",
"202.667 1149.667 OFFCURVE",
"216 1159 CURVE SMOOTH",
"266 1196 LINE",
"260 1142 LINE",
"260 844 LINE",
"130 844 LINE"
);
},
{
closed = 1;
nodes = (
"1294 1457 LINE",
"1162 1457 LINE SMOOTH",
"1090 1457 OFFCURVE",
"1042 1421.667 OFFCURVE",
"1002 1359 CURVE SMOOTH",
"154 0 LINE",
"286 0 LINE SMOOTH",
"353.389 0 OFFCURVE",
"397.365 21.507 OFFCURVE",
"438 85 CURVE SMOOTH"
);
}
);
userData = {
assembly = "NPUSHB[ ]\011/* 30 values pushed */
1 0 75 73 70 68 63 62 61 60 59 58 54 52 48 47 40 38 34 32 20 19 16 13 0 46 1 46 13 7 
CALL[ ]\011/* CallFunction */
MPPEM[ ]\011/* MeasurePixelPerEm */
PUSHB[ ]\011/* 1 value pushed */
94 
LT[ ]\011/* LessThan */
IF[ ]\011/* If */
NPUSHB[ ]\011/* 78 values pushed */
57 50 2 6 7 49 1 5 6 42 1 4 3 11 1 2 1 4 30 0 6 7 5 7 6 5 50 0 4 3 1 3 4 1 50 8 1 5 0 9 3 5 9 0 2 38 12 1 0 0 3 4 0 3 1 0 38 11 1 7 7 11 31 0 1 1 2 1 0 36 10 1 2 2 12 2 32 8 
ELSE[ ]\011/* Else */
MPPEM[ ]\011/* MeasurePixelPerEm */
PUSHB[ ]\011/* 1 value pushed */
78 
LT[ ]\011/* LessThan */
IF[ ]\011/* If */
NPUSHB[ ]\011/* 84 values pushed */
57 50 2 6 7 49 1 5 6 42 1 4 3 11 1 2 1 4 30 11 1 7 6 7 52 0 6 5 6 52 0 4 3 1 3 4 1 50 8 1 5 0 9 3 5 9 0 2 38 12 1 0 0 3 4 0 3 1 0 38 0 1 2 2 1 1 0 35 0 1 1 2 1 0 36 10 1 2 1 2 1 0 33 9 
ELSE[ ]\011/* Else */
MPPEM[ ]\011/* MeasurePixelPerEm */
PUSHW[ ]\011/* 1 value pushed */
1000 
LT[ ]\011/* LessThan */
IF[ ]\011/* If */
NPUSHB[ ]\011/* 88 values pushed */
57 50 2 6 11 49 1 5 6 42 1 4 3 11 1 2 1 4 30 0 7 11 7 52 0 11 6 11 52 0 6 5 6 52 0 4 3 1 3 4 1 50 8 1 5 0 9 3 5 9 0 2 38 12 1 0 0 3 4 0 3 1 2 38 0 1 2 2 1 1 0 35 0 1 1 2 1 0 36 10 1 2 1 2 1 0 33 10 
ELSE[ ]\011/* Else */
NPUSHB[ ]\011/* 101 values pushed */
57 50 2 6 11 49 1 5 6 42 1 4 3 11 1 10 1 4 30 0 7 11 7 52 0 11 6 11 52 0 6 5 6 52 0 8 5 0 5 8 42 0 4 3 1 3 4 1 50 0 10 1 2 1 10 2 50 0 5 0 9 3 5 9 0 2 38 12 1 0 0 3 4 0 3 1 2 38 0 1 10 2 1 1 0 35 0 1 1 2 0 0 36 0 2 1 2 0 0 33 12 
EIF[ ]\011/* EndIf */
EIF[ ]\011/* EndIf */
EIF[ ]\011/* EndIf */
PUSHB[ ]\011/* 1 value pushed */
56 
CALL[ ]\011/* CallFunction */";
};
width = 1424;
}
);
note = onehalf;
unicode = 00BD;
},
{
glyphname = onequarter;
layers = (
{
layerId = "0F82F74C-23B9-402A-A6A2-E1A5FCDC2DA6";
paths = (
{
closed = 1;
nodes = (
"1342 750 LINE",
"1128 750 LINE",
"800 285 LINE",
"818 193 LINE SMOOTH",
"823.333 167.667 OFFCURVE",
"845.333 149 OFFCURVE",
"884 149 CURVE SMOOTH",
"1158 149 LINE",
"1158 0 LINE",
"1342 0 LINE",
"1342 149 LINE",
"1382 149 LINE SMOOTH",
"1406 149 OFFCURVE",
"1422 168 OFFCURVE",
"1422 188 CURVE SMOOTH",
"1422 295 LINE",
"1342 295 LINE"
);
},
{
closed = 1;
nodes = (
"130 708 LINE",
"582 708 LINE",
"582 844 LINE",
"480 844 LINE",
"480 1458 LINE",
"294 1458 LINE",
"52 1259 LINE",
"120 1169 LINE SMOOTH",
"129.333 1157 OFFCURVE",
"150 1145 OFFCURVE",
"174 1145 CURVE SMOOTH",
"188.667 1145 OFFCURVE",
"202.667 1149.667 OFFCURVE",
"216 1159 CURVE SMOOTH",
"266 1196 LINE",
"260 1142 LINE",
"260 844 LINE",
"130 844 LINE"
);
},
{
closed = 1;
nodes = (
"1158 295 LINE",
"999 295 LINE",
"1165 525 LINE",
"1159.667 481 OFFCURVE",
"1158 438.667 OFFCURVE",
"1158 404 CURVE SMOOTH"
);
},
{
closed = 1;
nodes = (
"1332 1457 LINE",
"1200 1457 LINE SMOOTH",
"1128 1457 OFFCURVE",
"1080 1421.667 OFFCURVE",
"1040 1359 CURVE SMOOTH",
"192 0 LINE",
"324 0 LINE SMOOTH",
"391.389 0 OFFCURVE",
"435.365 21.507 OFFCURVE",
"476 85 CURVE SMOOTH"
);
}
);
userData = {
assembly = "NPUSHB[ ]\011/* 28 values pushed */
51 49 46 44 39 38 33 32 31 30 29 28 24 22 18 17 16 15 11 9 8 7 6 4 1 0 13 7 
CALL[ ]\011/* CallFunction */
MPPEM[ ]\011/* MeasurePixelPerEm */
PUSHB[ ]\011/* 1 value pushed */
94 
LT[ ]\011/* LessThan */
IF[ ]\011/* If */
NPUSHB[ ]\011/* 67 values pushed */
27 20 2 6 7 19 1 5 6 37 1 0 9 3 30 0 6 7 5 7 6 5 50 8 1 5 0 9 0 5 9 0 2 38 10 1 0 3 1 1 2 0 1 1 0 38 12 1 7 7 11 31 0 4 4 2 1 0 36 11 1 2 2 12 2 32 7 
ELSE[ ]\011/* Else */
MPPEM[ ]\011/* MeasurePixelPerEm */
PUSHB[ ]\011/* 1 value pushed */
78 
LT[ ]\011/* LessThan */
IF[ ]\011/* If */
NPUSHB[ ]\011/* 73 values pushed */
27 20 2 6 7 19 1 5 6 37 1 0 9 3 30 12 1 7 6 7 52 0 6 5 6 52 0 4 9 2 4 0 0 35 8 1 5 0 9 0 5 9 0 2 38 10 1 0 3 1 1 2 0 1 1 0 38 0 4 4 2 1 0 36 11 1 2 4 2 1 0 33 8 
ELSE[ ]\011/* Else */
MPPEM[ ]\011/* MeasurePixelPerEm */
PUSHW[ ]\011/* 1 value pushed */
1000 
LT[ ]\011/* LessThan */
IF[ ]\011/* If */
NPUSHB[ ]\011/* 77 values pushed */
27 20 2 6 12 19 1 5 6 37 1 0 9 3 30 0 7 12 7 52 0 12 6 12 52 0 6 5 6 52 0 4 9 2 4 0 0 35 8 1 5 0 9 0 5 9 0 2 38 10 1 0 3 1 1 2 0 1 1 0 38 0 4 4 2 1 2 36 11 1 2 4 2 1 2 33 9 
ELSE[ ]\011/* Else */
NPUSHB[ ]\011/* 98 values pushed */
27 20 2 6 12 19 1 5 6 37 1 0 9 3 30 0 7 12 7 52 0 12 6 12 52 0 6 5 6 52 0 8 5 4 5 8 42 0 11 1 2 1 11 2 50 0 4 9 2 4 0 0 35 0 5 0 9 0 5 9 0 2 38 0 10 0 3 1 10 3 1 0 38 0 0 0 1 11 0 1 1 0 38 0 4 4 2 0 2 36 0 2 4 2 0 2 33 12 
EIF[ ]\011/* EndIf */
EIF[ ]\011/* EndIf */
EIF[ ]\011/* EndIf */
PUSHB[ ]\011/* 1 value pushed */
56 
CALL[ ]\011/* CallFunction */";
};
width = 1424;
}
);
note = onequarter;
unicode = 00BC;
},
{
glyphname = threequarters;
layers = (
{
layerId = "0F82F74C-23B9-402A-A6A2-E1A5FCDC2DA6";
paths = (
{
closed = 1;
nodes = (
"1342 750 LINE",
"1128 750 LINE",
"800 285 LINE",
"818 193 LINE SMOOTH",
"823.333 167.667 OFFCURVE",
"845.333 149 OFFCURVE",
"884 149 CURVE SMOOTH",
"1158 149 LINE",
"1158 0 LINE",
"1342 0 LINE",
"1342 149 LINE",
"1382 149 LINE SMOOTH",
"1406 149 OFFCURVE",
"1422 168 OFFCURVE",
"1422 188 CURVE SMOOTH",
"1422 295 LINE",
"1342 295 LINE"
);
},
{
closed = 1;
nodes = (
"196.003 1466 OFFCURVE",
"85.157 1388.956 OFFCURVE",
"62 1232 CURVE",
"176 1213 LINE SMOOTH",
"188.667 1211 OFFCURVE",
"199.667 1210 OFFCURVE",
"209 1210 CURVE SMOOTH",
"242.333 1210 OFFCURVE",
"256.667 1224.333 OFFCURVE",
"274 1255 CURVE",
"286 1279 OFFCURVE",
"300 1291 OFFCURVE",
"332 1291 CURVE SMOOTH",
"374.667 1291 OFFCURVE",
"384 1264.667 OFFCURVE",
"384 1230 CURVE SMOOTH",
"384 1174.211 OFFCURVE",
"356.11 1156 OFFCURVE",
"260 1156 CURVE",
"260 1016 LINE",
"353.459 1016 OFFCURVE",
"386 1010.594 OFFCURVE",
"386 940 CURVE SMOOTH",
"386 901.333 OFFCURVE",
"362 876 OFFCURVE",
"322 876 CURVE SMOOTH",
"298 876 OFFCURVE",
"270.667 887.333 OFFCURVE",
"252 922 CURVE SMOOTH",
"240.667 943.333 OFFCURVE",
"219.333 954 OFFCURVE",
"188 954 CURVE SMOOTH",
"172.667 954 OFFCURVE",
"156.667 951 OFFCURVE",
"140 945 CURVE SMOOTH",
"44 907 LINE",
"100.22 746.007 OFFCURVE",
"187.819 700 OFFCURVE",
"334 700 CURVE SMOOTH",
"475.91 700 OFFCURVE",
"608 781.275 OFFCURVE",
"608 948 CURVE SMOOTH",
"608 1024 OFFCURVE",
"570 1068.667 OFFCURVE",
"494 1094 CURVE",
"567.333 1128.667 OFFCURVE",
"596 1186.333 OFFCURVE",
"596 1269 CURVE SMOOTH",
"596 1375.122 OFFCURVE",
"495.621 1466 OFFCURVE",
"344 1466 CURVE SMOOTH"
);
},
{
closed = 1;
nodes = (
"1158 295 LINE",
"999 295 LINE",
"1165 525 LINE",
"1159.667 481 OFFCURVE",
"1158 438.667 OFFCURVE",
"1158 404 CURVE SMOOTH"
);
},
{
closed = 1;
nodes = (
"1332 1457 LINE",
"1200 1457 LINE SMOOTH",
"1128 1457 OFFCURVE",
"1080 1421.667 OFFCURVE",
"1040 1359 CURVE SMOOTH",
"192 0 LINE",
"324 0 LINE SMOOTH",
"391.389 0 OFFCURVE",
"435.365 21.507 OFFCURVE",
"476 85 CURVE SMOOTH"
);
}
);
userData = {
assembly = "NPUSHB[ ]\011/* 38 values pushed */
18 17 94 92 89 87 82 81 70 68 64 62 56 55 54 53 47 45 42 40 34 32 17 76 18 76 16 15 11 9 8 7 6 4 1 0 17 7 
CALL[ ]\011/* CallFunction */
MPPEM[ ]\011/* MeasurePixelPerEm */
PUSHB[ ]\011/* 1 value pushed */
9 
LT[ ]\011/* LessThan */
IF[ ]\011/* If */
NPUSHB[ ]\011/* 94 values pushed */
72 1 12 11 25 1 9 10 38 1 8 7 80 1 0 6 4 30 0 12 11 10 11 12 10 50 0 7 9 8 8 7 42 0 10 0 9 7 10 9 1 0 38 0 8 0 6 0 8 6 1 2 38 13 1 0 3 1 1 2 0 1 1 0 38 0 11 11 5 1 0 36 15 16 2 5 5 11 31 0 4 4 2 1 2 36 14 1 2 2 12 2 32 10 
ELSE[ ]\011/* Else */
MPPEM[ ]\011/* MeasurePixelPerEm */
PUSHB[ ]\011/* 1 value pushed */
11 
LT[ ]\011/* LessThan */
IF[ ]\011/* If */
NPUSHB[ ]\011/* 94 values pushed */
72 1 12 11 25 1 9 10 38 1 8 7 80 1 0 6 4 30 0 12 11 10 11 12 10 50 0 7 9 8 8 7 42 0 10 0 9 7 10 9 1 0 38 0 8 0 6 0 8 6 1 2 38 13 1 0 3 1 1 2 0 1 1 0 38 0 11 11 5 1 0 36 15 16 2 5 5 17 31 0 4 4 2 1 2 36 14 1 2 2 12 2 32 10 
ELSE[ ]\011/* Else */
MPPEM[ ]\011/* MeasurePixelPerEm */
PUSHB[ ]\011/* 1 value pushed */
13 
LT[ ]\011/* LessThan */
IF[ ]\011/* If */
NPUSHB[ ]\011/* 94 values pushed */
72 1 12 11 25 1 9 10 38 1 8 7 80 1 0 6 4 30 0 12 11 10 11 12 10 50 0 7 9 8 8 7 42 0 10 0 9 7 10 9 1 0 38 0 8 0 6 0 8 6 1 2 38 13 1 0 3 1 1 2 0 1 1 0 38 0 11 11 5 1 0 36 15 16 2 5 5 11 31 0 4 4 2 1 2 36 14 1 2 2 12 2 32 10 
ELSE[ ]\011/* Else */
MPPEM[ ]\011/* MeasurePixelPerEm */
PUSHB[ ]\011/* 1 value pushed */
32 
LT[ ]\011/* LessThan */
IF[ ]\011/* If */
NPUSHB[ ]\011/* 94 values pushed */
72 1 12 11 25 1 9 10 38 1 8 7 80 1 0 6 4 30 0 12 11 10 11 12 10 50 0 7 9 8 8 7 42 0 10 0 9 7 10 9 1 0 38 0 8 0 6 0 8 6 1 2 38 13 1 0 3 1 1 2 0 1 1 0 38 0 11 11 5 1 0 36 15 16 2 5 5 17 31 0 4 4 2 1 2 36 14 1 2 2 12 2 32 10 
ELSE[ ]\011/* Else */
MPPEM[ ]\011/* MeasurePixelPerEm */
PUSHB[ ]\011/* 1 value pushed */
52 
LT[ ]\011/* LessThan */
IF[ ]\011/* If */
NPUSHB[ ]\011/* 95 values pushed */
72 1 12 11 25 1 9 10 38 1 8 7 80 1 0 6 4 30 0 12 11 10 11 12 10 50 0 7 9 8 9 7 8 50 0 10 0 9 7 10 9 1 0 38 0 8 0 6 0 8 6 1 2 38 13 1 0 3 1 1 2 0 1 1 0 38 0 11 11 5 1 0 36 15 16 2 5 5 17 31 0 4 4 2 1 2 36 14 1 2 2 12 2 32 10 
ELSE[ ]\011/* Else */
MPPEM[ ]\011/* MeasurePixelPerEm */
PUSHB[ ]\011/* 1 value pushed */
94 
LT[ ]\011/* LessThan */
IF[ ]\011/* If */
NPUSHB[ ]\011/* 99 values pushed */
72 1 12 11 25 1 9 10 38 1 8 7 80 1 0 6 4 30 0 12 11 10 11 12 10 50 0 7 9 8 9 7 8 50 0 10 0 9 7 10 9 1 0 38 0 8 0 6 0 8 6 1 2 38 13 1 0 3 1 1 2 0 1 1 0 38 0 15 15 11 31 0 11 11 5 1 0 36 16 1 5 5 17 31 0 4 4 2 1 2 36 14 1 2 2 12 2 32 11 
ELSE[ ]\011/* Else */
MPPEM[ ]\011/* MeasurePixelPerEm */
PUSHB[ ]\011/* 1 value pushed */
232 
LT[ ]\011/* LessThan */
IF[ ]\011/* If */
NPUSHB[ ]\011/* 109 values pushed */
72 1 12 11 25 1 9 10 38 1 8 7 80 1 0 6 4 30 0 15 5 11 5 15 11 50 0 12 11 10 11 12 10 50 0 7 9 8 9 7 8 50 16 1 5 0 11 12 5 11 1 0 38 0 10 0 9 7 10 9 1 0 38 0 4 6 2 4 0 0 35 0 8 0 6 0 8 6 1 2 38 13 1 0 3 1 1 2 0 1 1 0 38 0 4 4 2 1 2 36 14 1 2 4 2 1 2 33 11 
ELSE[ ]\011/* Else */
NPUSHB[ ]\011/* 124 values pushed */
72 1 12 11 25 1 9 10 38 1 8 7 80 1 0 6 4 30 0 15 5 11 5 15 11 50 0 12 11 10 11 12 10 50 0 7 9 8 9 7 8 50 0 14 1 2 1 14 2 50 16 1 5 0 11 12 5 11 1 0 38 0 10 0 9 7 10 9 1 0 38 0 4 6 2 4 0 0 35 0 8 0 6 0 8 6 1 2 38 0 13 0 3 1 13 3 1 0 38 0 0 0 1 14 0 1 1 0 38 0 4 4 2 0 2 36 0 2 4 2 0 2 33 13 
EIF[ ]\011/* EndIf */
EIF[ ]\011/* EndIf */
EIF[ ]\011/* EndIf */
EIF[ ]\011/* EndIf */
EIF[ ]\011/* EndIf */
EIF[ ]\011/* EndIf */
EIF[ ]\011/* EndIf */
PUSHB[ ]\011/* 1 value pushed */
56 
CALL[ ]\011/* CallFunction */";
};
width = 1424;
}
);
note = threequarters;
unicode = 00BE;
},
{
glyphname = period;
layers = (
{
layerId = "0F82F74C-23B9-402A-A6A2-E1A5FCDC2DA6";
paths = (
{
closed = 1;
nodes = (
"60 59.388 OFFCURVE",
"136.294 -14 OFFCURVE",
"236 -14 CURVE SMOOTH",
"334.829 -14 OFFCURVE",
"412 60.052 OFFCURVE",
"412 157 CURVE SMOOTH",
"412 251.99 OFFCURVE",
"334.331 328 OFFCURVE",
"236 328 CURVE SMOOTH",
"136.786 328 OFFCURVE",
"60 252.642 OFFCURVE",
"60 157 CURVE SMOOTH"
);
}
);
userData = {
assembly = "NPUSHB[ ]\011/* 6 values pushed */
16 14 6 4 2 7 
CALL[ ]\011/* CallFunction */
MPPEM[ ]\011/* MeasurePixelPerEm */
PUSHB[ ]\011/* 1 value pushed */
94 
LT[ ]\011/* LessThan */
IF[ ]\011/* If */
NPUSHB[ ]\011/* 14 values pushed */
0 0 0 1 1 0 36 0 1 1 18 1 32 2 
ELSE[ ]\011/* Else */
NPUSHB[ ]\011/* 23 values pushed */
0 0 1 1 0 1 0 35 0 0 0 1 1 0 36 0 1 0 1 1 0 33 3 
EIF[ ]\011/* EndIf */
PUSHB[ ]\011/* 1 value pushed */
56 
CALL[ ]\011/* CallFunction */";
};
width = 472;
}
);
note = period;
unicode = 002E;
},
